<svg xmlns="http://www.w3.org/2000/svg" width="84.412" height="117.549" viewBox="0 0 84.412 117.549">
  <g id="Grupo_156848" data-name="Grupo 156848" transform="translate(-180.588 -1861)">
    <rect id="Rectángulo_45220" data-name="Rectángulo 45220" width="81.827" height="48.731" transform="translate(229.319 1861) rotate(90)" fill="#e4e4e4"/>
    <rect id="Rectángulo_45221" data-name="Rectángulo 45221" width="4.203" height="4.203" transform="translate(260.797 1916.036) rotate(-90)" fill="#7f4fc7"/>
    <rect id="Rectángulo_45891" data-name="Rectángulo 45891" width="4.203" height="4.203" transform="translate(260.797 1889.245) rotate(-90)" fill="#7f4fc7"/>
    <rect id="Rectángulo_45222" data-name="Rectángulo 45222" width="4.203" height="4.203" transform="translate(260.797 1924.967) rotate(-90)" fill="#7f4fc7"/>
    <rect id="Rectángulo_45892" data-name="Rectángulo 45892" width="4.203" height="4.203" transform="translate(260.797 1898.176) rotate(-90)" fill="#7f4fc7"/>
    <rect id="Rectángulo_45223" data-name="Rectángulo 45223" width="4.203" height="4.203" transform="translate(260.797 1933.897) rotate(-90)" fill="#7f4fc7"/>
    <rect id="Rectángulo_45893" data-name="Rectángulo 45893" width="4.203" height="4.203" transform="translate(260.797 1907.106) rotate(-90)" fill="#7f4fc7"/>
    <rect id="Rectángulo_45224" data-name="Rectángulo 45224" width="4.202" height="4.203" transform="translate(260.797 1942.827) rotate(-90)" fill="#7f4fc7"/>
    <rect id="Rectángulo_45225" data-name="Rectángulo 45225" width="4.203" height="4.203" transform="translate(260.797 1951.758) rotate(-90)" fill="#7f4fc7"/>
    <rect id="Rectángulo_45226" data-name="Rectángulo 45226" width="4.202" height="4.203" transform="translate(260.797 1960.688) rotate(-90)" fill="#7f4fc7"/>
    <rect id="Rectángulo_45227" data-name="Rectángulo 45227" width="4.203" height="4.203" transform="translate(260.797 1969.619) rotate(-90)" fill="#7f4fc7"/>
    <rect id="Rectángulo_45228" data-name="Rectángulo 45228" width="4.202" height="4.203" transform="translate(260.797 1978.549) rotate(-90)" fill="#7f4fc7"/>
    <rect id="Rectángulo_45232" data-name="Rectángulo 45232" width="4.203" height="4.203" transform="translate(251.867 1916.036) rotate(-90)" fill="#7f4fc7"/>
    <rect id="Rectángulo_45878" data-name="Rectángulo 45878" width="4.203" height="4.203" transform="translate(251.867 1889.245) rotate(-90)" fill="#7f4fc7"/>
    <rect id="Rectángulo_45233" data-name="Rectángulo 45233" width="4.203" height="4.203" transform="translate(251.867 1924.967) rotate(-90)" fill="#7f4fc7"/>
    <rect id="Rectángulo_45879" data-name="Rectángulo 45879" width="4.203" height="4.203" transform="translate(251.867 1898.176) rotate(-90)" fill="#7f4fc7"/>
    <rect id="Rectángulo_45234" data-name="Rectángulo 45234" width="4.203" height="4.203" transform="translate(251.867 1933.897) rotate(-90)" fill="#7f4fc7"/>
    <rect id="Rectángulo_45880" data-name="Rectángulo 45880" width="4.203" height="4.203" transform="translate(251.867 1907.106) rotate(-90)" fill="#7f4fc7"/>
    <rect id="Rectángulo_45235" data-name="Rectángulo 45235" width="4.202" height="4.203" transform="translate(251.867 1942.827) rotate(-90)" fill="#7f4fc7"/>
    <rect id="Rectángulo_45236" data-name="Rectángulo 45236" width="4.203" height="4.203" transform="translate(251.867 1951.758) rotate(-90)" fill="#7f4fc7"/>
    <rect id="Rectángulo_45237" data-name="Rectángulo 45237" width="4.202" height="4.203" transform="translate(251.867 1960.688) rotate(-90)" fill="#7f4fc7"/>
    <rect id="Rectángulo_45238" data-name="Rectángulo 45238" width="4.203" height="4.203" transform="translate(251.867 1969.619) rotate(-90)" fill="#7f4fc7"/>
    <rect id="Rectángulo_45239" data-name="Rectángulo 45239" width="4.202" height="4.203" transform="translate(251.867 1978.549) rotate(-90)" fill="#7f4fc7"/>
    <rect id="Rectángulo_45243" data-name="Rectángulo 45243" width="4.203" height="4.203" transform="translate(242.937 1916.036) rotate(-90)" fill="#7f4fc7"/>
    <rect id="Rectángulo_45881" data-name="Rectángulo 45881" width="4.203" height="4.203" transform="translate(242.937 1889.245) rotate(-90)" fill="#7f4fc7"/>
    <rect id="Rectángulo_45244" data-name="Rectángulo 45244" width="4.203" height="4.203" transform="translate(242.937 1924.967) rotate(-90)" fill="#7f4fc7"/>
    <rect id="Rectángulo_45882" data-name="Rectángulo 45882" width="4.203" height="4.203" transform="translate(242.937 1898.176) rotate(-90)" fill="#7f4fc7"/>
    <rect id="Rectángulo_45245" data-name="Rectángulo 45245" width="4.203" height="4.203" transform="translate(242.937 1933.897) rotate(-90)" fill="#7f4fc7"/>
    <rect id="Rectángulo_45883" data-name="Rectángulo 45883" width="4.203" height="4.203" transform="translate(242.937 1907.106) rotate(-90)" fill="#7f4fc7"/>
    <rect id="Rectángulo_45246" data-name="Rectángulo 45246" width="4.202" height="4.203" transform="translate(242.937 1942.827) rotate(-90)" fill="#7f4fc7"/>
    <rect id="Rectángulo_45247" data-name="Rectángulo 45247" width="4.203" height="4.203" transform="translate(242.937 1951.758) rotate(-90)" fill="#7f4fc7"/>
    <rect id="Rectángulo_45248" data-name="Rectángulo 45248" width="4.202" height="4.203" transform="translate(242.937 1960.688) rotate(-90)" fill="#7f4fc7"/>
    <rect id="Rectángulo_45249" data-name="Rectángulo 45249" width="4.203" height="4.203" transform="translate(242.937 1969.619) rotate(-90)" fill="#7f4fc7"/>
    <rect id="Rectángulo_45250" data-name="Rectángulo 45250" width="4.202" height="4.203" transform="translate(242.937 1978.549) rotate(-90)" fill="#7f4fc7"/>
    <rect id="Rectángulo_45221-2" data-name="Rectángulo 45221" width="4.203" height="4.203" transform="translate(234.753 1916.036) rotate(-90)" fill="#7f4fc7"/>
    <rect id="Rectángulo_45884" data-name="Rectángulo 45884" width="4.203" height="4.203" transform="translate(234.753 1889.245) rotate(-90)" fill="#7f4fc7"/>
    <rect id="Rectángulo_45222-2" data-name="Rectángulo 45222" width="4.203" height="4.203" transform="translate(234.753 1924.967) rotate(-90)" fill="#7f4fc7"/>
    <rect id="Rectángulo_45885" data-name="Rectángulo 45885" width="4.203" height="4.203" transform="translate(234.753 1898.176) rotate(-90)" fill="#7f4fc7"/>
    <rect id="Rectángulo_45223-2" data-name="Rectángulo 45223" width="4.203" height="4.203" transform="translate(234.753 1933.897) rotate(-90)" fill="#7f4fc7"/>
    <rect id="Rectángulo_45886" data-name="Rectángulo 45886" width="4.203" height="4.203" transform="translate(234.753 1907.106) rotate(-90)" fill="#7f4fc7"/>
    <rect id="Rectángulo_45224-2" data-name="Rectángulo 45224" width="4.202" height="4.203" transform="translate(234.753 1942.827) rotate(-90)" fill="#7f4fc7"/>
    <rect id="Rectángulo_45225-2" data-name="Rectángulo 45225" width="4.203" height="4.203" transform="translate(234.753 1951.758) rotate(-90)" fill="#7f4fc7"/>
    <rect id="Rectángulo_45226-2" data-name="Rectángulo 45226" width="4.202" height="4.203" transform="translate(234.753 1960.688) rotate(-90)" fill="#7f4fc7"/>
    <rect id="Rectángulo_45227-2" data-name="Rectángulo 45227" width="4.203" height="4.203" transform="translate(234.753 1969.619) rotate(-90)" fill="#7f4fc7"/>
    <rect id="Rectángulo_45228-2" data-name="Rectángulo 45228" width="4.202" height="4.203" transform="translate(234.753 1978.549) rotate(-90)" fill="#7f4fc7"/>
    <rect id="Rectángulo_45232-2" data-name="Rectángulo 45232" width="4.203" height="4.203" transform="translate(225.823 1916.036) rotate(-90)" fill="#7f4fc7"/>
    <rect id="Rectángulo_45887" data-name="Rectángulo 45887" width="4.203" height="4.203" transform="translate(225.823 1889.245) rotate(-90)" fill="#7f4fc7"/>
    <rect id="Rectángulo_45233-2" data-name="Rectángulo 45233" width="4.203" height="4.203" transform="translate(225.823 1924.967) rotate(-90)" fill="#7f4fc7"/>
    <rect id="Rectángulo_45888" data-name="Rectángulo 45888" width="4.203" height="4.203" transform="translate(225.823 1898.176) rotate(-90)" fill="#7f4fc7"/>
    <rect id="Rectángulo_45234-2" data-name="Rectángulo 45234" width="4.203" height="4.203" transform="translate(225.823 1933.897) rotate(-90)" fill="#7f4fc7"/>
    <rect id="Rectángulo_45889" data-name="Rectángulo 45889" width="4.203" height="4.203" transform="translate(225.823 1907.106) rotate(-90)" fill="#7f4fc7"/>
    <rect id="Rectángulo_45235-2" data-name="Rectángulo 45235" width="4.202" height="4.203" transform="translate(225.823 1942.827) rotate(-90)" fill="#7f4fc7"/>
    <rect id="Rectángulo_45236-2" data-name="Rectángulo 45236" width="4.203" height="4.203" transform="translate(225.823 1951.758) rotate(-90)" fill="#7f4fc7"/>
    <rect id="Rectángulo_45237-2" data-name="Rectángulo 45237" width="4.202" height="4.203" transform="translate(225.823 1960.688) rotate(-90)" fill="#7f4fc7"/>
    <rect id="Rectángulo_45238-2" data-name="Rectángulo 45238" width="4.203" height="4.203" transform="translate(225.823 1969.619) rotate(-90)" fill="#7f4fc7"/>
    <rect id="Rectángulo_45239-2" data-name="Rectángulo 45239" width="4.202" height="4.203" transform="translate(225.823 1978.549) rotate(-90)" fill="#7f4fc7"/>
    <rect id="Rectángulo_45243-2" data-name="Rectángulo 45243" width="4.203" height="4.203" transform="translate(216.892 1916.036) rotate(-90)" fill="#7f4fc7"/>
    <rect id="Rectángulo_45876" data-name="Rectángulo 45876" width="4.203" height="4.203" transform="translate(216.892 1889.245) rotate(-90)" fill="#7f4fc7"/>
    <rect id="Rectángulo_45244-2" data-name="Rectángulo 45244" width="4.203" height="4.203" transform="translate(216.892 1924.967) rotate(-90)" fill="#7f4fc7"/>
    <rect id="Rectángulo_45877" data-name="Rectángulo 45877" width="4.203" height="4.203" transform="translate(216.892 1898.176) rotate(-90)" fill="#7f4fc7"/>
    <rect id="Rectángulo_45245-2" data-name="Rectángulo 45245" width="4.203" height="4.203" transform="translate(216.892 1933.897) rotate(-90)" fill="#7f4fc7"/>
    <rect id="Rectángulo_45890" data-name="Rectángulo 45890" width="4.203" height="4.203" transform="translate(216.892 1907.106) rotate(-90)" fill="#7f4fc7"/>
    <rect id="Rectángulo_45246-2" data-name="Rectángulo 45246" width="4.202" height="4.203" transform="translate(216.892 1942.827) rotate(-90)" fill="#7f4fc7"/>
    <rect id="Rectángulo_45247-2" data-name="Rectángulo 45247" width="4.203" height="4.203" transform="translate(216.892 1951.758) rotate(-90)" fill="#7f4fc7"/>
    <rect id="Rectángulo_45248-2" data-name="Rectángulo 45248" width="4.202" height="4.203" transform="translate(216.892 1960.688) rotate(-90)" fill="#7f4fc7"/>
    <rect id="Rectángulo_45249-2" data-name="Rectángulo 45249" width="4.203" height="4.203" transform="translate(216.892 1969.619) rotate(-90)" fill="#7f4fc7"/>
    <rect id="Rectángulo_45250-2" data-name="Rectángulo 45250" width="4.202" height="4.203" transform="translate(216.892 1978.549) rotate(-90)" fill="#7f4fc7"/>
  </g>
</svg>
