<svg xmlns="http://www.w3.org/2000/svg" xmlns:xlink="http://www.w3.org/1999/xlink" width="295" height="225.197" viewBox="0 0 295 225.197">
  <defs>
    <clipPath id="clip-path">
      <path id="Trazado_194907" data-name="Trazado 194907" d="M0,95.244A41.911,41.911,0,1,0,41.911,53.333,41.91,41.91,0,0,0,0,95.244" transform="translate(0 -53.333)" fill="#7f4fc7"/>
    </clipPath>
    <clipPath id="clip-path-2">
      <rect id="Rectángulo_46326" data-name="Rectángulo 46326" width="70.134" height="46.67" fill="none"/>
    </clipPath>
    <clipPath id="clip-path-3">
      <path id="Trazado_196395" data-name="Trazado 196395" d="M330.771,119.244a50.177,50.177,0,1,0,34.849-14.081,50.177,50.177,0,0,0-34.849,14.081" transform="translate(-315.449 -105.163)" fill="none"/>
    </clipPath>
  </defs>
  <g id="Grupo_156326" data-name="Grupo 156326" transform="translate(-922.737 -1396.328)">
    <g id="Grupo_154369" data-name="Grupo 154369" transform="translate(922.737 1399.249)">
      <g id="Grupo_154368" data-name="Grupo 154368">
        <g id="Grupo_154313" data-name="Grupo 154313" transform="translate(34.203 138.454)">
          <g id="Grupo_152768" data-name="Grupo 152768" transform="translate(0 0)" clip-path="url(#clip-path)">
            <path id="Trazado_194826" data-name="Trazado 194826" d="M2.206,54.436a1.1,1.1,0,1,0-1.1,1.1,1.1,1.1,0,0,0,1.1-1.1" transform="translate(0 -53.333)" fill="#7f4fc7"/>
            <path id="Trazado_194827" data-name="Trazado 194827" d="M10.478,54.436a1.1,1.1,0,1,0-1.1,1.1,1.1,1.1,0,0,0,1.1-1.1" transform="translate(1.929 -53.333)" fill="#7f4fc7"/>
            <path id="Trazado_194828" data-name="Trazado 194828" d="M18.751,54.436a1.1,1.1,0,1,0-1.1,1.1,1.1,1.1,0,0,0,1.1-1.1" transform="translate(3.859 -53.333)" fill="#7f4fc7"/>
            <path id="Trazado_194829" data-name="Trazado 194829" d="M27.024,54.436a1.1,1.1,0,1,0-1.1,1.1,1.1,1.1,0,0,0,1.1-1.1" transform="translate(5.788 -53.333)" fill="#7f4fc7"/>
            <path id="Trazado_194830" data-name="Trazado 194830" d="M35.3,54.436a1.1,1.1,0,1,0-1.1,1.1,1.1,1.1,0,0,0,1.1-1.1" transform="translate(7.717 -53.333)" fill="#7f4fc7"/>
            <path id="Trazado_194831" data-name="Trazado 194831" d="M43.569,54.436a1.1,1.1,0,1,0-1.1,1.1,1.1,1.1,0,0,0,1.1-1.1" transform="translate(9.647 -53.333)" fill="#7f4fc7"/>
            <path id="Trazado_194832" data-name="Trazado 194832" d="M51.841,54.436a1.1,1.1,0,1,0-1.1,1.1,1.1,1.1,0,0,0,1.1-1.1" transform="translate(11.576 -53.333)" fill="#7f4fc7"/>
            <path id="Trazado_194833" data-name="Trazado 194833" d="M60.114,54.436a1.1,1.1,0,1,0-1.1,1.1,1.1,1.1,0,0,0,1.1-1.1" transform="translate(13.505 -53.333)" fill="#7f4fc7"/>
            <path id="Trazado_194834" data-name="Trazado 194834" d="M68.387,54.436a1.1,1.1,0,1,0-1.1,1.1,1.1,1.1,0,0,0,1.1-1.1" transform="translate(15.435 -53.333)" fill="#7f4fc7"/>
            <path id="Trazado_194835" data-name="Trazado 194835" d="M2.206,62.709a1.1,1.1,0,1,0-1.1,1.1,1.1,1.1,0,0,0,1.1-1.1" transform="translate(0 -51.404)" fill="#7f4fc7"/>
            <path id="Trazado_194836" data-name="Trazado 194836" d="M10.478,62.709a1.1,1.1,0,1,0-1.1,1.1,1.1,1.1,0,0,0,1.1-1.1" transform="translate(1.929 -51.404)" fill="#7f4fc7"/>
            <path id="Trazado_194837" data-name="Trazado 194837" d="M18.751,62.709a1.1,1.1,0,1,0-1.1,1.1,1.1,1.1,0,0,0,1.1-1.1" transform="translate(3.859 -51.404)" fill="#7f4fc7"/>
            <path id="Trazado_194838" data-name="Trazado 194838" d="M27.024,62.709a1.1,1.1,0,1,0-1.1,1.1,1.1,1.1,0,0,0,1.1-1.1" transform="translate(5.788 -51.404)" fill="#7f4fc7"/>
            <path id="Trazado_194839" data-name="Trazado 194839" d="M35.3,62.709a1.1,1.1,0,1,0-1.1,1.1,1.1,1.1,0,0,0,1.1-1.1" transform="translate(7.717 -51.404)" fill="#7f4fc7"/>
            <path id="Trazado_194840" data-name="Trazado 194840" d="M43.569,62.709a1.1,1.1,0,1,0-1.1,1.1,1.1,1.1,0,0,0,1.1-1.1" transform="translate(9.647 -51.404)" fill="#7f4fc7"/>
            <path id="Trazado_194841" data-name="Trazado 194841" d="M51.841,62.709a1.1,1.1,0,1,0-1.1,1.1,1.1,1.1,0,0,0,1.1-1.1" transform="translate(11.576 -51.404)" fill="#7f4fc7"/>
            <path id="Trazado_194842" data-name="Trazado 194842" d="M60.114,62.709a1.1,1.1,0,1,0-1.1,1.1,1.1,1.1,0,0,0,1.1-1.1" transform="translate(13.505 -51.404)" fill="#7f4fc7"/>
            <path id="Trazado_194843" data-name="Trazado 194843" d="M68.387,62.709a1.1,1.1,0,1,0-1.1,1.1,1.1,1.1,0,0,0,1.1-1.1" transform="translate(15.435 -51.404)" fill="#7f4fc7"/>
            <path id="Trazado_194844" data-name="Trazado 194844" d="M2.206,70.982a1.1,1.1,0,1,0-1.1,1.1,1.1,1.1,0,0,0,1.1-1.1" transform="translate(0 -49.474)" fill="#7f4fc7"/>
            <path id="Trazado_194845" data-name="Trazado 194845" d="M10.478,70.982a1.1,1.1,0,1,0-1.1,1.1,1.1,1.1,0,0,0,1.1-1.1" transform="translate(1.929 -49.474)" fill="#7f4fc7"/>
            <path id="Trazado_194846" data-name="Trazado 194846" d="M18.751,70.982a1.1,1.1,0,1,0-1.1,1.1,1.1,1.1,0,0,0,1.1-1.1" transform="translate(3.859 -49.474)" fill="#7f4fc7"/>
            <path id="Trazado_194847" data-name="Trazado 194847" d="M27.024,70.982a1.1,1.1,0,1,0-1.1,1.1,1.1,1.1,0,0,0,1.1-1.1" transform="translate(5.788 -49.474)" fill="#7f4fc7"/>
            <path id="Trazado_194848" data-name="Trazado 194848" d="M35.3,70.982a1.1,1.1,0,1,0-1.1,1.1,1.1,1.1,0,0,0,1.1-1.1" transform="translate(7.717 -49.474)" fill="#7f4fc7"/>
            <path id="Trazado_194849" data-name="Trazado 194849" d="M43.569,70.982a1.1,1.1,0,1,0-1.1,1.1,1.1,1.1,0,0,0,1.1-1.1" transform="translate(9.647 -49.474)" fill="#7f4fc7"/>
            <path id="Trazado_194850" data-name="Trazado 194850" d="M51.841,70.982a1.1,1.1,0,1,0-1.1,1.1,1.1,1.1,0,0,0,1.1-1.1" transform="translate(11.576 -49.474)" fill="#7f4fc7"/>
            <path id="Trazado_194851" data-name="Trazado 194851" d="M60.114,70.982a1.1,1.1,0,1,0-1.1,1.1,1.1,1.1,0,0,0,1.1-1.1" transform="translate(13.505 -49.474)" fill="#7f4fc7"/>
            <path id="Trazado_194852" data-name="Trazado 194852" d="M68.387,70.982a1.1,1.1,0,1,0-1.1,1.1,1.1,1.1,0,0,0,1.1-1.1" transform="translate(15.435 -49.474)" fill="#7f4fc7"/>
            <path id="Trazado_194853" data-name="Trazado 194853" d="M2.206,79.254a1.1,1.1,0,1,0-1.1,1.1,1.1,1.1,0,0,0,1.1-1.1" transform="translate(0 -47.545)" fill="#7f4fc7"/>
            <path id="Trazado_194854" data-name="Trazado 194854" d="M10.478,79.254a1.1,1.1,0,1,0-1.1,1.1,1.1,1.1,0,0,0,1.1-1.1" transform="translate(1.929 -47.545)" fill="#7f4fc7"/>
            <path id="Trazado_194855" data-name="Trazado 194855" d="M18.751,79.254a1.1,1.1,0,1,0-1.1,1.1,1.1,1.1,0,0,0,1.1-1.1" transform="translate(3.859 -47.545)" fill="#7f4fc7"/>
            <path id="Trazado_194856" data-name="Trazado 194856" d="M27.024,79.254a1.1,1.1,0,1,0-1.1,1.1,1.1,1.1,0,0,0,1.1-1.1" transform="translate(5.788 -47.545)" fill="#7f4fc7"/>
            <path id="Trazado_194857" data-name="Trazado 194857" d="M35.3,79.254a1.1,1.1,0,1,0-1.1,1.1,1.1,1.1,0,0,0,1.1-1.1" transform="translate(7.717 -47.545)" fill="#7f4fc7"/>
            <path id="Trazado_194858" data-name="Trazado 194858" d="M43.569,79.254a1.1,1.1,0,1,0-1.1,1.1,1.1,1.1,0,0,0,1.1-1.1" transform="translate(9.647 -47.545)" fill="#7f4fc7"/>
            <path id="Trazado_194859" data-name="Trazado 194859" d="M51.841,79.254a1.1,1.1,0,1,0-1.1,1.1,1.1,1.1,0,0,0,1.1-1.1" transform="translate(11.576 -47.545)" fill="#7f4fc7"/>
            <path id="Trazado_194860" data-name="Trazado 194860" d="M60.114,79.254a1.1,1.1,0,1,0-1.1,1.1,1.1,1.1,0,0,0,1.1-1.1" transform="translate(13.505 -47.545)" fill="#7f4fc7"/>
            <path id="Trazado_194861" data-name="Trazado 194861" d="M68.387,79.254a1.1,1.1,0,1,0-1.1,1.1,1.1,1.1,0,0,0,1.1-1.1" transform="translate(15.435 -47.545)" fill="#7f4fc7"/>
            <path id="Trazado_194862" data-name="Trazado 194862" d="M2.206,87.527a1.1,1.1,0,1,0-1.1,1.1,1.1,1.1,0,0,0,1.1-1.1" transform="translate(0 -45.615)" fill="#7f4fc7"/>
            <path id="Trazado_194863" data-name="Trazado 194863" d="M10.478,87.527a1.1,1.1,0,1,0-1.1,1.1,1.1,1.1,0,0,0,1.1-1.1" transform="translate(1.929 -45.615)" fill="#7f4fc7"/>
            <path id="Trazado_194864" data-name="Trazado 194864" d="M18.751,87.527a1.1,1.1,0,1,0-1.1,1.1,1.1,1.1,0,0,0,1.1-1.1" transform="translate(3.859 -45.615)" fill="#7f4fc7"/>
            <path id="Trazado_194865" data-name="Trazado 194865" d="M27.024,87.527a1.1,1.1,0,1,0-1.1,1.1,1.1,1.1,0,0,0,1.1-1.1" transform="translate(5.788 -45.615)" fill="#7f4fc7"/>
            <path id="Trazado_194866" data-name="Trazado 194866" d="M35.3,87.527a1.1,1.1,0,1,0-1.1,1.1,1.1,1.1,0,0,0,1.1-1.1" transform="translate(7.717 -45.615)" fill="#7f4fc7"/>
            <path id="Trazado_194867" data-name="Trazado 194867" d="M43.569,87.527a1.1,1.1,0,1,0-1.1,1.1,1.1,1.1,0,0,0,1.1-1.1" transform="translate(9.647 -45.615)" fill="#7f4fc7"/>
            <path id="Trazado_194868" data-name="Trazado 194868" d="M51.841,87.527a1.1,1.1,0,1,0-1.1,1.1,1.1,1.1,0,0,0,1.1-1.1" transform="translate(11.576 -45.615)" fill="#7f4fc7"/>
            <path id="Trazado_194869" data-name="Trazado 194869" d="M60.114,87.527a1.1,1.1,0,1,0-1.1,1.1,1.1,1.1,0,0,0,1.1-1.1" transform="translate(13.505 -45.615)" fill="#7f4fc7"/>
            <path id="Trazado_194870" data-name="Trazado 194870" d="M68.387,87.527a1.1,1.1,0,1,0-1.1,1.1,1.1,1.1,0,0,0,1.1-1.1" transform="translate(15.435 -45.615)" fill="#7f4fc7"/>
            <path id="Trazado_194871" data-name="Trazado 194871" d="M2.206,95.8a1.1,1.1,0,1,0-1.1,1.1,1.1,1.1,0,0,0,1.1-1.1" transform="translate(0 -43.686)" fill="#7f4fc7"/>
            <path id="Trazado_194872" data-name="Trazado 194872" d="M10.478,95.8a1.1,1.1,0,1,0-1.1,1.1,1.1,1.1,0,0,0,1.1-1.1" transform="translate(1.929 -43.686)" fill="#7f4fc7"/>
            <path id="Trazado_194873" data-name="Trazado 194873" d="M18.751,95.8a1.1,1.1,0,1,0-1.1,1.1,1.1,1.1,0,0,0,1.1-1.1" transform="translate(3.859 -43.686)" fill="#7f4fc7"/>
            <path id="Trazado_194874" data-name="Trazado 194874" d="M27.024,95.8a1.1,1.1,0,1,0-1.1,1.1,1.1,1.1,0,0,0,1.1-1.1" transform="translate(5.788 -43.686)" fill="#7f4fc7"/>
            <path id="Trazado_194875" data-name="Trazado 194875" d="M35.3,95.8a1.1,1.1,0,1,0-1.1,1.1,1.1,1.1,0,0,0,1.1-1.1" transform="translate(7.717 -43.686)" fill="#7f4fc7"/>
            <path id="Trazado_194876" data-name="Trazado 194876" d="M43.569,95.8a1.1,1.1,0,1,0-1.1,1.1,1.1,1.1,0,0,0,1.1-1.1" transform="translate(9.647 -43.686)" fill="#7f4fc7"/>
            <path id="Trazado_194877" data-name="Trazado 194877" d="M51.841,95.8a1.1,1.1,0,1,0-1.1,1.1,1.1,1.1,0,0,0,1.1-1.1" transform="translate(11.576 -43.686)" fill="#7f4fc7"/>
            <path id="Trazado_194878" data-name="Trazado 194878" d="M60.114,95.8a1.1,1.1,0,1,0-1.1,1.1,1.1,1.1,0,0,0,1.1-1.1" transform="translate(13.505 -43.686)" fill="#7f4fc7"/>
            <path id="Trazado_194879" data-name="Trazado 194879" d="M68.387,95.8a1.1,1.1,0,1,0-1.1,1.1,1.1,1.1,0,0,0,1.1-1.1" transform="translate(15.435 -43.686)" fill="#7f4fc7"/>
            <path id="Trazado_194880" data-name="Trazado 194880" d="M2.206,104.072a1.1,1.1,0,1,0-1.1,1.1,1.1,1.1,0,0,0,1.1-1.1" transform="translate(0 -41.757)" fill="#7f4fc7"/>
            <path id="Trazado_194881" data-name="Trazado 194881" d="M10.478,104.072a1.1,1.1,0,1,0-1.1,1.1,1.1,1.1,0,0,0,1.1-1.1" transform="translate(1.929 -41.757)" fill="#7f4fc7"/>
            <path id="Trazado_194882" data-name="Trazado 194882" d="M18.751,104.072a1.1,1.1,0,1,0-1.1,1.1,1.1,1.1,0,0,0,1.1-1.1" transform="translate(3.859 -41.757)" fill="#7f4fc7"/>
            <path id="Trazado_194883" data-name="Trazado 194883" d="M27.024,104.072a1.1,1.1,0,1,0-1.1,1.1,1.1,1.1,0,0,0,1.1-1.1" transform="translate(5.788 -41.757)" fill="#7f4fc7"/>
            <path id="Trazado_194884" data-name="Trazado 194884" d="M35.3,104.072a1.1,1.1,0,1,0-1.1,1.1,1.1,1.1,0,0,0,1.1-1.1" transform="translate(7.717 -41.757)" fill="#7f4fc7"/>
            <path id="Trazado_194885" data-name="Trazado 194885" d="M43.569,104.072a1.1,1.1,0,1,0-1.1,1.1,1.1,1.1,0,0,0,1.1-1.1" transform="translate(9.647 -41.757)" fill="#7f4fc7"/>
            <path id="Trazado_194886" data-name="Trazado 194886" d="M51.841,104.072a1.1,1.1,0,1,0-1.1,1.1,1.1,1.1,0,0,0,1.1-1.1" transform="translate(11.576 -41.757)" fill="#7f4fc7"/>
            <path id="Trazado_194887" data-name="Trazado 194887" d="M60.114,104.072a1.1,1.1,0,1,0-1.1,1.1,1.1,1.1,0,0,0,1.1-1.1" transform="translate(13.505 -41.757)" fill="#7f4fc7"/>
            <path id="Trazado_194888" data-name="Trazado 194888" d="M68.387,104.072a1.1,1.1,0,1,0-1.1,1.1,1.1,1.1,0,0,0,1.1-1.1" transform="translate(15.435 -41.757)" fill="#7f4fc7"/>
            <path id="Trazado_194889" data-name="Trazado 194889" d="M2.206,112.345a1.1,1.1,0,1,0-1.1,1.1,1.1,1.1,0,0,0,1.1-1.1" transform="translate(0 -39.827)" fill="#7f4fc7"/>
            <path id="Trazado_194890" data-name="Trazado 194890" d="M10.478,112.345a1.1,1.1,0,1,0-1.1,1.1,1.1,1.1,0,0,0,1.1-1.1" transform="translate(1.929 -39.827)" fill="#7f4fc7"/>
            <path id="Trazado_194891" data-name="Trazado 194891" d="M18.751,112.345a1.1,1.1,0,1,0-1.1,1.1,1.1,1.1,0,0,0,1.1-1.1" transform="translate(3.859 -39.827)" fill="#7f4fc7"/>
            <path id="Trazado_194892" data-name="Trazado 194892" d="M27.024,112.345a1.1,1.1,0,1,0-1.1,1.1,1.1,1.1,0,0,0,1.1-1.1" transform="translate(5.788 -39.827)" fill="#7f4fc7"/>
            <path id="Trazado_194893" data-name="Trazado 194893" d="M35.3,112.345a1.1,1.1,0,1,0-1.1,1.1,1.1,1.1,0,0,0,1.1-1.1" transform="translate(7.717 -39.827)" fill="#7f4fc7"/>
            <path id="Trazado_194894" data-name="Trazado 194894" d="M43.569,112.345a1.1,1.1,0,1,0-1.1,1.1,1.1,1.1,0,0,0,1.1-1.1" transform="translate(9.647 -39.827)" fill="#7f4fc7"/>
            <path id="Trazado_194895" data-name="Trazado 194895" d="M51.841,112.345a1.1,1.1,0,1,0-1.1,1.1,1.1,1.1,0,0,0,1.1-1.1" transform="translate(11.576 -39.827)" fill="#7f4fc7"/>
            <path id="Trazado_194896" data-name="Trazado 194896" d="M60.114,112.345a1.1,1.1,0,1,0-1.1,1.1,1.1,1.1,0,0,0,1.1-1.1" transform="translate(13.505 -39.827)" fill="#7f4fc7"/>
            <path id="Trazado_194897" data-name="Trazado 194897" d="M68.387,112.345a1.1,1.1,0,1,0-1.1,1.1,1.1,1.1,0,0,0,1.1-1.1" transform="translate(15.435 -39.827)" fill="#7f4fc7"/>
            <path id="Trazado_194898" data-name="Trazado 194898" d="M2.206,120.617a1.1,1.1,0,1,0-1.1,1.1,1.1,1.1,0,0,0,1.1-1.1" transform="translate(0 -37.898)" fill="#7f4fc7"/>
            <path id="Trazado_194899" data-name="Trazado 194899" d="M10.478,120.617a1.1,1.1,0,1,0-1.1,1.1,1.1,1.1,0,0,0,1.1-1.1" transform="translate(1.929 -37.898)" fill="#7f4fc7"/>
            <path id="Trazado_194900" data-name="Trazado 194900" d="M18.751,120.617a1.1,1.1,0,1,0-1.1,1.1,1.1,1.1,0,0,0,1.1-1.1" transform="translate(3.859 -37.898)" fill="#7f4fc7"/>
            <path id="Trazado_194901" data-name="Trazado 194901" d="M27.024,120.617a1.1,1.1,0,1,0-1.1,1.1,1.1,1.1,0,0,0,1.1-1.1" transform="translate(5.788 -37.898)" fill="#7f4fc7"/>
            <path id="Trazado_194902" data-name="Trazado 194902" d="M35.3,120.617a1.1,1.1,0,1,0-1.1,1.1,1.1,1.1,0,0,0,1.1-1.1" transform="translate(7.717 -37.898)" fill="#7f4fc7"/>
            <path id="Trazado_194903" data-name="Trazado 194903" d="M43.569,120.617a1.1,1.1,0,1,0-1.1,1.1,1.1,1.1,0,0,0,1.1-1.1" transform="translate(9.647 -37.898)" fill="#7f4fc7"/>
            <path id="Trazado_194904" data-name="Trazado 194904" d="M51.841,120.617a1.1,1.1,0,1,0-1.1,1.1,1.1,1.1,0,0,0,1.1-1.1" transform="translate(11.576 -37.898)" fill="#7f4fc7"/>
            <path id="Trazado_194905" data-name="Trazado 194905" d="M60.114,120.617a1.1,1.1,0,1,0-1.1,1.1,1.1,1.1,0,0,0,1.1-1.1" transform="translate(13.505 -37.898)" fill="#7f4fc7"/>
            <path id="Trazado_194906" data-name="Trazado 194906" d="M68.387,120.617a1.1,1.1,0,1,0-1.1,1.1,1.1,1.1,0,0,0,1.1-1.1" transform="translate(15.435 -37.898)" fill="#7f4fc7"/>
          </g>
        </g>
        <g id="Grupo_154314" data-name="Grupo 154314" transform="translate(264.293 126.359)">
          <g id="Grupo_152551" data-name="Grupo 152551" transform="translate(0 85.364) rotate(-90)">
            <rect id="Rectángulo_45220" data-name="Rectángulo 45220" width="76.389" height="21.235" transform="translate(76.922 21.235) rotate(180)" fill="#e8e8e8"/>
            <g id="Grupo_152556" data-name="Grupo 152556" transform="translate(0 11.763)">
              <rect id="Rectángulo_45221" data-name="Rectángulo 45221" width="3.608" height="3.608" transform="translate(81.756 15.336)" fill="#1894f6"/>
              <rect id="Rectángulo_45222" data-name="Rectángulo 45222" width="3.608" height="3.608" transform="translate(74.088 15.336)" fill="#1894f6"/>
              <rect id="Rectángulo_45223" data-name="Rectángulo 45223" width="3.608" height="3.608" transform="translate(65.405 15.336)" fill="#1894f6"/>
              <rect id="Rectángulo_45224" data-name="Rectángulo 45224" width="3.608" height="3.608" transform="translate(57.229 15.336)" fill="#1894f6"/>
              <rect id="Rectángulo_45225" data-name="Rectángulo 45225" width="3.608" height="3.608" transform="translate(49.053 15.336)" fill="#1894f6"/>
              <rect id="Rectángulo_45226" data-name="Rectángulo 45226" width="3.608" height="3.608" transform="translate(40.878 15.336)" fill="#1894f6"/>
              <rect id="Rectángulo_45227" data-name="Rectángulo 45227" width="3.608" height="3.608" transform="translate(32.702 15.336)" fill="#1894f6"/>
              <rect id="Rectángulo_45228" data-name="Rectángulo 45228" width="3.608" height="3.608" transform="translate(24.527 15.336)" fill="#1894f6"/>
              <rect id="Rectángulo_45229" data-name="Rectángulo 45229" width="3.608" height="3.608" transform="translate(16.351 15.336)" fill="#1894f6"/>
              <rect id="Rectángulo_45230" data-name="Rectángulo 45230" width="3.608" height="3.608" transform="translate(7.668 15.336)" fill="#1894f6"/>
              <rect id="Rectángulo_45231" data-name="Rectángulo 45231" width="3.608" height="3.608" transform="translate(0 15.336)" fill="#1894f6"/>
              <rect id="Rectángulo_45232" data-name="Rectángulo 45232" width="3.608" height="3.608" transform="translate(81.756 7.668)" fill="#1894f6"/>
              <rect id="Rectángulo_45233" data-name="Rectángulo 45233" width="3.608" height="3.608" transform="translate(74.088 7.668)" fill="#1894f6"/>
              <rect id="Rectángulo_45234" data-name="Rectángulo 45234" width="3.608" height="3.608" transform="translate(65.405 7.668)" fill="#1894f6"/>
              <rect id="Rectángulo_45235" data-name="Rectángulo 45235" width="3.608" height="3.608" transform="translate(57.229 7.668)" fill="#1894f6"/>
              <rect id="Rectángulo_45236" data-name="Rectángulo 45236" width="3.608" height="3.608" transform="translate(49.053 7.668)" fill="#1894f6"/>
              <rect id="Rectángulo_45237" data-name="Rectángulo 45237" width="3.608" height="3.608" transform="translate(40.878 7.668)" fill="#1894f6"/>
              <rect id="Rectángulo_45238" data-name="Rectángulo 45238" width="3.608" height="3.608" transform="translate(32.702 7.668)" fill="#1894f6"/>
              <rect id="Rectángulo_45239" data-name="Rectángulo 45239" width="3.608" height="3.608" transform="translate(24.527 7.668)" fill="#1894f6"/>
              <rect id="Rectángulo_45240" data-name="Rectángulo 45240" width="3.608" height="3.608" transform="translate(16.351 7.668)" fill="#1894f6"/>
              <rect id="Rectángulo_45241" data-name="Rectángulo 45241" width="3.608" height="3.608" transform="translate(7.668 7.668)" fill="#1894f6"/>
              <rect id="Rectángulo_45242" data-name="Rectángulo 45242" width="3.608" height="3.608" transform="translate(0 7.668)" fill="#1894f6"/>
              <rect id="Rectángulo_45243" data-name="Rectángulo 45243" width="3.608" height="3.608" transform="translate(81.756)" fill="#1894f6"/>
              <rect id="Rectángulo_45244" data-name="Rectángulo 45244" width="3.608" height="3.608" transform="translate(74.088)" fill="#1894f6"/>
              <rect id="Rectángulo_45245" data-name="Rectángulo 45245" width="3.608" height="3.608" transform="translate(65.405)" fill="#1894f6"/>
              <rect id="Rectángulo_45246" data-name="Rectángulo 45246" width="3.608" height="3.608" transform="translate(57.229)" fill="#1894f6"/>
              <rect id="Rectángulo_45247" data-name="Rectángulo 45247" width="3.608" height="3.608" transform="translate(49.053)" fill="#1894f6"/>
              <rect id="Rectángulo_45248" data-name="Rectángulo 45248" width="3.608" height="3.608" transform="translate(40.878)" fill="#1894f6"/>
              <rect id="Rectángulo_45249" data-name="Rectángulo 45249" width="3.608" height="3.608" transform="translate(32.702)" fill="#1894f6"/>
              <rect id="Rectángulo_45250" data-name="Rectángulo 45250" width="3.608" height="3.608" transform="translate(24.527)" fill="#1894f6"/>
              <rect id="Rectángulo_45251" data-name="Rectángulo 45251" width="3.608" height="3.608" transform="translate(16.351)" fill="#1894f6"/>
              <rect id="Rectángulo_45252" data-name="Rectángulo 45252" width="3.608" height="3.608" transform="translate(7.668)" fill="#1894f6"/>
              <rect id="Rectángulo_45253" data-name="Rectángulo 45253" width="3.608" height="3.608" fill="#1894f6"/>
            </g>
          </g>
        </g>
        <g id="Grupo_154317" data-name="Grupo 154317" transform="translate(0 204.719)">
          <g id="Grupo_154315" data-name="Grupo 154315" transform="translate(31.423 9.139)">
            <path id="Trazado_195058" data-name="Trazado 195058" d="M13.953,225.657H52.725a1.453,1.453,0,1,0,0-2.906H13.953a1.453,1.453,0,0,0,0,2.906" transform="translate(-12.5 -222.751)" fill="#3cafff"/>
            <path id="Trazado_195059" data-name="Trazado 195059" d="M83.914,225.657H93.7a1.453,1.453,0,1,0,0-2.906H83.914a1.453,1.453,0,1,0,0,2.906" transform="translate(-37.217 -222.751)" fill="#3cafff"/>
            <path id="Trazado_195064" data-name="Trazado 195064" d="M111.53,232.612H84.3a1.021,1.021,0,0,0,0,2.042H111.53a1.021,1.021,0,0,0,0-2.042" transform="translate(-37.504 -226.235)" fill="#3cafff"/>
            <path id="Trazado_195065" data-name="Trazado 195065" d="M73.51,232.612H66.635a1.021,1.021,0,0,0,0,2.042H73.51a1.021,1.021,0,1,0,0-2.042" transform="translate(-31.265 -226.235)" fill="#3cafff"/>
          </g>
          <g id="Grupo_154316" data-name="Grupo 154316">
            <path id="Trazado_195062" data-name="Trazado 195062" d="M159.454,1.333h-45.77c-.948,0-1.715.457-1.715,1.021s.767,1.021,1.715,1.021h45.77c.948,0,1.716-.457,1.716-1.021s-.768-1.021-1.716-1.021" transform="translate(-82.129 -1.333)" fill="#7f4fc7"/>
            <path id="Trazado_195063" data-name="Trazado 195063" d="M114.938,1.333H96.975c-1.473,0-2.666.457-2.666,1.021S95.5,3.375,96.975,3.375h17.963c1.473,0,2.666-.457,2.666-1.021s-1.193-1.021-2.666-1.021" transform="translate(-94.309 -1.333)" fill="#7f4fc7"/>
          </g>
        </g>
        <g id="Grupo_154318" data-name="Grupo 154318" transform="translate(156.594)">
          <g id="Grupo_154315-2" data-name="Grupo 154315" transform="translate(22.365 6.505)">
            <path id="Trazado_195058-2" data-name="Trazado 195058" d="M13.534,224.82h27.6a1.034,1.034,0,1,0,0-2.069h-27.6a1.034,1.034,0,0,0,0,2.069" transform="translate(-12.5 -222.751)" fill="#b7aadb"/>
            <path id="Trazado_195059-2" data-name="Trazado 195059" d="M83.5,224.82h6.966a1.034,1.034,0,0,0,0-2.069H83.5a1.034,1.034,0,1,0,0,2.069" transform="translate(-50.259 -222.751)" fill="#b7aadb"/>
            <path id="Trazado_195064-2" data-name="Trazado 195064" d="M103.385,232.612H84a.727.727,0,0,0,0,1.453h19.384a.727.727,0,0,0,0-1.453" transform="translate(-50.698 -228.073)" fill="#b7aadb"/>
            <path id="Trazado_195065-2" data-name="Trazado 195065" d="M71.234,232.612H66.34a.727.727,0,0,0,0,1.453h4.893a.727.727,0,1,0,0-1.453" transform="translate(-41.166 -228.073)" fill="#b7aadb"/>
          </g>
          <g id="Grupo_154316-2" data-name="Grupo 154316">
            <path id="Trazado_195062-2" data-name="Trazado 195062" d="M145.766,1.333H113.19c-.675,0-1.221.325-1.221.726s.546.727,1.221.727h32.576c.675,0,1.221-.325,1.221-.727s-.547-.726-1.221-.726" transform="translate(-90.731 -1.333)" fill="#b7aadb"/>
            <path id="Trazado_195063-2" data-name="Trazado 195063" d="M108.991,1.333H96.207c-1.049,0-1.9.325-1.9.726s.849.727,1.9.727h12.785c1.049,0,1.9-.325,1.9-.727s-.849-.726-1.9-.726" transform="translate(-94.309 -1.333)" fill="#b7aadb"/>
          </g>
        </g>
      </g>
    </g>
    <g id="Grupo_154664" data-name="Grupo 154664" transform="translate(924.881 1396.328)">
      <path id="Trazado_196392" data-name="Trazado 196392" d="M533.985,78.152a5.166,5.166,0,1,0,5.167-5.167,5.167,5.167,0,0,0-5.167,5.167" transform="translate(-251.461 -49.914)" fill="#2194e5"/>
      <g id="Grupo_154659" data-name="Grupo 154659" transform="translate(123.685 167.849)">
        <g id="Grupo_154658" data-name="Grupo 154658" transform="translate(0 0)" clip-path="url(#clip-path-2)">
          <path id="Trazado_196393" data-name="Trazado 196393" d="M274.024,315.188a22.635,22.635,0,1,0,22.635-22.635A22.636,22.636,0,0,0,274.024,315.188Z" transform="translate(-261.782 -277.652)" fill="none" stroke="#7463e5" stroke-miterlimit="10" stroke-width="12.325"/>
        </g>
      </g>
      <g id="Grupo_154667" data-name="Grupo 154667" transform="translate(176.753 44.153)">
        <path id="Trazado_196394" data-name="Trazado 196394" d="M329.531,190.194a50.176,50.176,0,1,0,1.24-70.949,50.177,50.177,0,0,0-1.24,70.949" transform="translate(-315.449 -105.163)" fill="#2194e5"/>
        <g id="Grupo_154663" data-name="Grupo 154663" transform="translate(0 0)">
          <g id="Grupo_154662" data-name="Grupo 154662" transform="translate(0 0)" clip-path="url(#clip-path-3)">
            <line id="Línea_1835" data-name="Línea 1835" y1="52.763" x2="122.369" transform="translate(-2.467 35.39)" fill="none" stroke="#fff" stroke-linecap="round" stroke-linejoin="round" stroke-width="1.052"/>
            <line id="Línea_1836" data-name="Línea 1836" y1="52.763" x2="122.369" transform="translate(-1.097 38.567)" fill="none" stroke="#fff" stroke-linecap="round" stroke-linejoin="round" stroke-width="1.052"/>
            <line id="Línea_1837" data-name="Línea 1837" y1="52.763" x2="122.369" transform="translate(0.272 41.744)" fill="none" stroke="#fff" stroke-linecap="round" stroke-linejoin="round" stroke-width="1.052"/>
            <line id="Línea_1838" data-name="Línea 1838" y1="52.763" x2="122.369" transform="translate(1.642 44.921)" fill="none" stroke="#fff" stroke-linecap="round" stroke-linejoin="round" stroke-width="1.052"/>
            <line id="Línea_1839" data-name="Línea 1839" y1="52.763" x2="122.369" transform="translate(3.012 48.098)" fill="none" stroke="#fff" stroke-linecap="round" stroke-linejoin="round" stroke-width="1.052"/>
            <line id="Línea_1840" data-name="Línea 1840" y1="52.763" x2="122.369" transform="translate(4.382 51.275)" fill="none" stroke="#fff" stroke-linecap="round" stroke-linejoin="round" stroke-width="1.052"/>
            <line id="Línea_1841" data-name="Línea 1841" y1="52.763" x2="122.369" transform="translate(5.752 54.453)" fill="none" stroke="#fff" stroke-linecap="round" stroke-linejoin="round" stroke-width="1.052"/>
            <line id="Línea_1842" data-name="Línea 1842" y1="52.763" x2="122.369" transform="translate(7.122 57.63)" fill="none" stroke="#fff" stroke-linecap="round" stroke-linejoin="round" stroke-width="1.052"/>
            <line id="Línea_1843" data-name="Línea 1843" y1="52.763" x2="122.369" transform="translate(8.492 60.807)" fill="none" stroke="#fff" stroke-linecap="round" stroke-linejoin="round" stroke-width="1.052"/>
            <line id="Línea_1844" data-name="Línea 1844" y1="52.763" x2="122.369" transform="translate(9.862 63.984)" fill="none" stroke="#fff" stroke-linecap="round" stroke-linejoin="round" stroke-width="1.052"/>
            <line id="Línea_1845" data-name="Línea 1845" y1="52.763" x2="122.369" transform="translate(11.232 67.161)" fill="none" stroke="#fff" stroke-linecap="round" stroke-linejoin="round" stroke-width="1.052"/>
            <line id="Línea_1846" data-name="Línea 1846" y1="52.763" x2="122.369" transform="translate(12.602 70.338)" fill="none" stroke="#fff" stroke-linecap="round" stroke-linejoin="round" stroke-width="1.052"/>
            <line id="Línea_1847" data-name="Línea 1847" y1="52.763" x2="122.369" transform="translate(13.972 73.515)" fill="none" stroke="#fff" stroke-linecap="round" stroke-linejoin="round" stroke-width="1.052"/>
            <line id="Línea_1848" data-name="Línea 1848" y1="52.763" x2="122.369" transform="translate(15.342 76.693)" fill="none" stroke="#fff" stroke-linecap="round" stroke-linejoin="round" stroke-width="1.052"/>
          </g>
        </g>
      </g>
      <path id="Trazado_196396" data-name="Trazado 196396" d="M287.134,280.2h-6.2l-44.477-54.126,12.439-51.085Z" transform="translate(-124.415 -65.677)" fill="#12263f"/>
      <g id="Grupo_154666" data-name="Grupo 154666" transform="translate(0 69.77)">
        <path id="Trazado_196397" data-name="Trazado 196397" d="M173.181,201.172H31.077l7.548-90.658H176.737Z" transform="translate(-31.077 -110.514)" fill="#7463e5"/>
        <line id="Línea_1849" data-name="Línea 1849" x2="72.786" transform="translate(8.648 29.179)" fill="none" stroke="#fff" stroke-linecap="round" stroke-linejoin="round" stroke-width="1.052"/>
        <line id="Línea_1850" data-name="Línea 1850" x2="72.786" transform="translate(8.648 36.508)" fill="none" stroke="#fff" stroke-linecap="round" stroke-linejoin="round" stroke-width="1.052"/>
        <line id="Línea_1851" data-name="Línea 1851" x2="25.882" transform="translate(8.648 43.836)" fill="none" stroke="#fff" stroke-linecap="round" stroke-linejoin="round" stroke-width="1.052"/>
        <line id="Línea_1852" data-name="Línea 1852" x2="72.786" transform="translate(8.648 51.165)" fill="none" stroke="#fff" stroke-linecap="round" stroke-linejoin="round" stroke-width="1.052"/>
        <circle id="Elipse_5788" data-name="Elipse 5788" cx="2.119" cy="2.119" r="2.119" transform="matrix(0.987, -0.16, 0.16, 0.987, 11.338, 6.132)" fill="none" stroke="#fff" stroke-linecap="round" stroke-linejoin="round" stroke-width="1.052"/>
        <circle id="Elipse_5789" data-name="Elipse 5789" cx="2.119" cy="2.119" r="2.119" transform="matrix(0.989, -0.149, 0.149, 0.989, 18.539, 6.104)" fill="none" stroke="#fff" stroke-linecap="round" stroke-linejoin="round" stroke-width="1.052"/>
        <circle id="Elipse_5790" data-name="Elipse 5790" cx="2.119" cy="2.119" r="2.119" transform="matrix(0.987, -0.16, 0.16, 0.987, 25.699, 6.132)" fill="none" stroke="#fff" stroke-linecap="round" stroke-linejoin="round" stroke-width="1.052"/>
      </g>
      <path id="Trazado_196399" data-name="Trazado 196399" d="M238.42,60.948h68.22l8.5-41.464-74.288-2.721Z" transform="translate(-124.87 -6.292)" fill="#7463e5"/>
      <line id="Línea_1853" data-name="Línea 1853" x1="56.734" transform="translate(112.686 38.622)" fill="none" stroke="#fff" stroke-linecap="round" stroke-linejoin="round" stroke-width="6.69"/>
      <path id="Trazado_196400" data-name="Trazado 196400" d="M296.077,59.372a4.086,4.086,0,1,1-4.087-4.087,4.087,4.087,0,0,1,4.087,4.087" transform="translate(-143.525 -20.75)" fill="#2194e5"/>
      <line id="Línea_1854" data-name="Línea 1854" x1="56.302" transform="translate(113.123 27.833)" fill="none" stroke="#fff" stroke-linecap="round" stroke-linejoin="round" stroke-width="6.69"/>
      <path id="Trazado_196401" data-name="Trazado 196401" d="M319.393,42.1a4.086,4.086,0,1,1-4.087-4.087,4.087,4.087,0,0,1,4.087,4.087" transform="translate(-152.041 -14.269)" fill="#1e0b4a"/>
      <path id="Trazado_196402" data-name="Trazado 196402" d="M225.581,123.106a9.084,9.084,0,0,0,0-18.169" transform="translate(-120.755 -39.385)" fill="none" stroke="#2194e5" stroke-miterlimit="10" stroke-width="7.65"/>
      <path id="Trazado_196403" data-name="Trazado 196403" d="M220.123,104.937a9.084,9.084,0,0,0,0,18.169" transform="translate(-115.445 -39.385)" fill="none" stroke="#fff" stroke-miterlimit="10" stroke-width="7.65"/>
      <g id="Grupo_154665" data-name="Grupo 154665" transform="translate(4.136 170.488)">
        <path id="Trazado_196404" data-name="Trazado 196404" d="M58.47,274.359a15.366,15.366,0,1,0,7.449,20.415,15.367,15.367,0,0,0-7.449-20.415" transform="translate(-36.616 -272.921)" fill="#2194e5"/>
        <path id="Trazado_196405" data-name="Trazado 196405" d="M45.5,310.644a15.372,15.372,0,0,0,17.379-3.092L36.677,295.358A15.373,15.373,0,0,0,45.5,310.644" transform="translate(-36.617 -281.342)" fill="#12263f"/>
      </g>
      <path id="Trazado_196406" data-name="Trazado 196406" d="M398.149,77.979c-4.438,8.6-7.246,15.175-10.448,19.311l-9.012-6.232,6.893-14.418Z" transform="translate(-176.549 -28.765)" fill="#ed9f78"/>
      <path id="Trazado_196407" data-name="Trazado 196407" d="M410.271,45.614c-5.892-.514-9.08-.762-12.992,4.981-2.071,3.04-5.032,9.451-7.553,14.307,4.092,1.782,11.691,5.175,11.691,5.175s6.412-16.282,8.854-24.463" transform="translate(-180.562 -17.028)" fill="#7463e5"/>
      <path id="Trazado_196408" data-name="Trazado 196408" d="M369.922,96.237c6.046.739,8.274,8.592,3.076,9.456-4.566.758-27.367-2.25-27.367-2.25l-.475-5.76s20.793-1.931,24.766-1.446" transform="translate(-164.184 -36.091)" fill="#fcc5a0"/>
      <path id="Trazado_196409" data-name="Trazado 196409" d="M331.746,97.227a8.643,8.643,0,0,0-2.649-.935c-1.322-.181-6.626-.375-8.819-1.118a1.163,1.163,0,0,0,.56,1.465,19.784,19.784,0,0,0,4.39,1.477s-2.828,1.061-3.25,1.144a10.006,10.006,0,0,1-1.878.19,22.669,22.669,0,0,0-.517-2.526,1.153,1.153,0,0,0-1.432-.706s.076,1.264.192,2.636l-.565-.208-.005-.014s.034-1.76.041-2.281c.015-1.237-1.328-1.432-1.328-1.432a33.578,33.578,0,0,0-.476,3.559c-.094-.082-.239-1.87-.358-2.27a1.392,1.392,0,0,0-1.366-.984,18.3,18.3,0,0,0,.082,3.867c.284.778,1.332,3.119,1.927,3.354.83.479,5.892,2.592,7.469,2.522.662-.029,5.962-1.622,8.164-2.071a12.073,12.073,0,0,1,2.09.081l-.475-5.76Z" transform="translate(-153.025 -35.625)" fill="#fcc5a0"/>
      <path id="Trazado_196410" data-name="Trazado 196410" d="M312.776,97.245l.918,1.6c-.03-.624-.014-1.383.007-1.967a1.5,1.5,0,0,0-.925.364" transform="translate(-152.673 -36.36)" fill="#ed9f78"/>
      <path id="Trazado_196411" data-name="Trazado 196411" d="M324.666,104.645l2.448,1.369a6.844,6.844,0,0,1,4.734-2.953" transform="translate(-156.961 -38.681)" fill="none" stroke="#d66050" stroke-linecap="round" stroke-linejoin="round" stroke-width="0.842"/>
      <path id="Trazado_196412" data-name="Trazado 196412" d="M456.834,283.635,451.782,293.8l3.2,26.046a.885.885,0,0,0,1.721.124l11.355-33.032Z" transform="translate(-202.804 -106.455)" fill="#2194e5"/>
      <path id="Trazado_196413" data-name="Trazado 196413" d="M407.773,335.425l.022-.634a2.172,2.172,0,0,1,.38-1.148l6.607-10.249,10.318-1.262,1.5,11.8a2.007,2.007,0,0,1,.015.336l-.04,1.154Z" transform="translate(-187.168 -120.904)" fill="#2194e5"/>
      <path id="Trazado_196414" data-name="Trazado 196414" d="M416.22,138.064c-2.364,23.362-4.277,77.76-4.41,118.1l15.374-1.5c2.529-19.612,12.128-91.968,11.235-113.795Z" transform="translate(-187.802 -51.818)" fill="#12263f"/>
      <path id="Trazado_196415" data-name="Trazado 196415" d="M383.873,139.7l23.048-1.635c-5.3,15.731-13.115,42.432-18.753,58.806,12.176,10.474,25.262,20.835,38.727,32.612l-10,13.033c-13.224-9.276-33.07-22.918-44.088-32.736-6.926-6.172-6.747-11.164-5.285-16.924,5.57-21.946,7.892-30.045,16.355-53.155" transform="translate(-170.871 -51.818)" fill="#12263f"/>
      <path id="Trazado_196416" data-name="Trazado 196416" d="M434.14,328.638a17.993,17.993,0,0,0-1.57,8.7" transform="translate(-195.566 -123.345)" fill="none" stroke="#1e0b4a" stroke-linecap="round" stroke-linejoin="round" stroke-width="0.842"/>
      <line id="Línea_1855" data-name="Línea 1855" x1="17.269" y1="14.368" transform="translate(224.847 152.143)" fill="none" stroke="#1e0b4a" stroke-linecap="round" stroke-linejoin="round" stroke-width="0.829"/>
      <path id="Trazado_196417" data-name="Trazado 196417" d="M394.192,104.908s3.726-22.187,4.888-34.31c1.357-14.155,3.008-18.4,4-21.49.4-1.236,3.73-3.755,4.9-3.74A92.415,92.415,0,0,1,434.1,49c16.187,7.412-.587,27.937-1.234,38.649-.409,6.762-1.058,18.435-1.058,18.435Z" transform="translate(-181.189 -17.028)" fill="#7463e5"/>
      <path id="Trazado_196418" data-name="Trazado 196418" d="M429.167,2.829s-2.8,10.694-3.3,18.066c-.157,2.347,1.306,3,3.66,3.3a6.538,6.538,0,0,0,7.04-3.95c4.42-9.093,4.1-16.147,1.544-17.6s-8.949.178-8.949.178" transform="translate(-193.832 -0.77)" fill="#fcc5a0"/>
      <path id="Trazado_196419" data-name="Trazado 196419" d="M441.876,17.272l-1.905,21.7-5.74-.569,2.1-21.665Z" transform="translate(-196.217 -6.283)" fill="#fcc5a0"/>
      <path id="Trazado_196420" data-name="Trazado 196420" d="M438.682,36.2a13.881,13.881,0,0,0,1.363-4.2c-.02.044-.038.087-.059.131a6.038,6.038,0,0,1-4.615,3.729l-.232,2.4a4.337,4.337,0,0,0,3.542-2.06" transform="translate(-196.558 -12.011)" fill="#d66050"/>
      <path id="Trazado_196421" data-name="Trazado 196421" d="M439.932,17.788c-.371-1.528.464-3.727.464-6.494,0-.868-1.969-1.248-1.969-1.248l1.392-4.461s-7.279-1.725-9.1-1.723c.036-1.136.22-1.372.588-1.573,2.258-1.229,6.486-1.391,9.7-.077a5.041,5.041,0,0,1,3.082,5.972,89.144,89.144,0,0,1-4.153,9.6" transform="translate(-194.898 -0.487)" fill="#1e0b4a"/>
      <path id="Trazado_196422" data-name="Trazado 196422" d="M445.026,18.6a1.658,1.658,0,0,1,1.857.613,1.8,1.8,0,0,1-.024,1.614,4.216,4.216,0,0,1-4.068,2.507s-.274-3.948,2.235-4.733" transform="translate(-199.426 -6.951)" fill="#fcc5a0"/>
      <path id="Trazado_196423" data-name="Trazado 196423" d="M434.54,14l2.405.479s-2.113-2.215-2.405-.479" transform="translate(-196.333 -5.006)" fill="#1e0b4a"/>
      <path id="Trazado_196424" data-name="Trazado 196424" d="M430.525,13.293l-1.77-.352s2.151-1.366,1.77.352" transform="translate(-195.052 -4.664)" fill="#1e0b4a"/>
      <path id="Trazado_196425" data-name="Trazado 196425" d="M429.951,25.416a6.211,6.211,0,0,0,3.671-1.656" transform="translate(-194.611 -8.918)" fill="none" stroke="#d66050" stroke-linecap="round" stroke-linejoin="round" stroke-width="0.842"/>
      <path id="Trazado_196426" data-name="Trazado 196426" d="M431.451,15.851a6.36,6.36,0,0,1-.766,2.342,7.242,7.242,0,0,0-.559.973,1.435,1.435,0,0,0,.281,1.179" transform="translate(-194.658 -5.949)" fill="none" stroke="#d66050" stroke-linecap="round" stroke-linejoin="round" stroke-width="0.842"/>
      <path id="Trazado_196427" data-name="Trazado 196427" d="M434.862,16.554a.44.44,0,1,0,.517-.345.44.44,0,0,0-.517.345" transform="translate(-196.451 -6.081)" fill="#1e0b4a"/>
      <path id="Trazado_196428" data-name="Trazado 196428" d="M429.057,15.291a.44.44,0,1,0,.517-.345.44.44,0,0,0-.517.345" transform="translate(-195.171 -5.607)" fill="#1e0b4a"/>
      <path id="Trazado_196429" data-name="Trazado 196429" d="M429.951,34.053a5.192,5.192,0,0,0,1.379-.174" transform="translate(-194.611 -12.715)" fill="none" stroke="#d66050" stroke-linecap="round" stroke-linejoin="round" stroke-width="0.842"/>
      <path id="Trazado_196430" data-name="Trazado 196430" d="M444.808,22.35a1.912,1.912,0,0,1,.45-1.7,1.878,1.878,0,0,1,.759-.492" transform="translate(-200.17 -7.567)" fill="none" stroke="#d66050" stroke-linecap="round" stroke-linejoin="round" stroke-width="0.842"/>
      <path id="Trazado_196431" data-name="Trazado 196431" d="M428.5,16.5a8.407,8.407,0,0,1-2.305-.511,6.654,6.654,0,0,1,.273-2.75,9.748,9.748,0,0,1,3.191.66A8.005,8.005,0,0,1,428.5,16.5Z" transform="translate(-194.084 -4.969)" fill="none" stroke="#d66050" stroke-linecap="round" stroke-linejoin="round" stroke-width="0.842"/>
      <path id="Trazado_196432" data-name="Trazado 196432" d="M433.31,17.471a14.469,14.469,0,0,0,3.043.595,6.644,6.644,0,0,0,.84-2.633,14.616,14.616,0,0,0-3.915-.81A8.019,8.019,0,0,0,433.31,17.471Z" transform="translate(-195.817 -5.488)" fill="none" stroke="#d66050" stroke-linecap="round" stroke-linejoin="round" stroke-width="0.842"/>
      <line id="Línea_1856" data-name="Línea 1856" x2="0.988" y2="0.204" transform="translate(236.474 8.93)" fill="none" stroke="#d66050" stroke-linecap="round" stroke-linejoin="round" stroke-width="0.842"/>
      <line id="Línea_1857" data-name="Línea 1857" x2="4.282" y2="1.045" transform="translate(241.377 9.944)" fill="none" stroke="#d66050" stroke-linecap="round" stroke-linejoin="round" stroke-width="0.842"/>
      <path id="Trazado_196433" data-name="Trazado 196433" d="M442.438,48.354c-7.853,8.176-18.661,3.513-19.258-2.79a84.785,84.785,0,0,1,19.258,2.79" transform="translate(-192.069 -17.102)" fill="#fcc5a0"/>
      <path id="Trazado_196434" data-name="Trazado 196434" d="M477.3,111.293s-4.975-10.525-11.963-25.971l13.122-4.42c3.4,7.886,7.524,19.8,8.932,26.579Z" transform="translate(-207.893 -30.365)" fill="#ed9f78"/>
      <path id="Trazado_196435" data-name="Trazado 196435" d="M463.2,141.983s18.889-13.224,22-19.5c1.69-3.416-5.587-8.785-13.592.279-8.028,9.09-8.928,9.607-11.465,12.443Z" transform="translate(-205.942 -44.198)" fill="#fcc5a0"/>
      <path id="Trazado_196436" data-name="Trazado 196436" d="M446.071,149.578s-4.944,1.662-6.665,1.36a2.05,2.05,0,0,1-1.412-1s6.138-2.85,6.886-3.068c1.442-.42,6.95-1.188,6.95-1.188l3.06,6.781a25.886,25.886,0,0,1-7.4,5.861l-3.921-7.164Z" transform="translate(-197.63 -54.678)" fill="#fcc5a0"/>
      <path id="Trazado_196437" data-name="Trazado 196437" d="M456.638,51.183c4.954,1.555,11.115,3.841,14.381,9.936,2.542,4.743,3.661,8.26,6.549,16.913-6.345,2.49-14.219,5.694-14.219,5.694l-9.1-19.143a111.284,111.284,0,0,1,2.393-13.4" transform="translate(-203.728 -19.211)" fill="#7463e5"/>
      <path id="Trazado_196438" data-name="Trazado 196438" d="M135.657.529C117.308-4.5,101.606,27.793,121.707,34.96,158.4,44.878,160.45-.151,138.972.136c-.835.011-3.315.394-3.315.394" transform="translate(-79.913 0)" fill="#1e0b4a"/>
      <rect id="Rectángulo_46328" data-name="Rectángulo 46328" width="4.63" height="20.879" transform="translate(52.013 18.861) rotate(-7.43)" fill="#be6248"/>
      <path id="Trazado_196439" data-name="Trazado 196439" d="M150.214,29.472c-1.177,1.593-3.148.494-3.826.078-2.958-1.817-5.368-6.026-6.279-11.379a36.076,36.076,0,0,1-.52-8.313,11.131,11.131,0,0,1,10.6-2.5c1.407,6.717,2.734,18.447.029,22.11" transform="translate(-89.327 -2.589)" fill="#be6248"/>
      <path id="Trazado_196440" data-name="Trazado 196440" d="M155.314,19.461l2.083,0s-1.158-1.382-2.083,0" transform="translate(-95.117 -7.072)" fill="#1e0b4a"/>
      <path id="Trazado_196441" data-name="Trazado 196441" d="M156.483,21.87c.039.3.259.525.49.495a.5.5,0,0,0,.347-.6c-.039-.3-.259-.524-.49-.494a.5.5,0,0,0-.347.6" transform="translate(-95.546 -7.981)" fill="#1e0b4a"/>
      <path id="Trazado_196442" data-name="Trazado 196442" d="M149.752,19.919l-3.32.86s2.144-2.291,3.32-.86" transform="translate(-92.719 -7.3)" fill="#1e0b4a"/>
      <path id="Trazado_196443" data-name="Trazado 196443" d="M150.433,22.619a.516.516,0,1,1-.582-.538.565.565,0,0,1,.582.538" transform="translate(-93.84 -8.286)" fill="#1e0b4a"/>
      <path id="Trazado_196444" data-name="Trazado 196444" d="M153.778,21.089a5.843,5.843,0,0,0,.883,3.644c.249.345.431.456.48.689.1.464-.43.838-.958.907" transform="translate(-94.558 -7.915)" fill="none" stroke="#853534" stroke-linecap="round" stroke-linejoin="round" stroke-width="0.829"/>
      <path id="Trazado_196445" data-name="Trazado 196445" d="M150.205,25.535a.956.956,0,1,1-1.071-.823.956.956,0,0,1,1.071.823" transform="translate(-93.421 -9.272)" fill="#853534"/>
      <path id="Trazado_196446" data-name="Trazado 196446" d="M157.915,23.66a.961.961,0,0,0,.247,1.9.749.749,0,0,0,.2-.056c-.054-.6-.116-1.215-.187-1.825a.771.771,0,0,0-.257-.014" transform="translate(-95.802 -8.878)" fill="#853534"/>
      <path id="Trazado_196447" data-name="Trazado 196447" d="M143.746,35.245a14.673,14.673,0,0,0,5.409,9l-.479-3.67c-1.77-.769-3.52-2.575-4.931-5.33" transform="translate(-91.711 -13.228)" fill="#853534"/>
      <path id="Trazado_196448" data-name="Trazado 196448" d="M144.8,3.835s-1.345,4.413-2.329,5.59c-1.449,1.732-7.808,5.556-8.707,7.6-2.388,5.428,3.455,20.446,3.455,20.446s-17.85-7.616-14.048-19.339S144.8,3.835,144.8,3.835" transform="translate(-83.789 -1.44)" fill="#1e0b4a"/>
      <path id="Trazado_196449" data-name="Trazado 196449" d="M150.28,30.019a3.712,3.712,0,0,0,3.229,1.623" transform="translate(-93.274 -11.267)" fill="none" stroke="#853534" stroke-linecap="round" stroke-linejoin="round" stroke-width="0.829"/>
      <path id="Trazado_196450" data-name="Trazado 196450" d="M140.04,22.2a3.264,3.264,0,0,0-.919-1.509,1.132,1.132,0,0,0-1.226-.337,1.207,1.207,0,0,0-.52.907,2.777,2.777,0,0,0,.77,2.362,2.247,2.247,0,0,0,2.234.549Z" transform="translate(-89.308 -7.609)" fill="#be6248"/>
      <path id="Trazado_196451" data-name="Trazado 196451" d="M139.9,23.317a2.443,2.443,0,0,0-.4-1.522,1.483,1.483,0,0,0-.513-.453" transform="translate(-89.927 -8.01)" fill="none" stroke="#853534" stroke-linecap="round" stroke-linejoin="round" stroke-width="0.829"/>
      <path id="Trazado_196452" data-name="Trazado 196452" d="M182.536,99.148c-3.836-3.266-7.64-9.719-9.389-13.689.146-6.781,8.584-4.291,8.584-4.291a97.2,97.2,0,0,1,3.037,10.693Z" transform="translate(-101.596 -30.297)" fill="#853534"/>
      <path id="Trazado_196453" data-name="Trazado 196453" d="M211.627,41.954c-.742-1.347-3.908.825-5.563,2.115s-3.649,2.851-5.716,3.205c2.754-3.8,2.157-4.575,1.866-4.963-1.665,1.625-5.222,4.395-4.692,9.563a11.854,11.854,0,0,1-.53,3.053,29.548,29.548,0,0,0,5.127,2.461c.1-.826.227-1.541.292-2.258,2.937-.6,5.517-2.7,6.554-3.426l.084-.039a28.027,28.027,0,0,0,6.084-3.017c-.1-.309-.315-.569-1.214-.5-1.367.111-3.082,1.234-5.127,1.537a33.136,33.136,0,0,0,7.121-4.059c-.2-.307-.523-.729-1.82-.277-1.191.415-4.681,1.907-5.827,2.39a61.343,61.343,0,0,0,6.988-4.922c-.129-.489-1.025-.8-2.459.043-2.586,1.527-3.966,2.169-6.142,3.289Z" transform="translate(-110.264 -15.587)" fill="#be6248"/>
      <path id="Trazado_196454" data-name="Trazado 196454" d="M192.227,62.976c-1.936,7.228-5.921,14.6-7.7,22.278-1.291,5.586,3.083,9.629,6.336,8.282,3.07-1.272,5.347-17.444,6.488-28.1Z" transform="translate(-105.661 -23.637)" fill="#be6248"/>
      <path id="Trazado_196455" data-name="Trazado 196455" d="M204.379,51.441a9.793,9.793,0,0,1-2.494,5.769" transform="translate(-112.135 -19.307)" fill="none" stroke="#853534" stroke-linecap="round" stroke-linejoin="round" stroke-width="0.829"/>
      <path id="Trazado_196456" data-name="Trazado 196456" d="M211.361,48.49a11.537,11.537,0,0,1,2.431,4.546" transform="translate(-115.598 -18.199)" fill="none" stroke="#853534" stroke-linecap="round" stroke-linejoin="round" stroke-width="0.829"/>
      <path id="Trazado_196457" data-name="Trazado 196457" d="M172.957,195.581c1.116,8.925-1.181,43.631-2.186,54.724l-10.711,5.488c-1.745-13.9-4.881-37.053-5.923-54.561a13.893,13.893,0,0,0-1.058-4.546c-4.488-10.728-7.909-18.066-11.611-30.711-.082,28.744.806,52.35.657,84.33l-10.593,5.2c-6.137-25.6-15.6-74.174-15.243-91.846.154-7.677,3.291-27.838,6.082-34.343,8.96,1.612,23.916.107,34.222,3.492l4.4,18.342s9.752,26.747,11.962,44.426" transform="translate(-81.402 -48.537)" fill="#12263f"/>
      <path id="Trazado_196458" data-name="Trazado 196458" d="M159.584,104.288C155.362,90,158.8,71.752,156.776,60.729c-.235-1.276-2.136-2.6-3.4-3.019a79.567,79.567,0,0,0-27.862-4.373c-4.339.09-4.444,7.63-3.717,12.378,2.66,17.393,6.081,25.191,2.3,35.884,14.3,1.113,31.423,2.473,35.489,2.689" transform="translate(-83.346 -20.011)" fill="#fff"/>
      <path id="Trazado_196459" data-name="Trazado 196459" d="M156.872,335.749v-.522a2.615,2.615,0,0,0-.337-1.282c-3.04-3.787-5.773-7.53-6.172-10.948l-8.466,1.644a3.571,3.571,0,0,0-2.865,3.083l-.8,6.756v1.27Z" transform="translate(-88.826 -121.229)" fill="#7463e5"/>
      <path id="Trazado_196460" data-name="Trazado 196460" d="M188.914,324.083,197.005,323c4.955,4.227,11.56,7.766,20.865,11.136a.851.851,0,0,1-.375,1.616H186.177l.141-8.747a2.994,2.994,0,0,1,2.6-2.92" transform="translate(-106.25 -121.229)" fill="#7463e5"/>
      <path id="Trazado_196461" data-name="Trazado 196461" d="M135.1,53.384c11.709,18.541,19.045,10.522,19.612,3.04a71.267,71.267,0,0,0-19.612-3.04" transform="translate(-87.682 -20.036)" fill="#be6248"/>
      <path id="Trazado_196462" data-name="Trazado 196462" d="M163.972,57.466l5.731,68.566,10.589-1.489s-6.93-28.9-6.93-34.635c0-4.643.192-12.351.265-15.106a1.394,1.394,0,0,1,1.005-1.3l3.655-1.061c-3.532-11.76-5.46-12.515-14.316-14.973" transform="translate(-98.227 -21.569)" fill="#2194e5"/>
      <path id="Trazado_196463" data-name="Trazado 196463" d="M120.281,75.233l-.049,18.753-6.312,31.519h20.31s5.1-33.365,3.32-43.1S129.7,53.476,129.7,53.476Z" transform="translate(-80.517 -20.071)" fill="#2194e5"/>
      <path id="Trazado_196464" data-name="Trazado 196464" d="M95.04,104.412c3.4-5.163,9.676-15.892,12.4-18.46l-11.736-4.7A132.244,132.244,0,0,0,86.034,103.1Z" transform="translate(-70.051 -30.497)" fill="#853534"/>
      <path id="Trazado_196465" data-name="Trazado 196465" d="M112.641,122.415c-4.228-1.595-15.152-10.759-19.64-11.582-4.781-.876-10.776,3.651-3.985,8.252s19.729,8.449,19.729,8.449Z" transform="translate(-70.024 -41.558)" fill="#be6248"/>
      <path id="Trazado_196466" data-name="Trazado 196466" d="M122,134.478c-.034.952,2.216,5.835,3.459,5.727,2.767-.957,6.662-2.571,6.662-2.571a9.79,9.79,0,0,0-.843-3.065,8.7,8.7,0,0,1-.842-2.045c.743,1,1.983,4.1,3.356,4.565a1.492,1.492,0,0,0,1.522-.114,15.468,15.468,0,0,0-4.438-5.925,15.262,15.262,0,0,0-4.713-1.61Z" transform="translate(-83.55 -48.582)" fill="#be6248"/>
      <path id="Trazado_196467" data-name="Trazado 196467" d="M104.779,61.357c-2.161,3.312-7.81,14.767-7.81,14.767l14.656,6.054,11.714-28.811c-8.76-.445-12.846-.767-18.56,7.99" transform="translate(-74.155 -19.962)" fill="#2194e5"/>
      <line id="Línea_1858" data-name="Línea 1858" y1="3.729" x2="9.443" transform="translate(40.186 88.576)" fill="none" stroke="#1e0b4a" stroke-linecap="round" stroke-linejoin="round" stroke-width="0.829"/>
      <path id="Trazado_196468" data-name="Trazado 196468" d="M297.638,136.927h32.795a3.084,3.084,0,0,1,2.916,2.08l8.463,24.575h-32.8a3.084,3.084,0,0,1-2.916-2.08Z" transform="translate(-146.727 -51.392)" fill="#12263f"/>
      <path id="Trazado_196469" data-name="Trazado 196469" d="M322.906,176.489h41.083a2.109,2.109,0,0,1,1.886,1.942H322.906Z" transform="translate(-155.934 -66.24)" fill="#1e0b4a"/>
      <path id="Trazado_196470" data-name="Trazado 196470" d="M371.329,179.6H279.473a5.878,5.878,0,0,0-5.717,4.511l-23.409,97.819" transform="translate(-128.517 -67.408)" fill="none" stroke="#2194e5" stroke-linecap="round" stroke-linejoin="round" stroke-width="1.052"/>
    </g>
  </g>
</svg>
