<svg id="Grupo_153100" data-name="Grupo 153100" xmlns="http://www.w3.org/2000/svg" xmlns:xlink="http://www.w3.org/1999/xlink" width="73" height="73" viewBox="0 0 73 73">
  <defs>
    <clipPath id="clip-path">
      <rect id="Rectángulo_45673" data-name="Rectángulo 45673" width="48.047" height="48.018" fill="none"/>
    </clipPath>
  </defs>
  <circle id="Elipse_5706" data-name="Elipse 5706" cx="36.5" cy="36.5" r="36.5" fill="#fece2f"/>
  <g id="Grupo_153099" data-name="Grupo 153099" transform="translate(11.781 12)">
    <g id="Grupo_153098" data-name="Grupo 153098" clip-path="url(#clip-path)">
      <path id="Trazado_196038" data-name="Trazado 196038" d="M19.5.085q.735.071,1.463.2a17.812,17.812,0,0,1,8.128,3.669,17.453,17.453,0,0,1,4,4.647q.4.685.754,1.4a17.372,17.372,0,0,1-.3,16.256,12.934,12.934,0,0,1-1.739,2.6,1.566,1.566,0,0,1-.436.739q-.826.912-1.737,1.737a1.565,1.565,0,0,1-.739.436,17.254,17.254,0,0,1-8.441,3.662,17.814,17.814,0,0,1-18.5-9.506A17.509,17.509,0,0,1,.1,15.984,17.4,17.4,0,0,1,3.26,7.529,17.647,17.647,0,0,1,19.5.085" transform="translate(0 0)" fill="#34495e"/>
      <path id="Trazado_196039" data-name="Trazado 196039" d="M121.915,116.215c.127.113.261.219.381.339,2.7,2.694,5.383,5.4,8.091,8.079a6.9,6.9,0,0,1,2.214,3.209v1.408a11.152,11.152,0,0,1-.77,1.576,3.884,3.884,0,0,1-5.922.476c-3.2-3.114-6.332-6.306-9.49-9.467a.315.315,0,0,1-.044-.08c.008-.176.141-.272.249-.381q1.817-1.822,3.64-3.639c.119-.118.229-.263.429-.247a1.564,1.564,0,0,1,.462.391q4.4,4.392,8.789,8.787a2.24,2.24,0,0,1,.372,3.261,1.927,1.927,0,0,0-.142.242.367.367,0,0,0,.085.468.373.373,0,0,0,.513.024,1.757,1.757,0,0,0,.386-.406,3.026,3.026,0,0,0-.352-3.905c-1.91-1.915-3.814-3.836-5.741-5.734-1.181-1.163-2.262-2.421-3.461-3.565a.783.783,0,0,1-.2-.259.648.648,0,0,1,.509-.576" transform="translate(-84.554 -84.438)" fill="#7f4fc7"/>
      <path id="Trazado_196040" data-name="Trazado 196040" d="M105.7,108.452a14.879,14.879,0,0,0,2.912-2.912c.012.06,0,.14.039.175.922.906,1.781,1.877,2.767,2.718.084.192-.071.29-.173.394q-1.119,1.136-2.255,2.255c-.1.1-.2.255-.394.176-.842-.986-1.815-1.844-2.721-2.767-.035-.036-.116-.027-.175-.039" transform="translate(-76.797 -76.682)" fill="#5d6d7e"/>
      <path id="Trazado_196041" data-name="Trazado 196041" d="M114.081,116.769a35.635,35.635,0,0,0,2.822-2.825,2.318,2.318,0,0,1,.884-.723c.658-.251,1.239-.014,1.857.749l-.492.536a1.372,1.372,0,0,1-.762.76l-4.286,4.244c-1.132-.922-1.139-1.716-.023-2.74" transform="translate(-82.284 -82.192)" fill="#34495e"/>
      <path id="Trazado_196042" data-name="Trazado 196042" d="M7.165,22.847a15.894,15.894,0,1,1,15.9,15.912,15.9,15.9,0,0,1-15.9-15.912" transform="translate(-5.205 -5.055)" fill="#5d6d7e"/>
      <path id="Trazado_196043" data-name="Trazado 196043" d="M132.051,118.935a4.86,4.86,0,0,1,.762-.76c.826.763,1.579,1.6,2.366,2.4,2.39,2.428,4.816,4.819,7.215,7.238a3.144,3.144,0,0,1,.051,4.177c-.255.269-.513.489-.876.189-.346-.287-.181-.564.019-.857a2.116,2.116,0,0,0-.307-3.121q-4.426-4.426-8.851-8.852c-.132-.132-.254-.275-.381-.413" transform="translate(-95.944 -85.862)" fill="#fdcd59"/>
      <path id="Trazado_196044" data-name="Trazado 196044" d="M41,26.284A14.632,14.632,0,1,1,26.407,11.592,14.642,14.642,0,0,1,41,26.284" transform="translate(-8.528 -8.422)" fill="#cde1f1"/>
      <path id="Trazado_196045" data-name="Trazado 196045" d="M18.175,42.408a13.1,13.1,0,0,1,2.92-8.162,1.245,1.245,0,0,1,1.686-.218,1.218,1.218,0,0,1,.431,1.6c-.373.7-.909,1.3-1.264,2.02a11.287,11.287,0,0,0-1.063,3.413,10.718,10.718,0,0,0,.664,5.18,1.269,1.269,0,0,1-2.343.973,10.935,10.935,0,0,1-.943-3.88c-.018-.31-.058-.619-.088-.928" transform="translate(-13.205 -24.556)" fill="#fefefe"/>
      <path id="Trazado_196046" data-name="Trazado 196046" d="M45.584,18.326A1.252,1.252,0,0,1,47.031,19.5a1.231,1.231,0,0,1-1.23,1.364,11.32,11.32,0,0,0-4.313,1.282A1.319,1.319,0,0,1,39.47,21.6a1.192,1.192,0,0,1,.443-1.521,11.706,11.706,0,0,1,4.822-1.661,3.045,3.045,0,0,1,.85-.091" transform="translate(-28.597 -13.306)" fill="#fefefe"/>
    </g>
  </g>
</svg>
