<svg xmlns="http://www.w3.org/2000/svg" width="85" height="93.388" viewBox="0 0 85 93.388">
  <g id="Grupo_156511" data-name="Grupo 156511" transform="translate(-179.668 -404)">
    <rect id="Rectángulo_45220" data-name="Rectángulo 45220" width="67.754" height="51.474" transform="translate(231.142 404) rotate(90)" fill="#e4e4e4"/>
    <rect id="Rectángulo_45221" data-name="Rectángulo 45221" width="3.279" height="3.279" transform="translate(261.389 428.223) rotate(-90)" fill="#1894f6"/>
    <rect id="Rectángulo_45222" data-name="Rectángulo 45222" width="3.279" height="3.279" transform="translate(261.389 435.19) rotate(-90)" fill="#1894f6"/>
    <rect id="Rectángulo_45223" data-name="Rectángulo 45223" width="3.279" height="3.279" transform="translate(261.389 442.158) rotate(-90)" fill="#1894f6"/>
    <rect id="Rectángulo_45224" data-name="Rectángulo 45224" width="3.279" height="3.279" transform="translate(261.389 449.127) rotate(-90)" fill="#1894f6"/>
    <rect id="Rectángulo_45225" data-name="Rectángulo 45225" width="3.279" height="3.279" transform="translate(261.389 456.095) rotate(-90)" fill="#1894f6"/>
    <rect id="Rectángulo_45226" data-name="Rectángulo 45226" width="3.279" height="3.279" transform="translate(261.389 463.063) rotate(-90)" fill="#1894f6"/>
    <rect id="Rectángulo_47404" data-name="Rectángulo 47404" width="3.279" height="3.279" transform="translate(261.389 483.451) rotate(-90)" fill="#1894f6"/>
    <rect id="Rectángulo_45227" data-name="Rectángulo 45227" width="3.279" height="3.279" transform="translate(261.389 470.031) rotate(-90)" fill="#1894f6"/>
    <rect id="Rectángulo_47396" data-name="Rectángulo 47396" width="3.279" height="3.279" transform="translate(261.389 490.42) rotate(-90)" fill="#1894f6"/>
    <rect id="Rectángulo_45228" data-name="Rectángulo 45228" width="3.279" height="3.279" transform="translate(261.389 476.999) rotate(-90)" fill="#1894f6"/>
    <rect id="Rectángulo_47388" data-name="Rectángulo 47388" width="3.279" height="3.279" transform="translate(261.389 497.388) rotate(-90)" fill="#1894f6"/>
    <rect id="Rectángulo_45232" data-name="Rectángulo 45232" width="3.279" height="3.279" transform="translate(254.421 428.223) rotate(-90)" fill="#1894f6"/>
    <rect id="Rectángulo_45233" data-name="Rectángulo 45233" width="3.279" height="3.279" transform="translate(254.421 435.19) rotate(-90)" fill="#1894f6"/>
    <rect id="Rectángulo_45234" data-name="Rectángulo 45234" width="3.279" height="3.279" transform="translate(254.421 442.158) rotate(-90)" fill="#1894f6"/>
    <rect id="Rectángulo_45235" data-name="Rectángulo 45235" width="3.279" height="3.279" transform="translate(254.421 449.127) rotate(-90)" fill="#1894f6"/>
    <rect id="Rectángulo_45236" data-name="Rectángulo 45236" width="3.279" height="3.279" transform="translate(254.421 456.095) rotate(-90)" fill="#1894f6"/>
    <rect id="Rectángulo_45237" data-name="Rectángulo 45237" width="3.279" height="3.279" transform="translate(254.421 463.063) rotate(-90)" fill="#1894f6"/>
    <rect id="Rectángulo_47405" data-name="Rectángulo 47405" width="3.279" height="3.279" transform="translate(254.421 483.451) rotate(-90)" fill="#1894f6"/>
    <rect id="Rectángulo_45238" data-name="Rectángulo 45238" width="3.279" height="3.279" transform="translate(254.421 470.031) rotate(-90)" fill="#1894f6"/>
    <rect id="Rectángulo_47397" data-name="Rectángulo 47397" width="3.279" height="3.279" transform="translate(254.421 490.42) rotate(-90)" fill="#1894f6"/>
    <rect id="Rectángulo_45239" data-name="Rectángulo 45239" width="3.279" height="3.279" transform="translate(254.421 476.999) rotate(-90)" fill="#1894f6"/>
    <rect id="Rectángulo_47389" data-name="Rectángulo 47389" width="3.279" height="3.279" transform="translate(254.421 497.388) rotate(-90)" fill="#1894f6"/>
    <rect id="Rectángulo_45243" data-name="Rectángulo 45243" width="3.279" height="3.279" transform="translate(247.453 428.223) rotate(-90)" fill="#1894f6"/>
    <rect id="Rectángulo_45244" data-name="Rectángulo 45244" width="3.279" height="3.279" transform="translate(247.453 435.19) rotate(-90)" fill="#1894f6"/>
    <rect id="Rectángulo_45245" data-name="Rectángulo 45245" width="3.279" height="3.279" transform="translate(247.453 442.158) rotate(-90)" fill="#1894f6"/>
    <rect id="Rectángulo_45246" data-name="Rectángulo 45246" width="3.279" height="3.279" transform="translate(247.453 449.127) rotate(-90)" fill="#1894f6"/>
    <rect id="Rectángulo_45247" data-name="Rectángulo 45247" width="3.279" height="3.279" transform="translate(247.453 456.095) rotate(-90)" fill="#1894f6"/>
    <rect id="Rectángulo_45248" data-name="Rectángulo 45248" width="3.279" height="3.279" transform="translate(247.453 463.063) rotate(-90)" fill="#1894f6"/>
    <rect id="Rectángulo_47406" data-name="Rectángulo 47406" width="3.279" height="3.279" transform="translate(247.453 483.451) rotate(-90)" fill="#1894f6"/>
    <rect id="Rectángulo_45249" data-name="Rectángulo 45249" width="3.279" height="3.279" transform="translate(247.453 470.031) rotate(-90)" fill="#1894f6"/>
    <rect id="Rectángulo_47398" data-name="Rectángulo 47398" width="3.279" height="3.279" transform="translate(247.453 490.42) rotate(-90)" fill="#1894f6"/>
    <rect id="Rectángulo_45250" data-name="Rectángulo 45250" width="3.279" height="3.279" transform="translate(247.453 476.999) rotate(-90)" fill="#1894f6"/>
    <rect id="Rectángulo_47390" data-name="Rectángulo 47390" width="3.279" height="3.279" transform="translate(247.453 497.388) rotate(-90)" fill="#1894f6"/>
    <rect id="Rectángulo_45221-2" data-name="Rectángulo 45221" width="3.279" height="3.279" transform="translate(241.067 428.223) rotate(-90)" fill="#1894f6"/>
    <rect id="Rectángulo_45222-2" data-name="Rectángulo 45222" width="3.279" height="3.279" transform="translate(241.067 435.19) rotate(-90)" fill="#1894f6"/>
    <rect id="Rectángulo_45223-2" data-name="Rectángulo 45223" width="3.279" height="3.279" transform="translate(241.067 442.159) rotate(-90)" fill="#1894f6"/>
    <rect id="Rectángulo_45224-2" data-name="Rectángulo 45224" width="3.279" height="3.279" transform="translate(241.067 449.127) rotate(-90)" fill="#1894f6"/>
    <rect id="Rectángulo_45225-2" data-name="Rectángulo 45225" width="3.279" height="3.279" transform="translate(241.067 456.095) rotate(-90)" fill="#1894f6"/>
    <rect id="Rectángulo_45226-2" data-name="Rectángulo 45226" width="3.279" height="3.279" transform="translate(241.067 463.063) rotate(-90)" fill="#1894f6"/>
    <rect id="Rectángulo_47407" data-name="Rectángulo 47407" width="3.279" height="3.279" transform="translate(241.067 483.451) rotate(-90)" fill="#1894f6"/>
    <rect id="Rectángulo_45227-2" data-name="Rectángulo 45227" width="3.279" height="3.279" transform="translate(241.067 470.031) rotate(-90)" fill="#1894f6"/>
    <rect id="Rectángulo_47399" data-name="Rectángulo 47399" width="3.279" height="3.279" transform="translate(241.067 490.42) rotate(-90)" fill="#1894f6"/>
    <rect id="Rectángulo_45228-2" data-name="Rectángulo 45228" width="3.279" height="3.279" transform="translate(241.067 476.999) rotate(-90)" fill="#1894f6"/>
    <rect id="Rectángulo_47391" data-name="Rectángulo 47391" width="3.279" height="3.279" transform="translate(241.067 497.388) rotate(-90)" fill="#1894f6"/>
    <rect id="Rectángulo_45232-2" data-name="Rectángulo 45232" width="3.279" height="3.279" transform="translate(234.099 428.223) rotate(-90)" fill="#1894f6"/>
    <rect id="Rectángulo_45279" data-name="Rectángulo 45279" width="3.279" height="3.279" transform="translate(220.163 428.223) rotate(-90)" fill="#1894f6"/>
    <rect id="Rectángulo_45233-2" data-name="Rectángulo 45233" width="3.279" height="3.279" transform="translate(234.099 435.19) rotate(-90)" fill="#1894f6"/>
    <rect id="Rectángulo_45280" data-name="Rectángulo 45280" width="3.279" height="3.279" transform="translate(220.163 435.19) rotate(-90)" fill="#1894f6"/>
    <rect id="Rectángulo_45234-2" data-name="Rectángulo 45234" width="3.279" height="3.279" transform="translate(234.099 442.159) rotate(-90)" fill="#1894f6"/>
    <rect id="Rectángulo_45281" data-name="Rectángulo 45281" width="3.279" height="3.279" transform="translate(220.163 442.159) rotate(-90)" fill="#1894f6"/>
    <rect id="Rectángulo_45235-2" data-name="Rectángulo 45235" width="3.279" height="3.279" transform="translate(234.099 449.127) rotate(-90)" fill="#1894f6"/>
    <rect id="Rectángulo_45282" data-name="Rectángulo 45282" width="3.279" height="3.279" transform="translate(220.163 449.127) rotate(-90)" fill="#1894f6"/>
    <rect id="Rectángulo_45236-2" data-name="Rectángulo 45236" width="3.279" height="3.279" transform="translate(234.099 456.095) rotate(-90)" fill="#1894f6"/>
    <rect id="Rectángulo_45283" data-name="Rectángulo 45283" width="3.279" height="3.279" transform="translate(220.163 456.095) rotate(-90)" fill="#1894f6"/>
    <rect id="Rectángulo_45237-2" data-name="Rectángulo 45237" width="3.279" height="3.279" transform="translate(234.099 463.063) rotate(-90)" fill="#1894f6"/>
    <rect id="Rectángulo_47408" data-name="Rectángulo 47408" width="3.279" height="3.279" transform="translate(234.099 483.451) rotate(-90)" fill="#1894f6"/>
    <rect id="Rectángulo_45284" data-name="Rectángulo 45284" width="3.279" height="3.279" transform="translate(220.163 463.063) rotate(-90)" fill="#1894f6"/>
    <rect id="Rectángulo_47409" data-name="Rectángulo 47409" width="3.279" height="3.279" transform="translate(220.163 483.451) rotate(-90)" fill="#1894f6"/>
    <rect id="Rectángulo_45238-2" data-name="Rectángulo 45238" width="3.279" height="3.279" transform="translate(234.099 470.031) rotate(-90)" fill="#1894f6"/>
    <rect id="Rectángulo_47400" data-name="Rectángulo 47400" width="3.279" height="3.279" transform="translate(234.099 490.42) rotate(-90)" fill="#1894f6"/>
    <rect id="Rectángulo_45285" data-name="Rectángulo 45285" width="3.279" height="3.279" transform="translate(220.163 470.031) rotate(-90)" fill="#1894f6"/>
    <rect id="Rectángulo_47401" data-name="Rectángulo 47401" width="3.279" height="3.279" transform="translate(220.163 490.42) rotate(-90)" fill="#1894f6"/>
    <rect id="Rectángulo_45239-2" data-name="Rectángulo 45239" width="3.279" height="3.279" transform="translate(234.099 476.999) rotate(-90)" fill="#1894f6"/>
    <rect id="Rectángulo_47392" data-name="Rectángulo 47392" width="3.279" height="3.279" transform="translate(234.099 497.388) rotate(-90)" fill="#1894f6"/>
    <rect id="Rectángulo_45286" data-name="Rectángulo 45286" width="3.279" height="3.279" transform="translate(220.163 476.999) rotate(-90)" fill="#1894f6"/>
    <rect id="Rectángulo_47394" data-name="Rectángulo 47394" width="3.279" height="3.279" transform="translate(220.163 497.388) rotate(-90)" fill="#1894f6"/>
    <rect id="Rectángulo_45243-2" data-name="Rectángulo 45243" width="3.279" height="3.279" transform="translate(227.131 428.223) rotate(-90)" fill="#1894f6"/>
    <rect id="Rectángulo_45268" data-name="Rectángulo 45268" width="3.279" height="3.279" transform="translate(213.194 428.223) rotate(-90)" fill="#1894f6"/>
    <rect id="Rectángulo_45244-2" data-name="Rectángulo 45244" width="3.279" height="3.279" transform="translate(227.131 435.19) rotate(-90)" fill="#1894f6"/>
    <rect id="Rectángulo_45269" data-name="Rectángulo 45269" width="3.279" height="3.279" transform="translate(213.194 435.19) rotate(-90)" fill="#1894f6"/>
    <rect id="Rectángulo_45245-2" data-name="Rectángulo 45245" width="3.279" height="3.279" transform="translate(227.131 442.159) rotate(-90)" fill="#1894f6"/>
    <rect id="Rectángulo_45270" data-name="Rectángulo 45270" width="3.279" height="3.279" transform="translate(213.194 442.159) rotate(-90)" fill="#1894f6"/>
    <rect id="Rectángulo_45246-2" data-name="Rectángulo 45246" width="3.279" height="3.279" transform="translate(227.131 449.127) rotate(-90)" fill="#1894f6"/>
    <rect id="Rectángulo_45271" data-name="Rectángulo 45271" width="3.279" height="3.279" transform="translate(213.194 449.127) rotate(-90)" fill="#1894f6"/>
    <rect id="Rectángulo_45247-2" data-name="Rectángulo 45247" width="3.279" height="3.279" transform="translate(227.131 456.095) rotate(-90)" fill="#1894f6"/>
    <rect id="Rectángulo_45272" data-name="Rectángulo 45272" width="3.279" height="3.279" transform="translate(213.194 456.095) rotate(-90)" fill="#1894f6"/>
    <rect id="Rectángulo_45248-2" data-name="Rectángulo 45248" width="3.279" height="3.279" transform="translate(227.131 463.063) rotate(-90)" fill="#1894f6"/>
    <rect id="Rectángulo_47410" data-name="Rectángulo 47410" width="3.279" height="3.279" transform="translate(227.131 483.451) rotate(-90)" fill="#1894f6"/>
    <rect id="Rectángulo_45273" data-name="Rectángulo 45273" width="3.279" height="3.279" transform="translate(213.194 463.063) rotate(-90)" fill="#1894f6"/>
    <rect id="Rectángulo_47411" data-name="Rectángulo 47411" width="3.279" height="3.279" transform="translate(213.194 483.451) rotate(-90)" fill="#1894f6"/>
    <rect id="Rectángulo_45249-2" data-name="Rectángulo 45249" width="3.279" height="3.279" transform="translate(227.131 470.031) rotate(-90)" fill="#1894f6"/>
    <rect id="Rectángulo_47402" data-name="Rectángulo 47402" width="3.279" height="3.279" transform="translate(227.131 490.42) rotate(-90)" fill="#1894f6"/>
    <rect id="Rectángulo_45274" data-name="Rectángulo 45274" width="3.279" height="3.279" transform="translate(213.194 470.031) rotate(-90)" fill="#1894f6"/>
    <rect id="Rectángulo_47403" data-name="Rectángulo 47403" width="3.279" height="3.279" transform="translate(213.194 490.42) rotate(-90)" fill="#1894f6"/>
    <rect id="Rectángulo_45250-2" data-name="Rectángulo 45250" width="3.279" height="3.279" transform="translate(227.131 476.999) rotate(-90)" fill="#1894f6"/>
    <rect id="Rectángulo_47393" data-name="Rectángulo 47393" width="3.279" height="3.279" transform="translate(227.131 497.388) rotate(-90)" fill="#1894f6"/>
    <rect id="Rectángulo_45275" data-name="Rectángulo 45275" width="3.279" height="3.279" transform="translate(213.194 476.999) rotate(-90)" fill="#1894f6"/>
    <rect id="Rectángulo_47395" data-name="Rectángulo 47395" width="3.279" height="3.279" transform="translate(213.194 497.388) rotate(-90)" fill="#1894f6"/>
  </g>
</svg>
