<svg xmlns="http://www.w3.org/2000/svg" width="84.413" height="73.116" viewBox="0 0 84.413 73.116">
  <g id="Grupo_155277" data-name="Grupo 155277" transform="translate(-180.588 -1755.328)">
    <rect id="Rectángulo_45220" data-name="Rectángulo 45220" width="55.256" height="48.731" transform="translate(229.319 1755.328) rotate(90)" fill="#e4e4e4"/>
    <rect id="Rectángulo_45221" data-name="Rectángulo 45221" width="4.203" height="4.203" transform="translate(260.798 1774.862) rotate(-90)" fill="#7f4fc7"/>
    <rect id="Rectángulo_45222" data-name="Rectángulo 45222" width="4.203" height="4.203" transform="translate(260.798 1783.793) rotate(-90)" fill="#7f4fc7"/>
    <rect id="Rectángulo_45223" data-name="Rectángulo 45223" width="4.203" height="4.203" transform="translate(260.798 1792.723) rotate(-90)" fill="#7f4fc7"/>
    <rect id="Rectángulo_45224" data-name="Rectángulo 45224" width="4.202" height="4.203" transform="translate(260.798 1801.653) rotate(-90)" fill="#7f4fc7"/>
    <rect id="Rectángulo_45225" data-name="Rectángulo 45225" width="4.203" height="4.203" transform="translate(260.798 1810.584) rotate(-90)" fill="#7f4fc7"/>
    <rect id="Rectángulo_45226" data-name="Rectángulo 45226" width="4.202" height="4.203" transform="translate(260.798 1819.514) rotate(-90)" fill="#7f4fc7"/>
    <rect id="Rectángulo_45227" data-name="Rectángulo 45227" width="4.203" height="4.203" transform="translate(260.798 1828.444) rotate(-90)" fill="#7f4fc7"/>
    <rect id="Rectángulo_45232" data-name="Rectángulo 45232" width="4.203" height="4.203" transform="translate(251.867 1774.862) rotate(-90)" fill="#7f4fc7"/>
    <rect id="Rectángulo_45233" data-name="Rectángulo 45233" width="4.203" height="4.203" transform="translate(251.867 1783.793) rotate(-90)" fill="#7f4fc7"/>
    <rect id="Rectángulo_45234" data-name="Rectángulo 45234" width="4.203" height="4.203" transform="translate(251.867 1792.723) rotate(-90)" fill="#7f4fc7"/>
    <rect id="Rectángulo_45235" data-name="Rectángulo 45235" width="4.202" height="4.203" transform="translate(251.867 1801.653) rotate(-90)" fill="#7f4fc7"/>
    <rect id="Rectángulo_45236" data-name="Rectángulo 45236" width="4.203" height="4.203" transform="translate(251.867 1810.584) rotate(-90)" fill="#7f4fc7"/>
    <rect id="Rectángulo_45237" data-name="Rectángulo 45237" width="4.202" height="4.203" transform="translate(251.867 1819.514) rotate(-90)" fill="#7f4fc7"/>
    <rect id="Rectángulo_45238" data-name="Rectángulo 45238" width="4.203" height="4.203" transform="translate(251.867 1828.444) rotate(-90)" fill="#7f4fc7"/>
    <rect id="Rectángulo_45243" data-name="Rectángulo 45243" width="4.203" height="4.203" transform="translate(242.937 1774.862) rotate(-90)" fill="#7f4fc7"/>
    <rect id="Rectángulo_45244" data-name="Rectángulo 45244" width="4.203" height="4.203" transform="translate(242.937 1783.793) rotate(-90)" fill="#7f4fc7"/>
    <rect id="Rectángulo_45245" data-name="Rectángulo 45245" width="4.203" height="4.203" transform="translate(242.937 1792.723) rotate(-90)" fill="#7f4fc7"/>
    <rect id="Rectángulo_45246" data-name="Rectángulo 45246" width="4.202" height="4.203" transform="translate(242.937 1801.653) rotate(-90)" fill="#7f4fc7"/>
    <rect id="Rectángulo_45247" data-name="Rectángulo 45247" width="4.203" height="4.203" transform="translate(242.937 1810.584) rotate(-90)" fill="#7f4fc7"/>
    <rect id="Rectángulo_45248" data-name="Rectángulo 45248" width="4.202" height="4.203" transform="translate(242.937 1819.514) rotate(-90)" fill="#7f4fc7"/>
    <rect id="Rectángulo_45249" data-name="Rectángulo 45249" width="4.203" height="4.203" transform="translate(242.937 1828.444) rotate(-90)" fill="#7f4fc7"/>
    <rect id="Rectángulo_45221-2" data-name="Rectángulo 45221" width="4.203" height="4.203" transform="translate(234.753 1774.862) rotate(-90)" fill="#7f4fc7"/>
    <rect id="Rectángulo_45222-2" data-name="Rectángulo 45222" width="4.203" height="4.203" transform="translate(234.753 1783.793) rotate(-90)" fill="#7f4fc7"/>
    <rect id="Rectángulo_45223-2" data-name="Rectángulo 45223" width="4.203" height="4.203" transform="translate(234.753 1792.723) rotate(-90)" fill="#7f4fc7"/>
    <rect id="Rectángulo_45224-2" data-name="Rectángulo 45224" width="4.202" height="4.203" transform="translate(234.753 1801.653) rotate(-90)" fill="#7f4fc7"/>
    <rect id="Rectángulo_45225-2" data-name="Rectángulo 45225" width="4.203" height="4.203" transform="translate(234.753 1810.584) rotate(-90)" fill="#7f4fc7"/>
    <rect id="Rectángulo_45226-2" data-name="Rectángulo 45226" width="4.202" height="4.203" transform="translate(234.753 1819.514) rotate(-90)" fill="#7f4fc7"/>
    <rect id="Rectángulo_45227-2" data-name="Rectángulo 45227" width="4.203" height="4.203" transform="translate(234.753 1828.444) rotate(-90)" fill="#7f4fc7"/>
    <rect id="Rectángulo_45232-2" data-name="Rectángulo 45232" width="4.203" height="4.203" transform="translate(225.823 1774.862) rotate(-90)" fill="#7f4fc7"/>
    <rect id="Rectángulo_45233-2" data-name="Rectángulo 45233" width="4.203" height="4.203" transform="translate(225.823 1783.793) rotate(-90)" fill="#7f4fc7"/>
    <rect id="Rectángulo_45234-2" data-name="Rectángulo 45234" width="4.203" height="4.203" transform="translate(225.823 1792.723) rotate(-90)" fill="#7f4fc7"/>
    <rect id="Rectángulo_45235-2" data-name="Rectángulo 45235" width="4.202" height="4.203" transform="translate(225.823 1801.653) rotate(-90)" fill="#7f4fc7"/>
    <rect id="Rectángulo_45236-2" data-name="Rectángulo 45236" width="4.203" height="4.203" transform="translate(225.823 1810.584) rotate(-90)" fill="#7f4fc7"/>
    <rect id="Rectángulo_45237-2" data-name="Rectángulo 45237" width="4.202" height="4.203" transform="translate(225.823 1819.514) rotate(-90)" fill="#7f4fc7"/>
    <rect id="Rectángulo_45238-2" data-name="Rectángulo 45238" width="4.203" height="4.203" transform="translate(225.823 1828.444) rotate(-90)" fill="#7f4fc7"/>
    <rect id="Rectángulo_45243-2" data-name="Rectángulo 45243" width="4.203" height="4.203" transform="translate(216.893 1774.862) rotate(-90)" fill="#7f4fc7"/>
    <rect id="Rectángulo_45244-2" data-name="Rectángulo 45244" width="4.203" height="4.203" transform="translate(216.893 1783.793) rotate(-90)" fill="#7f4fc7"/>
    <rect id="Rectángulo_45245-2" data-name="Rectángulo 45245" width="4.203" height="4.203" transform="translate(216.893 1792.723) rotate(-90)" fill="#7f4fc7"/>
    <rect id="Rectángulo_45246-2" data-name="Rectángulo 45246" width="4.202" height="4.203" transform="translate(216.893 1801.653) rotate(-90)" fill="#7f4fc7"/>
    <rect id="Rectángulo_45247-2" data-name="Rectángulo 45247" width="4.203" height="4.203" transform="translate(216.893 1810.584) rotate(-90)" fill="#7f4fc7"/>
    <rect id="Rectángulo_45248-2" data-name="Rectángulo 45248" width="4.202" height="4.203" transform="translate(216.893 1819.514) rotate(-90)" fill="#7f4fc7"/>
    <rect id="Rectángulo_45249-2" data-name="Rectángulo 45249" width="4.203" height="4.203" transform="translate(216.893 1828.444) rotate(-90)" fill="#7f4fc7"/>
  </g>
</svg>
