<svg xmlns="http://www.w3.org/2000/svg" xmlns:xlink="http://www.w3.org/1999/xlink" width="295" height="162.995" viewBox="0 0 295 162.995">
  <defs>
    <clipPath id="clip-path">
      <path id="Trazado_194907" data-name="Trazado 194907" d="M0,95.894A42.561,42.561,0,1,0,42.561,53.333,42.56,42.56,0,0,0,0,95.894" transform="translate(0 -53.333)" fill="#7f4fc7"/>
    </clipPath>
    <clipPath id="clip-path-2">
      <rect id="Rectángulo_45986" data-name="Rectángulo 45986" width="84.283" height="72.708" fill="#12263f"/>
    </clipPath>
  </defs>
  <g id="Grupo_154319" data-name="Grupo 154319" transform="translate(-915 -3939.659)">
    <g id="Grupo_154313" data-name="Grupo 154313" transform="translate(954.323 4004.191)">
      <g id="Grupo_152768" data-name="Grupo 152768" transform="translate(0 0)" clip-path="url(#clip-path)">
        <path id="Trazado_194826" data-name="Trazado 194826" d="M2.24,54.453a1.12,1.12,0,1,0-1.12,1.121,1.12,1.12,0,0,0,1.12-1.121" transform="translate(0 -53.333)" fill="#7f4fc7"/>
        <path id="Trazado_194827" data-name="Trazado 194827" d="M10.512,54.453a1.12,1.12,0,1,0-1.12,1.121,1.12,1.12,0,0,0,1.12-1.121" transform="translate(2.087 -53.333)" fill="#7f4fc7"/>
        <path id="Trazado_194828" data-name="Trazado 194828" d="M18.785,54.453a1.12,1.12,0,1,0-1.12,1.121,1.12,1.12,0,0,0,1.12-1.121" transform="translate(4.175 -53.333)" fill="#7f4fc7"/>
        <path id="Trazado_194829" data-name="Trazado 194829" d="M27.058,54.453a1.12,1.12,0,1,0-1.12,1.121,1.12,1.12,0,0,0,1.12-1.121" transform="translate(6.263 -53.333)" fill="#7f4fc7"/>
        <path id="Trazado_194830" data-name="Trazado 194830" d="M35.33,54.453a1.12,1.12,0,1,0-1.12,1.121,1.12,1.12,0,0,0,1.12-1.121" transform="translate(8.35 -53.333)" fill="#7f4fc7"/>
        <path id="Trazado_194831" data-name="Trazado 194831" d="M43.6,54.453a1.12,1.12,0,1,0-1.12,1.121,1.12,1.12,0,0,0,1.12-1.121" transform="translate(10.438 -53.333)" fill="#7f4fc7"/>
        <path id="Trazado_194832" data-name="Trazado 194832" d="M51.875,54.453a1.12,1.12,0,1,0-1.12,1.121,1.12,1.12,0,0,0,1.12-1.121" transform="translate(12.525 -53.333)" fill="#7f4fc7"/>
        <path id="Trazado_194833" data-name="Trazado 194833" d="M60.148,54.453a1.12,1.12,0,1,0-1.12,1.121,1.121,1.121,0,0,0,1.12-1.121" transform="translate(14.613 -53.333)" fill="#7f4fc7"/>
        <path id="Trazado_194834" data-name="Trazado 194834" d="M68.421,54.453a1.12,1.12,0,1,0-1.12,1.121,1.12,1.12,0,0,0,1.12-1.121" transform="translate(16.701 -53.333)" fill="#7f4fc7"/>
        <path id="Trazado_194835" data-name="Trazado 194835" d="M2.24,62.726a1.12,1.12,0,1,0-1.12,1.12,1.119,1.119,0,0,0,1.12-1.12" transform="translate(0 -51.245)" fill="#7f4fc7"/>
        <path id="Trazado_194836" data-name="Trazado 194836" d="M10.512,62.726a1.12,1.12,0,1,0-1.12,1.12,1.119,1.119,0,0,0,1.12-1.12" transform="translate(2.087 -51.245)" fill="#7f4fc7"/>
        <path id="Trazado_194837" data-name="Trazado 194837" d="M18.785,62.726a1.12,1.12,0,1,0-1.12,1.12,1.119,1.119,0,0,0,1.12-1.12" transform="translate(4.175 -51.245)" fill="#7f4fc7"/>
        <path id="Trazado_194838" data-name="Trazado 194838" d="M27.058,62.726a1.12,1.12,0,1,0-1.12,1.12,1.119,1.119,0,0,0,1.12-1.12" transform="translate(6.263 -51.245)" fill="#7f4fc7"/>
        <path id="Trazado_194839" data-name="Trazado 194839" d="M35.33,62.726a1.12,1.12,0,1,0-1.12,1.12,1.119,1.119,0,0,0,1.12-1.12" transform="translate(8.35 -51.245)" fill="#7f4fc7"/>
        <path id="Trazado_194840" data-name="Trazado 194840" d="M43.6,62.726a1.12,1.12,0,1,0-1.12,1.12,1.119,1.119,0,0,0,1.12-1.12" transform="translate(10.438 -51.245)" fill="#7f4fc7"/>
        <path id="Trazado_194841" data-name="Trazado 194841" d="M51.875,62.726a1.12,1.12,0,1,0-1.12,1.12,1.119,1.119,0,0,0,1.12-1.12" transform="translate(12.525 -51.245)" fill="#7f4fc7"/>
        <path id="Trazado_194842" data-name="Trazado 194842" d="M60.148,62.726a1.12,1.12,0,1,0-1.12,1.12,1.12,1.12,0,0,0,1.12-1.12" transform="translate(14.613 -51.245)" fill="#7f4fc7"/>
        <path id="Trazado_194843" data-name="Trazado 194843" d="M68.421,62.726a1.12,1.12,0,1,0-1.12,1.12,1.119,1.119,0,0,0,1.12-1.12" transform="translate(16.701 -51.245)" fill="#7f4fc7"/>
        <path id="Trazado_194844" data-name="Trazado 194844" d="M2.24,71a1.12,1.12,0,1,0-1.12,1.12A1.119,1.119,0,0,0,2.24,71" transform="translate(0 -49.158)" fill="#7f4fc7"/>
        <path id="Trazado_194845" data-name="Trazado 194845" d="M10.512,71a1.12,1.12,0,1,0-1.12,1.12A1.119,1.119,0,0,0,10.512,71" transform="translate(2.087 -49.158)" fill="#7f4fc7"/>
        <path id="Trazado_194846" data-name="Trazado 194846" d="M18.785,71a1.12,1.12,0,1,0-1.12,1.12A1.119,1.119,0,0,0,18.785,71" transform="translate(4.175 -49.158)" fill="#7f4fc7"/>
        <path id="Trazado_194847" data-name="Trazado 194847" d="M27.058,71a1.12,1.12,0,1,0-1.12,1.12A1.119,1.119,0,0,0,27.058,71" transform="translate(6.263 -49.158)" fill="#7f4fc7"/>
        <path id="Trazado_194848" data-name="Trazado 194848" d="M35.33,71a1.12,1.12,0,1,0-1.12,1.12A1.119,1.119,0,0,0,35.33,71" transform="translate(8.35 -49.158)" fill="#7f4fc7"/>
        <path id="Trazado_194849" data-name="Trazado 194849" d="M43.6,71a1.12,1.12,0,1,0-1.12,1.12A1.119,1.119,0,0,0,43.6,71" transform="translate(10.438 -49.158)" fill="#7f4fc7"/>
        <path id="Trazado_194850" data-name="Trazado 194850" d="M51.875,71a1.12,1.12,0,1,0-1.12,1.12A1.119,1.119,0,0,0,51.875,71" transform="translate(12.525 -49.158)" fill="#7f4fc7"/>
        <path id="Trazado_194851" data-name="Trazado 194851" d="M60.148,71a1.12,1.12,0,1,0-1.12,1.12A1.12,1.12,0,0,0,60.148,71" transform="translate(14.613 -49.158)" fill="#7f4fc7"/>
        <path id="Trazado_194852" data-name="Trazado 194852" d="M68.421,71a1.12,1.12,0,1,0-1.12,1.12A1.119,1.119,0,0,0,68.421,71" transform="translate(16.701 -49.158)" fill="#7f4fc7"/>
        <path id="Trazado_194853" data-name="Trazado 194853" d="M2.24,79.271a1.12,1.12,0,1,0-1.12,1.12,1.119,1.119,0,0,0,1.12-1.12" transform="translate(0 -47.07)" fill="#7f4fc7"/>
        <path id="Trazado_194854" data-name="Trazado 194854" d="M10.512,79.271a1.12,1.12,0,1,0-1.12,1.12,1.119,1.119,0,0,0,1.12-1.12" transform="translate(2.087 -47.07)" fill="#7f4fc7"/>
        <path id="Trazado_194855" data-name="Trazado 194855" d="M18.785,79.271a1.12,1.12,0,1,0-1.12,1.12,1.119,1.119,0,0,0,1.12-1.12" transform="translate(4.175 -47.07)" fill="#7f4fc7"/>
        <path id="Trazado_194856" data-name="Trazado 194856" d="M27.058,79.271a1.12,1.12,0,1,0-1.12,1.12,1.119,1.119,0,0,0,1.12-1.12" transform="translate(6.263 -47.07)" fill="#7f4fc7"/>
        <path id="Trazado_194857" data-name="Trazado 194857" d="M35.33,79.271a1.12,1.12,0,1,0-1.12,1.12,1.119,1.119,0,0,0,1.12-1.12" transform="translate(8.35 -47.07)" fill="#7f4fc7"/>
        <path id="Trazado_194858" data-name="Trazado 194858" d="M43.6,79.271a1.12,1.12,0,1,0-1.12,1.12,1.119,1.119,0,0,0,1.12-1.12" transform="translate(10.438 -47.07)" fill="#7f4fc7"/>
        <path id="Trazado_194859" data-name="Trazado 194859" d="M51.875,79.271a1.12,1.12,0,1,0-1.12,1.12,1.119,1.119,0,0,0,1.12-1.12" transform="translate(12.525 -47.07)" fill="#7f4fc7"/>
        <path id="Trazado_194860" data-name="Trazado 194860" d="M60.148,79.271a1.12,1.12,0,1,0-1.12,1.12,1.12,1.12,0,0,0,1.12-1.12" transform="translate(14.613 -47.07)" fill="#7f4fc7"/>
        <path id="Trazado_194861" data-name="Trazado 194861" d="M68.421,79.271a1.12,1.12,0,1,0-1.12,1.12,1.119,1.119,0,0,0,1.12-1.12" transform="translate(16.701 -47.07)" fill="#7f4fc7"/>
        <path id="Trazado_194862" data-name="Trazado 194862" d="M2.24,87.544a1.12,1.12,0,1,0-1.12,1.121,1.119,1.119,0,0,0,1.12-1.121" transform="translate(0 -44.983)" fill="#7f4fc7"/>
        <path id="Trazado_194863" data-name="Trazado 194863" d="M10.512,87.544a1.12,1.12,0,1,0-1.12,1.121,1.119,1.119,0,0,0,1.12-1.121" transform="translate(2.087 -44.983)" fill="#7f4fc7"/>
        <path id="Trazado_194864" data-name="Trazado 194864" d="M18.785,87.544a1.12,1.12,0,1,0-1.12,1.121,1.119,1.119,0,0,0,1.12-1.121" transform="translate(4.175 -44.983)" fill="#7f4fc7"/>
        <path id="Trazado_194865" data-name="Trazado 194865" d="M27.058,87.544a1.12,1.12,0,1,0-1.12,1.121,1.119,1.119,0,0,0,1.12-1.121" transform="translate(6.263 -44.983)" fill="#7f4fc7"/>
        <path id="Trazado_194866" data-name="Trazado 194866" d="M35.33,87.544a1.12,1.12,0,1,0-1.12,1.121,1.119,1.119,0,0,0,1.12-1.121" transform="translate(8.35 -44.983)" fill="#7f4fc7"/>
        <path id="Trazado_194867" data-name="Trazado 194867" d="M43.6,87.544a1.12,1.12,0,1,0-1.12,1.121,1.119,1.119,0,0,0,1.12-1.121" transform="translate(10.438 -44.983)" fill="#7f4fc7"/>
        <path id="Trazado_194868" data-name="Trazado 194868" d="M51.875,87.544a1.12,1.12,0,1,0-1.12,1.121,1.119,1.119,0,0,0,1.12-1.121" transform="translate(12.525 -44.983)" fill="#7f4fc7"/>
        <path id="Trazado_194869" data-name="Trazado 194869" d="M60.148,87.544a1.12,1.12,0,1,0-1.12,1.121,1.12,1.12,0,0,0,1.12-1.121" transform="translate(14.613 -44.983)" fill="#7f4fc7"/>
        <path id="Trazado_194870" data-name="Trazado 194870" d="M68.421,87.544a1.12,1.12,0,1,0-1.12,1.121,1.119,1.119,0,0,0,1.12-1.121" transform="translate(16.701 -44.983)" fill="#7f4fc7"/>
        <path id="Trazado_194871" data-name="Trazado 194871" d="M2.24,95.817a1.12,1.12,0,1,0-1.12,1.12,1.119,1.119,0,0,0,1.12-1.12" transform="translate(0 -42.895)" fill="#7f4fc7"/>
        <path id="Trazado_194872" data-name="Trazado 194872" d="M10.512,95.817a1.12,1.12,0,1,0-1.12,1.12,1.119,1.119,0,0,0,1.12-1.12" transform="translate(2.087 -42.895)" fill="#7f4fc7"/>
        <path id="Trazado_194873" data-name="Trazado 194873" d="M18.785,95.817a1.12,1.12,0,1,0-1.12,1.12,1.119,1.119,0,0,0,1.12-1.12" transform="translate(4.175 -42.895)" fill="#7f4fc7"/>
        <path id="Trazado_194874" data-name="Trazado 194874" d="M27.058,95.817a1.12,1.12,0,1,0-1.12,1.12,1.119,1.119,0,0,0,1.12-1.12" transform="translate(6.263 -42.895)" fill="#7f4fc7"/>
        <path id="Trazado_194875" data-name="Trazado 194875" d="M35.33,95.817a1.12,1.12,0,1,0-1.12,1.12,1.119,1.119,0,0,0,1.12-1.12" transform="translate(8.35 -42.895)" fill="#7f4fc7"/>
        <path id="Trazado_194876" data-name="Trazado 194876" d="M43.6,95.817a1.12,1.12,0,1,0-1.12,1.12,1.119,1.119,0,0,0,1.12-1.12" transform="translate(10.438 -42.895)" fill="#7f4fc7"/>
        <path id="Trazado_194877" data-name="Trazado 194877" d="M51.875,95.817a1.12,1.12,0,1,0-1.12,1.12,1.119,1.119,0,0,0,1.12-1.12" transform="translate(12.525 -42.895)" fill="#7f4fc7"/>
        <path id="Trazado_194878" data-name="Trazado 194878" d="M60.148,95.817a1.12,1.12,0,1,0-1.12,1.12,1.12,1.12,0,0,0,1.12-1.12" transform="translate(14.613 -42.895)" fill="#7f4fc7"/>
        <path id="Trazado_194879" data-name="Trazado 194879" d="M68.421,95.817a1.12,1.12,0,1,0-1.12,1.12,1.119,1.119,0,0,0,1.12-1.12" transform="translate(16.701 -42.895)" fill="#7f4fc7"/>
        <path id="Trazado_194880" data-name="Trazado 194880" d="M2.24,104.089a1.12,1.12,0,1,0-1.12,1.12,1.119,1.119,0,0,0,1.12-1.12" transform="translate(0 -40.807)" fill="#7f4fc7"/>
        <path id="Trazado_194881" data-name="Trazado 194881" d="M10.512,104.089a1.12,1.12,0,1,0-1.12,1.12,1.119,1.119,0,0,0,1.12-1.12" transform="translate(2.087 -40.807)" fill="#7f4fc7"/>
        <path id="Trazado_194882" data-name="Trazado 194882" d="M18.785,104.089a1.12,1.12,0,1,0-1.12,1.12,1.119,1.119,0,0,0,1.12-1.12" transform="translate(4.175 -40.807)" fill="#7f4fc7"/>
        <path id="Trazado_194883" data-name="Trazado 194883" d="M27.058,104.089a1.12,1.12,0,1,0-1.12,1.12,1.119,1.119,0,0,0,1.12-1.12" transform="translate(6.263 -40.807)" fill="#7f4fc7"/>
        <path id="Trazado_194884" data-name="Trazado 194884" d="M35.33,104.089a1.12,1.12,0,1,0-1.12,1.12,1.119,1.119,0,0,0,1.12-1.12" transform="translate(8.35 -40.807)" fill="#7f4fc7"/>
        <path id="Trazado_194885" data-name="Trazado 194885" d="M43.6,104.089a1.12,1.12,0,1,0-1.12,1.12,1.119,1.119,0,0,0,1.12-1.12" transform="translate(10.438 -40.807)" fill="#7f4fc7"/>
        <path id="Trazado_194886" data-name="Trazado 194886" d="M51.875,104.089a1.12,1.12,0,1,0-1.12,1.12,1.119,1.119,0,0,0,1.12-1.12" transform="translate(12.525 -40.807)" fill="#7f4fc7"/>
        <path id="Trazado_194887" data-name="Trazado 194887" d="M60.148,104.089a1.12,1.12,0,1,0-1.12,1.12,1.12,1.12,0,0,0,1.12-1.12" transform="translate(14.613 -40.807)" fill="#7f4fc7"/>
        <path id="Trazado_194888" data-name="Trazado 194888" d="M68.421,104.089a1.12,1.12,0,1,0-1.12,1.12,1.119,1.119,0,0,0,1.12-1.12" transform="translate(16.701 -40.807)" fill="#7f4fc7"/>
        <path id="Trazado_194889" data-name="Trazado 194889" d="M2.24,112.362a1.12,1.12,0,1,0-1.12,1.12,1.119,1.119,0,0,0,1.12-1.12" transform="translate(0 -38.72)" fill="#7f4fc7"/>
        <path id="Trazado_194890" data-name="Trazado 194890" d="M10.512,112.362a1.12,1.12,0,1,0-1.12,1.12,1.119,1.119,0,0,0,1.12-1.12" transform="translate(2.087 -38.72)" fill="#7f4fc7"/>
        <path id="Trazado_194891" data-name="Trazado 194891" d="M18.785,112.362a1.12,1.12,0,1,0-1.12,1.12,1.119,1.119,0,0,0,1.12-1.12" transform="translate(4.175 -38.72)" fill="#7f4fc7"/>
        <path id="Trazado_194892" data-name="Trazado 194892" d="M27.058,112.362a1.12,1.12,0,1,0-1.12,1.12,1.119,1.119,0,0,0,1.12-1.12" transform="translate(6.263 -38.72)" fill="#7f4fc7"/>
        <path id="Trazado_194893" data-name="Trazado 194893" d="M35.33,112.362a1.12,1.12,0,1,0-1.12,1.12,1.119,1.119,0,0,0,1.12-1.12" transform="translate(8.35 -38.72)" fill="#7f4fc7"/>
        <path id="Trazado_194894" data-name="Trazado 194894" d="M43.6,112.362a1.12,1.12,0,1,0-1.12,1.12,1.119,1.119,0,0,0,1.12-1.12" transform="translate(10.438 -38.72)" fill="#7f4fc7"/>
        <path id="Trazado_194895" data-name="Trazado 194895" d="M51.875,112.362a1.12,1.12,0,1,0-1.12,1.12,1.119,1.119,0,0,0,1.12-1.12" transform="translate(12.525 -38.72)" fill="#7f4fc7"/>
        <path id="Trazado_194896" data-name="Trazado 194896" d="M60.148,112.362a1.12,1.12,0,1,0-1.12,1.12,1.12,1.12,0,0,0,1.12-1.12" transform="translate(14.613 -38.72)" fill="#7f4fc7"/>
        <path id="Trazado_194897" data-name="Trazado 194897" d="M68.421,112.362a1.12,1.12,0,1,0-1.12,1.12,1.119,1.119,0,0,0,1.12-1.12" transform="translate(16.701 -38.72)" fill="#7f4fc7"/>
        <path id="Trazado_194898" data-name="Trazado 194898" d="M2.24,120.634a1.12,1.12,0,1,0-1.12,1.12,1.119,1.119,0,0,0,1.12-1.12" transform="translate(0 -36.632)" fill="#7f4fc7"/>
        <path id="Trazado_194899" data-name="Trazado 194899" d="M10.512,120.634a1.12,1.12,0,1,0-1.12,1.12,1.119,1.119,0,0,0,1.12-1.12" transform="translate(2.087 -36.632)" fill="#7f4fc7"/>
        <path id="Trazado_194900" data-name="Trazado 194900" d="M18.785,120.634a1.12,1.12,0,1,0-1.12,1.12,1.119,1.119,0,0,0,1.12-1.12" transform="translate(4.175 -36.632)" fill="#7f4fc7"/>
        <path id="Trazado_194901" data-name="Trazado 194901" d="M27.058,120.634a1.12,1.12,0,1,0-1.12,1.12,1.119,1.119,0,0,0,1.12-1.12" transform="translate(6.263 -36.632)" fill="#7f4fc7"/>
        <path id="Trazado_194902" data-name="Trazado 194902" d="M35.33,120.634a1.12,1.12,0,1,0-1.12,1.12,1.119,1.119,0,0,0,1.12-1.12" transform="translate(8.35 -36.632)" fill="#7f4fc7"/>
        <path id="Trazado_194903" data-name="Trazado 194903" d="M43.6,120.634a1.12,1.12,0,1,0-1.12,1.12,1.119,1.119,0,0,0,1.12-1.12" transform="translate(10.438 -36.632)" fill="#7f4fc7"/>
        <path id="Trazado_194904" data-name="Trazado 194904" d="M51.875,120.634a1.12,1.12,0,1,0-1.12,1.12,1.119,1.119,0,0,0,1.12-1.12" transform="translate(12.525 -36.632)" fill="#7f4fc7"/>
        <path id="Trazado_194905" data-name="Trazado 194905" d="M60.148,120.634a1.12,1.12,0,1,0-1.12,1.12,1.12,1.12,0,0,0,1.12-1.12" transform="translate(14.613 -36.632)" fill="#7f4fc7"/>
        <path id="Trazado_194906" data-name="Trazado 194906" d="M68.421,120.634a1.12,1.12,0,1,0-1.12,1.12,1.119,1.119,0,0,0,1.12-1.12" transform="translate(16.701 -36.632)" fill="#7f4fc7"/>
      </g>
    </g>
    <g id="Grupo_154314" data-name="Grupo 154314" transform="translate(1178.817 3991.907)">
      <g id="Grupo_152551" data-name="Grupo 152551" transform="translate(0 86.688) rotate(-90)">
        <rect id="Rectángulo_45220" data-name="Rectángulo 45220" width="77.573" height="21.564" transform="translate(78.115 21.564) rotate(180)" fill="#e8e8e8"/>
        <g id="Grupo_152556" data-name="Grupo 152556" transform="translate(0 11.945)">
          <rect id="Rectángulo_45221" data-name="Rectángulo 45221" width="3.664" height="3.664" transform="translate(83.023 15.573)" fill="#1894f6"/>
          <rect id="Rectángulo_45222" data-name="Rectángulo 45222" width="3.664" height="3.664" transform="translate(75.237 15.573)" fill="#1894f6"/>
          <rect id="Rectángulo_45223" data-name="Rectángulo 45223" width="3.664" height="3.664" transform="translate(66.419 15.573)" fill="#1894f6"/>
          <rect id="Rectángulo_45224" data-name="Rectángulo 45224" width="3.664" height="3.664" transform="translate(58.117 15.573)" fill="#1894f6"/>
          <rect id="Rectángulo_45225" data-name="Rectángulo 45225" width="3.664" height="3.664" transform="translate(49.814 15.573)" fill="#1894f6"/>
          <rect id="Rectángulo_45226" data-name="Rectángulo 45226" width="3.664" height="3.664" transform="translate(41.512 15.573)" fill="#1894f6"/>
          <rect id="Rectángulo_45227" data-name="Rectángulo 45227" width="3.664" height="3.664" transform="translate(33.209 15.573)" fill="#1894f6"/>
          <rect id="Rectángulo_45228" data-name="Rectángulo 45228" width="3.664" height="3.664" transform="translate(24.907 15.573)" fill="#1894f6"/>
          <rect id="Rectángulo_45229" data-name="Rectángulo 45229" width="3.664" height="3.664" transform="translate(16.605 15.573)" fill="#1894f6"/>
          <rect id="Rectángulo_45230" data-name="Rectángulo 45230" width="3.664" height="3.664" transform="translate(7.787 15.573)" fill="#1894f6"/>
          <rect id="Rectángulo_45231" data-name="Rectángulo 45231" width="3.664" height="3.664" transform="translate(0 15.573)" fill="#1894f6"/>
          <rect id="Rectángulo_45232" data-name="Rectángulo 45232" width="3.664" height="3.664" transform="translate(83.023 7.787)" fill="#1894f6"/>
          <rect id="Rectángulo_45233" data-name="Rectángulo 45233" width="3.664" height="3.664" transform="translate(75.237 7.787)" fill="#1894f6"/>
          <rect id="Rectángulo_45234" data-name="Rectángulo 45234" width="3.664" height="3.664" transform="translate(66.419 7.787)" fill="#1894f6"/>
          <rect id="Rectángulo_45235" data-name="Rectángulo 45235" width="3.664" height="3.664" transform="translate(58.117 7.787)" fill="#1894f6"/>
          <rect id="Rectángulo_45236" data-name="Rectángulo 45236" width="3.664" height="3.664" transform="translate(49.814 7.787)" fill="#1894f6"/>
          <rect id="Rectángulo_45237" data-name="Rectángulo 45237" width="3.664" height="3.664" transform="translate(41.512 7.787)" fill="#1894f6"/>
          <rect id="Rectángulo_45238" data-name="Rectángulo 45238" width="3.664" height="3.664" transform="translate(33.209 7.787)" fill="#1894f6"/>
          <rect id="Rectángulo_45239" data-name="Rectángulo 45239" width="3.664" height="3.664" transform="translate(24.907 7.787)" fill="#1894f6"/>
          <rect id="Rectángulo_45240" data-name="Rectángulo 45240" width="3.664" height="3.664" transform="translate(16.605 7.787)" fill="#1894f6"/>
          <rect id="Rectángulo_45241" data-name="Rectángulo 45241" width="3.664" height="3.664" transform="translate(7.787 7.787)" fill="#1894f6"/>
          <rect id="Rectángulo_45242" data-name="Rectángulo 45242" width="3.664" height="3.664" transform="translate(0 7.787)" fill="#1894f6"/>
          <rect id="Rectángulo_45243" data-name="Rectángulo 45243" width="3.664" height="3.664" transform="translate(83.023)" fill="#1894f6"/>
          <rect id="Rectángulo_45244" data-name="Rectángulo 45244" width="3.664" height="3.664" transform="translate(75.237)" fill="#1894f6"/>
          <rect id="Rectángulo_45245" data-name="Rectángulo 45245" width="3.664" height="3.664" transform="translate(66.419)" fill="#1894f6"/>
          <rect id="Rectángulo_45246" data-name="Rectángulo 45246" width="3.664" height="3.664" transform="translate(58.117)" fill="#1894f6"/>
          <rect id="Rectángulo_45247" data-name="Rectángulo 45247" width="3.664" height="3.664" transform="translate(49.814)" fill="#1894f6"/>
          <rect id="Rectángulo_45248" data-name="Rectángulo 45248" width="3.664" height="3.664" transform="translate(41.512)" fill="#1894f6"/>
          <rect id="Rectángulo_45249" data-name="Rectángulo 45249" width="3.664" height="3.664" transform="translate(33.209)" fill="#1894f6"/>
          <rect id="Rectángulo_45250" data-name="Rectángulo 45250" width="3.664" height="3.664" transform="translate(24.907)" fill="#1894f6"/>
          <rect id="Rectángulo_45251" data-name="Rectángulo 45251" width="3.664" height="3.664" transform="translate(16.605)" fill="#1894f6"/>
          <rect id="Rectángulo_45252" data-name="Rectángulo 45252" width="3.664" height="3.664" transform="translate(7.787)" fill="#1894f6"/>
          <rect id="Rectángulo_45253" data-name="Rectángulo 45253" width="3.664" height="3.664" fill="#1894f6"/>
        </g>
      </g>
    </g>
    <g id="Grupo_154307" data-name="Grupo 154307" transform="translate(977.288 3939.659)">
      <path id="Trazado_196272" data-name="Trazado 196272" d="M255.584,390.679A71.319,71.319,0,0,1,266.406,406.7c6.7,13.6,7.494,35.672,7.359,42.941H235.9c-.14-3.1-.279-15.6-.418-18.7-2.853,1.506-13.788,17.017-15.369,18.68H175.07c8.936-12.077,24.523-29.8,35.5-38.672-.794-4.329-1.587-7.495-2.381-11.824l47.4-8.441" transform="translate(-137.263 -306.311)" fill="#363e44"/>
      <path id="Trazado_196273" data-name="Trazado 196273" d="M44.476,249.553C32.65,251.751-1.866,256,.079,270.475,1.688,282.445,35.12,276.82,47,275.4q-1.264-12.923-2.529-25.846" transform="translate(0 -195.661)" fill="#e2a18d"/>
      <path id="Trazado_196274" data-name="Trazado 196274" d="M203,228.6l-3.9,29,70.125-16.882-12.986-19.479,13.419-.866-.433-28.137-86.141,12.12,1.3,29.868Z" transform="translate(-143.551 -150.723)" fill="#7f4fc7"/>
      <path id="Trazado_196275" data-name="Trazado 196275" d="M509.315,212.81c3.97.141,30.991-.98,34.454,5.946,3.637,7.274-16.183,38.27-22.942,46.858a10.966,10.966,0,0,1-3.571,5.086c-2.321,1.759-3.754,1.122-6.493,2.6-4.622,2.49-5.033,6.887-6.791,6.279-1.207-.417-1.079-2.989-.352-5.305.747-2.378,2.23-3.6,1.948-3.9-.309-.324-1.656,1.114-3.494,2.748-.854.759-1.915,4.288-3.648,3.961-1.381-.261-1.2-4.205.754-7.045,1.379-2.009,3.665-2.62,3.467-3.019-.149-.3-1.5.1-2.565.789-1.756,1.139-2.88,4.737-4.469,4.405-1.557-.325-1.334-3.768.294-6.493,1.372-2.3,3.954-2.858,3.71-3.354-.171-.349-1.379-.339-3.787.433-2.01.644-5.5,3.194-6.493,1.19-.831-1.685,2.775-4.449,6.57-6.382,2.515-1.281,5.209-2.283,6.741-2.925a19.656,19.656,0,0,0-3.463-1.731c-2.744-1.048-3.865-1.066-4.072-2.378-.214-1.352,2.069-1.893,4.733-1.815,3.177.093,5.409,1.424,6.807,1.92l8.333-15.15c-1.515.108-3.8.193-5.318.3-.071-7.212-.352-14.655-.35-23.021" transform="translate(-383.567 -166.853)" fill="#e2a18d"/>
      <path id="Trazado_196276" data-name="Trazado 196276" d="M607.919,276.963a.216.216,0,0,1-.191-.317l5.765-10.96a.216.216,0,1,1,.382.2l-5.765,10.96a.216.216,0,0,1-.191.115" transform="translate(-476.468 -208.22)" fill="#363e44"/>
      <path id="Trazado_196277" data-name="Trazado 196277" d="M281.29,319.572a.211.211,0,0,1-.038,0,.216.216,0,0,1-.175-.251l1.234-6.927a.216.216,0,0,1,.425.076l-1.234,6.927a.215.215,0,0,1-.212.178" transform="translate(-220.375 -244.79)" fill="#fff"/>
      <path id="Trazado_196278" data-name="Trazado 196278" d="M270.163,317.547a.2.2,0,0,1-.038,0,.216.216,0,0,1-.175-.251l1.234-6.927a.216.216,0,1,1,.425.076l-1.234,6.927a.216.216,0,0,1-.212.178" transform="translate(-211.651 -243.202)" fill="#fff"/>
      <path id="Trazado_196279" data-name="Trazado 196279" d="M250.594,327.71a3.74,3.74,0,0,1-3.675-4.434l3.861-20.423a1.742,1.742,0,0,1,2.036-1.389l3.923.742a1.743,1.743,0,0,1,1.389,2.036l-3.861,20.423a3.746,3.746,0,0,1-3.672,3.045m1.9-25.845a1.312,1.312,0,0,0-1.285,1.068l-3.861,20.423a3.307,3.307,0,1,0,6.5,1.229l3.861-20.423a1.311,1.311,0,0,0-1.045-1.532l-3.922-.742a1.341,1.341,0,0,0-.246-.023" transform="translate(-193.544 -236.338)" fill="#fff"/>
      <path id="Trazado_196280" data-name="Trazado 196280" d="M277.439,218.316l-4.353-.823,4.475-23.669,4.353.823Zm-3.848-1.167,3.5.663,4.315-22.82-3.5-.663Z" transform="translate(-214.112 -151.967)" fill="#fff"/>
      <path id="Trazado_196281" data-name="Trazado 196281" d="M19.175,300.117c9.9,2.079,33.448,5.821,35.732,6.278,4.27.854,13.421,2.421,13.451,5.409a3.075,3.075,0,0,1-1.686,2.557,3.11,3.11,0,0,1,.62,3.384,3.253,3.253,0,0,1-2.348,1.76,2.609,2.609,0,0,1,1,2.451,2.732,2.732,0,0,1-3,2.036,3.053,3.053,0,0,1,.033,2.209A3.205,3.205,0,0,1,60,328.1c-3.795-.756-9.9-.967-17.192-1.665-17.121-1.639-24.686-3.088-32.813-5.377A13.64,13.64,0,0,1,.246,309.9c6.354-3.3,12.575-6.481,18.929-9.781" transform="translate(-0.193 -235.306)" fill="#e2a18d"/>
      <path id="Trazado_196282" data-name="Trazado 196282" d="M106.334,301.275a.234.234,0,0,1-.044,0c-2.021-.415-6.5-1.3-10.824-2.146s-8.805-1.731-10.827-2.147a.216.216,0,1,1,.087-.423c2.021.415,6.5,1.3,10.824,2.146s8.805,1.731,10.827,2.147a.216.216,0,0,1-.043.427" transform="translate(-66.226 -232.509)" fill="#363e44"/>
      <path id="Trazado_196283" data-name="Trazado 196283" d="M285.716,347.608a.216.216,0,0,1-.209-.272l.5-1.85a.216.216,0,0,1,.417.112l-.5,1.85a.216.216,0,0,1-.208.16" transform="translate(-223.846 -270.751)" fill="#363e44"/>
      <path id="Trazado_196284" data-name="Trazado 196284" d="M279.894,369.359a.219.219,0,0,1-.056-.007.216.216,0,0,1-.152-.265l.5-1.85a.216.216,0,0,1,.417.112l-.5,1.851a.216.216,0,0,1-.208.16" transform="translate(-219.281 -287.805)" fill="#363e44"/>
      <path id="Trazado_196285" data-name="Trazado 196285" d="M274.209,391.572a.219.219,0,0,1-.056-.007A.216.216,0,0,1,274,391.3l.5-1.85a.216.216,0,0,1,.417.112l-.5,1.851a.216.216,0,0,1-.208.16" transform="translate(-214.823 -305.221)" fill="#363e44"/>
      <path id="Trazado_196286" data-name="Trazado 196286" d="M268.639,411.613a.219.219,0,0,1-.056-.007.216.216,0,0,1-.152-.265l.5-1.85a.216.216,0,0,1,.417.112l-.5,1.85a.216.216,0,0,1-.208.16" transform="translate(-210.456 -320.934)" fill="#363e44"/>
      <path id="Trazado_196287" data-name="Trazado 196287" d="M363.26,9.964A9.964,9.964,0,1,1,353.3,0a9.964,9.964,0,0,1,9.964,9.964" transform="translate(-269.188)" fill="#363e44"/>
      <path id="Trazado_196288" data-name="Trazado 196288" d="M393.058,80.006c8.14.693,11.324,3.773,12.662,6.168,2.6,4.653,1.1,7.855,3.571,13.96a22.491,22.491,0,0,0,8.441,9.956,24.625,24.625,0,0,1-19.7,6.818,65.975,65.975,0,0,0-4.978-36.9" transform="translate(-308.176 -62.728)" fill="#363e44"/>
      <path id="Trazado_196289" data-name="Trazado 196289" d="M350.892,89.538c.547-.053,5.788-.482,8.946,3.1,2.349,2.667,2.632,6.091,2.236,11.9-.465,6.846-1.7,10.873-3.67,12.225-3.114,2.135-12.444-2.64-15.953-8.618a13.784,13.784,0,0,1,.433-14.14c2.669-4.257,7.659-4.439,8.008-4.473" transform="translate(-267.129 -70.169)" fill="#e2a18d"/>
      <path id="Trazado_196290" data-name="Trazado 196290" d="M366.429,202.169h0a5.03,5.03,0,0,1-5.03-5.03V192.4a5.03,5.03,0,0,1,10.061,0v4.743a5.03,5.03,0,0,1-5.03,5.03" transform="translate(-283.354 -146.904)" fill="#e2a18d"/>
      <path id="Trazado_196291" data-name="Trazado 196291" d="M362.2,185.5a8.568,8.568,0,0,1-1.856-.228c-4.066-.911-9.829-4.506-12.434-8.945a.216.216,0,1,1,.372-.218c2.546,4.337,8.18,7.851,12.156,8.742a4.684,4.684,0,0,0,3.552-.226.216.216,0,1,1,.244.357,3.578,3.578,0,0,1-2.034.518" transform="translate(-272.75 -137.993)" fill="#363e44"/>
      <path id="Trazado_196292" data-name="Trazado 196292" d="M361.517,85.335c2.1,4.733-5.3,9.644-11.814,7.793-3.809-1.082-7.365-5.035-6.583-7.437,1.345-4.134,16.242-5.216,18.4-.356" transform="translate(-268.936 -64.385)" fill="#363e44"/>
      <path id="Trazado_196293" data-name="Trazado 196293" d="M444.248,129.815a9.07,9.07,0,0,1-2.066,3.4c-.316.316-2.253-2.824-1.807-2.981a9.09,9.09,0,0,1,3.873-.415" transform="translate(-345.222 -101.739)" fill="#fff"/>
      <path id="Trazado_196294" data-name="Trazado 196294" d="M419.949,136.842a8.529,8.529,0,0,0,5.193-1.053,6.392,6.392,0,0,0,1.076-.871,3.565,3.565,0,0,0-1.806-2.98,6.428,6.428,0,0,0-1.32.637,8.527,8.527,0,0,0-3.143,4.267" transform="translate(-329.26 -103.446)" fill="#363e44"/>
      <path id="Trazado_196295" data-name="Trazado 196295" d="M252.424,66.774a22.645,22.645,0,1,1-22.645-22.645,22.645,22.645,0,0,1,22.645,22.645" transform="translate(-162.403 -34.599)" fill="#e2a18d"/>
      <path id="Trazado_196296" data-name="Trazado 196296" d="M229,88.851A22.86,22.86,0,1,1,251.856,65.99,22.767,22.767,0,0,1,229,88.851m0-45.289A22.454,22.454,0,0,0,206.567,65.99,22.428,22.428,0,0,0,229,88.419a22.429,22.429,0,1,0,0-44.857" transform="translate(-161.619 -33.816)" fill="#fff"/>
      <path id="Trazado_196297" data-name="Trazado 196297" d="M268.24,221.437a19.02,19.02,0,0,1-11.97-4.18.216.216,0,0,1,.269-.338,18.811,18.811,0,0,0,20,2.157.216.216,0,1,1,.191.387,19.03,19.03,0,0,1-8.495,1.974" transform="translate(-200.864 -170.038)" fill="#fff"/>
      <path id="Trazado_196298" data-name="Trazado 196298" d="M376.653,92.968a.216.216,0,0,1-.208-.159,18.771,18.771,0,0,0-5.308-8.783.216.216,0,1,1,.295-.316,19.2,19.2,0,0,1,5.429,8.985.216.216,0,0,1-.208.273" transform="translate(-290.935 -65.587)" fill="#fff"/>
      <path id="Trazado_196299" data-name="Trazado 196299" d="M292.262,63.356a.216.216,0,0,1-.116-.034,18.823,18.823,0,0,0-18.009-1.174.216.216,0,1,1-.183-.391,19.255,19.255,0,0,1,18.423,1.2.216.216,0,0,1-.116.4" transform="translate(-214.696 -47.015)" fill="#fff"/>
      <path id="Trazado_196300" data-name="Trazado 196300" d="M232.533,184.773a.216.216,0,0,1-.155-.065,19.354,19.354,0,0,1-4.346-6.976.216.216,0,0,1,.407-.145,18.924,18.924,0,0,0,4.248,6.82.216.216,0,0,1-.155.366" transform="translate(-178.778 -139.124)" fill="#fff"/>
      <path id="Trazado_196301" data-name="Trazado 196301" d="M343.629,134.117a35.3,35.3,0,0,1-15.013,3.661c-1.746,0,1.548-13.971,3.205-13.18a35.379,35.379,0,0,1,11.808,9.519" transform="translate(-257.261 -97.665)" fill="#fff"/>
      <path id="Trazado_196302" data-name="Trazado 196302" d="M251.712,115.854a25.046,25.046,0,0,0-5.394-1.881c-10.377-2.292-20.389,3.093-20.389,3.093s6.812,9.1,17.189,11.394a24.9,24.9,0,0,0,5.37.568,13.89,13.89,0,0,0,3.224-13.173" transform="translate(-177.139 -88.915)" fill="#363e44"/>
      <rect id="Rectángulo_45983" data-name="Rectángulo 45983" width="32.563" height="39.099" transform="translate(30.012 123.896)" fill="#c5e5fe"/>
      <rect id="Rectángulo_45984" data-name="Rectángulo 45984" width="32.563" height="59.797" transform="translate(75.164 103.198)" fill="#c5e5fe"/>
      <path id="Trazado_196303" data-name="Trazado 196303" d="M264.778,618.542a.216.216,0,0,1-.216-.216V583.843a.216.216,0,1,1,.432,0v34.483a.216.216,0,0,1-.216.216" transform="translate(-207.429 -457.591)" fill="#776e42"/>
      <rect id="Rectángulo_45985" data-name="Rectángulo 45985" width="32.563" height="84.604" transform="translate(120.317 78.391)" fill="#c5e5fe"/>
      <path id="Trazado_196304" data-name="Trazado 196304" d="M682.946,453.33a.216.216,0,0,1-.216-.216V373.126a.216.216,0,1,1,.432,0v79.988a.216.216,0,0,1-.216.216" transform="translate(-535.293 -292.379)" fill="#776e42"/>
      <path id="Trazado_196305" data-name="Trazado 196305" d="M473.078,542.97a.216.216,0,0,1-.216-.216v-55.3a.216.216,0,0,1,.432,0v55.3a.216.216,0,0,1-.216.216" transform="translate(-370.746 -382.019)" fill="#776e42"/>
    </g>
    <g id="Grupo_154309" data-name="Grupo 154309" transform="translate(915 3975.861)">
      <g id="Grupo_154308" data-name="Grupo 154308" transform="translate(176.685 33.783)" clip-path="url(#clip-path-2)">
        <path id="Trazado_196306" data-name="Trazado 196306" d="M60.909,164.2a.24.24,0,0,1-.039,0L30.9,159.225.279,164.2a.238.238,0,0,1-.194-.054A.241.241,0,0,1,0,163.961V123.407a.24.24,0,0,1,.24-.24H5.624l1.659-2.593a.241.241,0,0,1,.2-.111H18.549a.241.241,0,0,1,.208.119l1.52,2.585H60.909a.24.24,0,0,1,.24.24v40.554a.241.241,0,0,1-.24.24M.481,123.648v40.031l30.381-4.934a.25.25,0,0,1,.078,0l29.728,4.933v-40.03H20.139a.24.24,0,0,1-.207-.119l-1.52-2.585H7.618l-1.66,2.593a.241.241,0,0,1-.2.111Z" transform="translate(0 -91.493)" fill="#12263f"/>
        <path id="Trazado_196307" data-name="Trazado 196307" d="M82.641,51.08H40.733a.24.24,0,0,1-.24-.24V12.683a.242.242,0,0,1,.071-.171L53.054.071a.24.24,0,0,1,.17-.07H82.641a.24.24,0,0,1,.241.24v50.6a.24.24,0,0,1-.241.24M40.974,50.6H82.4V.482H53.323l-12.349,12.3Z" transform="translate(-30.755 -0.001)" fill="#12263f"/>
        <path id="Trazado_196308" data-name="Trazado 196308" d="M60.293,19.055H50.04a.24.24,0,1,1,0-.481H60.052V8.314a.24.24,0,1,1,.481,0v10.5a.24.24,0,0,1-.24.24" transform="translate(-37.824 -6.132)" fill="#12263f"/>
        <path id="Trazado_196309" data-name="Trazado 196309" d="M148.682,89.507H106.774a.24.24,0,0,1-.24-.24V51.11a.242.242,0,0,1,.071-.171L119.1,38.5a.24.24,0,0,1,.17-.07h29.417a.24.24,0,0,1,.24.24v50.6a.24.24,0,0,1-.24.24m-41.667-.481h41.427V38.909H119.364l-12.349,12.3Z" transform="translate(-80.914 -29.187)" fill="#12263f"/>
        <path id="Trazado_196310" data-name="Trazado 196310" d="M126.156,59.754H115.848a.24.24,0,1,1,0-.481h10.068v-9.54a.24.24,0,1,1,.481,0v9.781a.24.24,0,0,1-.24.24" transform="translate(-87.805 -37.59)" fill="#12263f"/>
        <path id="Trazado_196311" data-name="Trazado 196311" d="M61.5,164.721H.836L24.25,124.167h5.515l3.291-2.7H44.119l.029,2.7h40.77Z" transform="translate(-0.635 -92.254)" fill="#12263f"/>
      </g>
      <g id="Grupo_154312" data-name="Grupo 154312" transform="translate(0 0)">
        <path id="Trazado_196312" data-name="Trazado 196312" d="M84.282,77.136H.546A.546.546,0,0,1,0,76.59V21.638a.546.546,0,1,1,1.093,0V76.044H84.282a.546.546,0,1,1,0,1.093" transform="translate(0 -9.57)" fill="#d3bba3"/>
        <path id="Trazado_196313" data-name="Trazado 196313" d="M98.9,49.985a.546.546,0,0,1-.281-1.015l9.946-5.944a.546.546,0,0,1,.56.938l-9.946,5.944a.542.542,0,0,1-.28.078" transform="translate(-44.629 -19.488)" fill="#d3bba3"/>
        <path id="Trazado_196314" data-name="Trazado 196314" d="M76.183,34.972a.545.545,0,0,1-.457-.246L62.249,14.21a.546.546,0,1,1,.913-.6L76.639,34.125a.546.546,0,0,1-.456.846" transform="translate(-28.205 -6.064)" fill="#d3bba3"/>
        <path id="Trazado_196315" data-name="Trazado 196315" d="M32.8,20.917a.546.546,0,0,1-.334-.978L42.931,11.85a.546.546,0,1,1,.668.864L33.13,20.8a.541.541,0,0,1-.333.114" transform="translate(-14.633 -5.325)" fill="#d3bba3"/>
        <path id="Trazado_196316" data-name="Trazado 196316" d="M27.765,28.9a4.317,4.317,0,1,1-4.317-4.317A4.317,4.317,0,0,1,27.765,28.9" transform="translate(-8.681 -11.156)" fill="#7f4fc7"/>
        <path id="Trazado_196317" data-name="Trazado 196317" d="M59.627,4.317A4.317,4.317,0,1,1,55.31,0a4.317,4.317,0,0,1,4.317,4.317" transform="translate(-23.138)" fill="#7f4fc7"/>
        <path id="Trazado_196318" data-name="Trazado 196318" d="M93.128,55.024a4.317,4.317,0,1,1-4.317-4.317,4.317,4.317,0,0,1,4.317,4.317" transform="translate(-38.339 -23.008)" fill="#7f4fc7"/>
        <path id="Trazado_196319" data-name="Trazado 196319" d="M125.244,36.592a4.317,4.317,0,1,1-4.317-4.317,4.317,4.317,0,0,1,4.317,4.317" transform="translate(-52.911 -14.645)" fill="#7f4fc7"/>
        <rect id="Rectángulo_45987" data-name="Rectángulo 45987" width="10.736" height="29.438" transform="translate(9.667 28.923)" fill="#12263f"/>
        <rect id="Rectángulo_45988" data-name="Rectángulo 45988" width="10.736" height="35.303" transform="translate(27.384 23.058)" fill="#12263f"/>
        <rect id="Rectángulo_45989" data-name="Rectángulo 45989" width="10.736" height="19.024" transform="translate(45.101 39.337)" fill="#12263f"/>
        <rect id="Rectángulo_45990" data-name="Rectángulo 45990" width="10.736" height="24.487" transform="translate(62.819 33.874)" fill="#12263f"/>
      </g>
    </g>
    <g id="Grupo_154317" data-name="Grupo 154317" transform="translate(919.59 4071.483)">
      <g id="Grupo_154315" data-name="Grupo 154315" transform="translate(31.911 9.281)">
        <path id="Trazado_195058" data-name="Trazado 195058" d="M13.976,225.7H53.349a1.476,1.476,0,1,0,0-2.951H13.976a1.476,1.476,0,0,0,0,2.951" transform="translate(-12.5 -222.751)" fill="#3cafff"/>
        <path id="Trazado_195059" data-name="Trazado 195059" d="M83.937,225.7h9.94a1.476,1.476,0,0,0,0-2.951h-9.94a1.476,1.476,0,1,0,0,2.951" transform="translate(-36.515 -222.751)" fill="#3cafff"/>
        <path id="Trazado_195064" data-name="Trazado 195064" d="M111.969,232.612H84.311a1.037,1.037,0,0,0,0,2.073h27.657a1.037,1.037,0,0,0,0-2.073" transform="translate(-36.794 -226.136)" fill="#3cafff"/>
        <path id="Trazado_195065" data-name="Trazado 195065" d="M73.632,232.612H66.65a1.037,1.037,0,0,0,0,2.073h6.982a1.037,1.037,0,1,0,0-2.073" transform="translate(-30.732 -226.136)" fill="#3cafff"/>
      </g>
      <g id="Grupo_154316" data-name="Grupo 154316">
        <path id="Trazado_195062" data-name="Trazado 195062" d="M160.191,1.333h-46.48c-.962,0-1.742.464-1.742,1.036s.779,1.037,1.742,1.037h46.48c.962,0,1.743-.464,1.743-1.037s-.78-1.036-1.743-1.036" transform="translate(-81.666 -1.333)" fill="#7f4fc7"/>
        <path id="Trazado_195063" data-name="Trazado 195063" d="M115.258,1.333H97.017c-1.5,0-2.708.464-2.708,1.036s1.211,1.037,2.708,1.037h18.241c1.5,0,2.708-.464,2.708-1.037s-1.211-1.036-2.708-1.036" transform="translate(-94.309 -1.333)" fill="#7f4fc7"/>
      </g>
    </g>
    <g id="Grupo_154318" data-name="Grupo 154318" transform="translate(1095.338 3968.197)">
      <g id="Grupo_154315-2" data-name="Grupo 154315" transform="translate(22.712 6.606)">
        <path id="Trazado_195058-2" data-name="Trazado 195058" d="M13.55,224.852H41.574a1.05,1.05,0,0,0,0-2.1H13.55a1.05,1.05,0,0,0,0,2.1" transform="translate(-12.5 -222.751)" fill="#3cafff"/>
        <path id="Trazado_195059-2" data-name="Trazado 195059" d="M83.511,224.852h7.074a1.05,1.05,0,0,0,0-2.1H83.511a1.05,1.05,0,1,0,0,2.1" transform="translate(-49.76 -222.751)" fill="#3cafff"/>
        <path id="Trazado_195064-2" data-name="Trazado 195064" d="M103.7,232.612H84.013a.738.738,0,0,0,0,1.476H103.7a.738.738,0,0,0,0-1.476" transform="translate(-50.193 -228.003)" fill="#3cafff"/>
        <path id="Trazado_195065-2" data-name="Trazado 195065" d="M71.321,232.612H66.352a.738.738,0,0,0,0,1.476h4.969a.738.738,0,1,0,0-1.476" transform="translate(-40.787 -228.003)" fill="#3cafff"/>
      </g>
      <g id="Grupo_154316-2" data-name="Grupo 154316" transform="translate(0)">
        <path id="Trazado_195062-2" data-name="Trazado 195062" d="M146.29,1.333H113.209c-.685,0-1.24.33-1.24.738s.555.738,1.24.738H146.29c.685,0,1.24-.33,1.24-.738s-.555-.738-1.24-.738" transform="translate(-90.402 -1.333)" fill="#7f4fc7"/>
        <path id="Trazado_195063-2" data-name="Trazado 195063" d="M109.219,1.333H96.236c-1.065,0-1.927.33-1.927.738s.862.738,1.927.738h12.983c1.065,0,1.927-.33,1.927-.738s-.862-.738-1.927-.738" transform="translate(-94.309 -1.333)" fill="#7f4fc7"/>
      </g>
    </g>
  </g>
</svg>
