<svg xmlns="http://www.w3.org/2000/svg" width="85" height="107.843" viewBox="0 0 85 107.843">
  <g id="Grupo_156823" data-name="Grupo 156823" transform="translate(-180 -6312)">
    <rect id="Rectángulo_45220" data-name="Rectángulo 45220" width="73" height="51.474" transform="translate(231.474 6312) rotate(90)" fill="#e4e4e4"/>
    <rect id="Rectángulo_45221" data-name="Rectángulo 45221" width="3.279" height="3.279" transform="translate(261.721 6336.223) rotate(-90)" fill="#1894f6"/>
    <rect id="Rectángulo_45222" data-name="Rectángulo 45222" width="3.279" height="3.279" transform="translate(261.721 6343.191) rotate(-90)" fill="#1894f6"/>
    <rect id="Rectángulo_45223" data-name="Rectángulo 45223" width="3.279" height="3.279" transform="translate(261.721 6350.159) rotate(-90)" fill="#1894f6"/>
    <rect id="Rectángulo_45224" data-name="Rectángulo 45224" width="3.279" height="3.279" transform="translate(261.721 6357.127) rotate(-90)" fill="#1894f6"/>
    <rect id="Rectángulo_45225" data-name="Rectángulo 45225" width="3.279" height="3.279" transform="translate(261.721 6364.096) rotate(-90)" fill="#1894f6"/>
    <rect id="Rectángulo_45226" data-name="Rectángulo 45226" width="3.279" height="3.279" transform="translate(261.721 6371.063) rotate(-90)" fill="#1894f6"/>
    <rect id="Rectángulo_47701" data-name="Rectángulo 47701" width="3.279" height="3.279" transform="translate(261.721 6391.969) rotate(-90)" fill="#1894f6"/>
    <rect id="Rectángulo_45227" data-name="Rectángulo 45227" width="3.279" height="3.279" transform="translate(261.721 6378.031) rotate(-90)" fill="#1894f6"/>
    <rect id="Rectángulo_47693" data-name="Rectángulo 47693" width="3.279" height="3.279" transform="translate(261.721 6398.937) rotate(-90)" fill="#1894f6"/>
    <rect id="Rectángulo_47717" data-name="Rectángulo 47717" width="3.279" height="3.279" transform="translate(261.721 6412.874) rotate(-90)" fill="#1894f6"/>
    <rect id="Rectángulo_45228" data-name="Rectángulo 45228" width="3.279" height="3.279" transform="translate(261.721 6385) rotate(-90)" fill="#1894f6"/>
    <rect id="Rectángulo_47685" data-name="Rectángulo 47685" width="3.279" height="3.279" transform="translate(261.721 6405.905) rotate(-90)" fill="#1894f6"/>
    <rect id="Rectángulo_47709" data-name="Rectángulo 47709" width="3.279" height="3.279" transform="translate(261.721 6419.843) rotate(-90)" fill="#1894f6"/>
    <rect id="Rectángulo_45232" data-name="Rectángulo 45232" width="3.279" height="3.279" transform="translate(254.753 6336.223) rotate(-90)" fill="#1894f6"/>
    <rect id="Rectángulo_45233" data-name="Rectángulo 45233" width="3.279" height="3.279" transform="translate(254.753 6343.191) rotate(-90)" fill="#1894f6"/>
    <rect id="Rectángulo_45234" data-name="Rectángulo 45234" width="3.279" height="3.279" transform="translate(254.753 6350.159) rotate(-90)" fill="#1894f6"/>
    <rect id="Rectángulo_45235" data-name="Rectángulo 45235" width="3.279" height="3.279" transform="translate(254.753 6357.127) rotate(-90)" fill="#1894f6"/>
    <rect id="Rectángulo_45236" data-name="Rectángulo 45236" width="3.279" height="3.279" transform="translate(254.753 6364.096) rotate(-90)" fill="#1894f6"/>
    <rect id="Rectángulo_45237" data-name="Rectángulo 45237" width="3.279" height="3.279" transform="translate(254.753 6371.063) rotate(-90)" fill="#1894f6"/>
    <rect id="Rectángulo_47702" data-name="Rectángulo 47702" width="3.279" height="3.279" transform="translate(254.753 6391.969) rotate(-90)" fill="#1894f6"/>
    <rect id="Rectángulo_45238" data-name="Rectángulo 45238" width="3.279" height="3.279" transform="translate(254.753 6378.031) rotate(-90)" fill="#1894f6"/>
    <rect id="Rectángulo_47694" data-name="Rectángulo 47694" width="3.279" height="3.279" transform="translate(254.753 6398.937) rotate(-90)" fill="#1894f6"/>
    <rect id="Rectángulo_47718" data-name="Rectángulo 47718" width="3.279" height="3.279" transform="translate(254.753 6412.874) rotate(-90)" fill="#1894f6"/>
    <rect id="Rectángulo_45239" data-name="Rectángulo 45239" width="3.279" height="3.279" transform="translate(254.753 6385) rotate(-90)" fill="#1894f6"/>
    <rect id="Rectángulo_47686" data-name="Rectángulo 47686" width="3.279" height="3.279" transform="translate(254.753 6405.905) rotate(-90)" fill="#1894f6"/>
    <rect id="Rectángulo_47710" data-name="Rectángulo 47710" width="3.279" height="3.279" transform="translate(254.753 6419.843) rotate(-90)" fill="#1894f6"/>
    <rect id="Rectángulo_45243" data-name="Rectángulo 45243" width="3.279" height="3.279" transform="translate(247.785 6336.223) rotate(-90)" fill="#1894f6"/>
    <rect id="Rectángulo_45244" data-name="Rectángulo 45244" width="3.279" height="3.279" transform="translate(247.785 6343.191) rotate(-90)" fill="#1894f6"/>
    <rect id="Rectángulo_45245" data-name="Rectángulo 45245" width="3.279" height="3.279" transform="translate(247.785 6350.159) rotate(-90)" fill="#1894f6"/>
    <rect id="Rectángulo_45246" data-name="Rectángulo 45246" width="3.279" height="3.279" transform="translate(247.785 6357.127) rotate(-90)" fill="#1894f6"/>
    <rect id="Rectángulo_45247" data-name="Rectángulo 45247" width="3.279" height="3.279" transform="translate(247.785 6364.096) rotate(-90)" fill="#1894f6"/>
    <rect id="Rectángulo_45248" data-name="Rectángulo 45248" width="3.279" height="3.279" transform="translate(247.785 6371.063) rotate(-90)" fill="#1894f6"/>
    <rect id="Rectángulo_47703" data-name="Rectángulo 47703" width="3.279" height="3.279" transform="translate(247.785 6391.969) rotate(-90)" fill="#1894f6"/>
    <rect id="Rectángulo_45249" data-name="Rectángulo 45249" width="3.279" height="3.279" transform="translate(247.785 6378.031) rotate(-90)" fill="#1894f6"/>
    <rect id="Rectángulo_47695" data-name="Rectángulo 47695" width="3.279" height="3.279" transform="translate(247.785 6398.937) rotate(-90)" fill="#1894f6"/>
    <rect id="Rectángulo_47719" data-name="Rectángulo 47719" width="3.279" height="3.279" transform="translate(247.785 6412.874) rotate(-90)" fill="#1894f6"/>
    <rect id="Rectángulo_45250" data-name="Rectángulo 45250" width="3.279" height="3.279" transform="translate(247.785 6385) rotate(-90)" fill="#1894f6"/>
    <rect id="Rectángulo_47687" data-name="Rectángulo 47687" width="3.279" height="3.279" transform="translate(247.785 6405.905) rotate(-90)" fill="#1894f6"/>
    <rect id="Rectángulo_47711" data-name="Rectángulo 47711" width="3.279" height="3.279" transform="translate(247.785 6419.843) rotate(-90)" fill="#1894f6"/>
    <rect id="Rectángulo_45221-2" data-name="Rectángulo 45221" width="3.279" height="3.279" transform="translate(241.399 6336.223) rotate(-90)" fill="#1894f6"/>
    <rect id="Rectángulo_45222-2" data-name="Rectángulo 45222" width="3.279" height="3.279" transform="translate(241.399 6343.191) rotate(-90)" fill="#1894f6"/>
    <rect id="Rectángulo_45223-2" data-name="Rectángulo 45223" width="3.279" height="3.279" transform="translate(241.399 6350.16) rotate(-90)" fill="#1894f6"/>
    <rect id="Rectángulo_45224-2" data-name="Rectángulo 45224" width="3.279" height="3.279" transform="translate(241.399 6357.127) rotate(-90)" fill="#1894f6"/>
    <rect id="Rectángulo_45225-2" data-name="Rectángulo 45225" width="3.279" height="3.279" transform="translate(241.399 6364.096) rotate(-90)" fill="#1894f6"/>
    <rect id="Rectángulo_45226-2" data-name="Rectángulo 45226" width="3.279" height="3.279" transform="translate(241.399 6371.063) rotate(-90)" fill="#1894f6"/>
    <rect id="Rectángulo_47704" data-name="Rectángulo 47704" width="3.279" height="3.279" transform="translate(241.399 6391.969) rotate(-90)" fill="#1894f6"/>
    <rect id="Rectángulo_45227-2" data-name="Rectángulo 45227" width="3.279" height="3.279" transform="translate(241.399 6378.031) rotate(-90)" fill="#1894f6"/>
    <rect id="Rectángulo_47696" data-name="Rectángulo 47696" width="3.279" height="3.279" transform="translate(241.399 6398.937) rotate(-90)" fill="#1894f6"/>
    <rect id="Rectángulo_47720" data-name="Rectángulo 47720" width="3.279" height="3.279" transform="translate(241.399 6412.874) rotate(-90)" fill="#1894f6"/>
    <rect id="Rectángulo_45228-2" data-name="Rectángulo 45228" width="3.279" height="3.279" transform="translate(241.399 6385) rotate(-90)" fill="#1894f6"/>
    <rect id="Rectángulo_47688" data-name="Rectángulo 47688" width="3.279" height="3.279" transform="translate(241.399 6405.905) rotate(-90)" fill="#1894f6"/>
    <rect id="Rectángulo_47712" data-name="Rectángulo 47712" width="3.279" height="3.279" transform="translate(241.399 6419.843) rotate(-90)" fill="#1894f6"/>
    <rect id="Rectángulo_45232-2" data-name="Rectángulo 45232" width="3.279" height="3.279" transform="translate(234.431 6336.223) rotate(-90)" fill="#1894f6"/>
    <rect id="Rectángulo_45279" data-name="Rectángulo 45279" width="3.279" height="3.279" transform="translate(220.495 6336.223) rotate(-90)" fill="#1894f6"/>
    <rect id="Rectángulo_45233-2" data-name="Rectángulo 45233" width="3.279" height="3.279" transform="translate(234.431 6343.191) rotate(-90)" fill="#1894f6"/>
    <rect id="Rectángulo_45280" data-name="Rectángulo 45280" width="3.279" height="3.279" transform="translate(220.495 6343.191) rotate(-90)" fill="#1894f6"/>
    <rect id="Rectángulo_45234-2" data-name="Rectángulo 45234" width="3.279" height="3.279" transform="translate(234.431 6350.16) rotate(-90)" fill="#1894f6"/>
    <rect id="Rectángulo_45281" data-name="Rectángulo 45281" width="3.279" height="3.279" transform="translate(220.495 6350.16) rotate(-90)" fill="#1894f6"/>
    <rect id="Rectángulo_45235-2" data-name="Rectángulo 45235" width="3.279" height="3.279" transform="translate(234.431 6357.127) rotate(-90)" fill="#1894f6"/>
    <rect id="Rectángulo_45282" data-name="Rectángulo 45282" width="3.279" height="3.279" transform="translate(220.495 6357.127) rotate(-90)" fill="#1894f6"/>
    <rect id="Rectángulo_45236-2" data-name="Rectángulo 45236" width="3.279" height="3.279" transform="translate(234.431 6364.096) rotate(-90)" fill="#1894f6"/>
    <rect id="Rectángulo_45283" data-name="Rectángulo 45283" width="3.279" height="3.279" transform="translate(220.495 6364.096) rotate(-90)" fill="#1894f6"/>
    <rect id="Rectángulo_45237-2" data-name="Rectángulo 45237" width="3.279" height="3.279" transform="translate(234.431 6371.063) rotate(-90)" fill="#1894f6"/>
    <rect id="Rectángulo_47705" data-name="Rectángulo 47705" width="3.279" height="3.279" transform="translate(234.431 6391.969) rotate(-90)" fill="#1894f6"/>
    <rect id="Rectángulo_45284" data-name="Rectángulo 45284" width="3.279" height="3.279" transform="translate(220.495 6371.063) rotate(-90)" fill="#1894f6"/>
    <rect id="Rectángulo_47706" data-name="Rectángulo 47706" width="3.279" height="3.279" transform="translate(220.495 6391.969) rotate(-90)" fill="#1894f6"/>
    <rect id="Rectángulo_45238-2" data-name="Rectángulo 45238" width="3.279" height="3.279" transform="translate(234.431 6378.031) rotate(-90)" fill="#1894f6"/>
    <rect id="Rectángulo_47697" data-name="Rectángulo 47697" width="3.279" height="3.279" transform="translate(234.431 6398.937) rotate(-90)" fill="#1894f6"/>
    <rect id="Rectángulo_47721" data-name="Rectángulo 47721" width="3.279" height="3.279" transform="translate(234.431 6412.874) rotate(-90)" fill="#1894f6"/>
    <rect id="Rectángulo_45285" data-name="Rectángulo 45285" width="3.279" height="3.279" transform="translate(220.495 6378.031) rotate(-90)" fill="#1894f6"/>
    <rect id="Rectángulo_47698" data-name="Rectángulo 47698" width="3.279" height="3.279" transform="translate(220.495 6398.937) rotate(-90)" fill="#1894f6"/>
    <rect id="Rectángulo_47722" data-name="Rectángulo 47722" width="3.279" height="3.279" transform="translate(220.495 6412.874) rotate(-90)" fill="#1894f6"/>
    <rect id="Rectángulo_45239-2" data-name="Rectángulo 45239" width="3.279" height="3.279" transform="translate(234.431 6385) rotate(-90)" fill="#1894f6"/>
    <rect id="Rectángulo_47689" data-name="Rectángulo 47689" width="3.279" height="3.279" transform="translate(234.431 6405.905) rotate(-90)" fill="#1894f6"/>
    <rect id="Rectángulo_47713" data-name="Rectángulo 47713" width="3.279" height="3.279" transform="translate(234.431 6419.843) rotate(-90)" fill="#1894f6"/>
    <rect id="Rectángulo_45286" data-name="Rectángulo 45286" width="3.279" height="3.279" transform="translate(220.495 6385) rotate(-90)" fill="#1894f6"/>
    <rect id="Rectángulo_47691" data-name="Rectángulo 47691" width="3.279" height="3.279" transform="translate(220.495 6405.905) rotate(-90)" fill="#1894f6"/>
    <rect id="Rectángulo_47714" data-name="Rectángulo 47714" width="3.279" height="3.279" transform="translate(220.495 6419.843) rotate(-90)" fill="#1894f6"/>
    <rect id="Rectángulo_45243-2" data-name="Rectángulo 45243" width="3.279" height="3.279" transform="translate(227.463 6336.223) rotate(-90)" fill="#1894f6"/>
    <rect id="Rectángulo_45268" data-name="Rectángulo 45268" width="3.279" height="3.279" transform="translate(213.526 6336.223) rotate(-90)" fill="#1894f6"/>
    <rect id="Rectángulo_45244-2" data-name="Rectángulo 45244" width="3.279" height="3.279" transform="translate(227.463 6343.191) rotate(-90)" fill="#1894f6"/>
    <rect id="Rectángulo_45269" data-name="Rectángulo 45269" width="3.279" height="3.279" transform="translate(213.526 6343.191) rotate(-90)" fill="#1894f6"/>
    <rect id="Rectángulo_45245-2" data-name="Rectángulo 45245" width="3.279" height="3.279" transform="translate(227.463 6350.16) rotate(-90)" fill="#1894f6"/>
    <rect id="Rectángulo_45270" data-name="Rectángulo 45270" width="3.279" height="3.279" transform="translate(213.526 6350.16) rotate(-90)" fill="#1894f6"/>
    <rect id="Rectángulo_45246-2" data-name="Rectángulo 45246" width="3.279" height="3.279" transform="translate(227.463 6357.127) rotate(-90)" fill="#1894f6"/>
    <rect id="Rectángulo_45271" data-name="Rectángulo 45271" width="3.279" height="3.279" transform="translate(213.526 6357.127) rotate(-90)" fill="#1894f6"/>
    <rect id="Rectángulo_45247-2" data-name="Rectángulo 45247" width="3.279" height="3.279" transform="translate(227.463 6364.096) rotate(-90)" fill="#1894f6"/>
    <rect id="Rectángulo_45272" data-name="Rectángulo 45272" width="3.279" height="3.279" transform="translate(213.526 6364.096) rotate(-90)" fill="#1894f6"/>
    <rect id="Rectángulo_45248-2" data-name="Rectángulo 45248" width="3.279" height="3.279" transform="translate(227.463 6371.063) rotate(-90)" fill="#1894f6"/>
    <rect id="Rectángulo_47707" data-name="Rectángulo 47707" width="3.279" height="3.279" transform="translate(227.463 6391.969) rotate(-90)" fill="#1894f6"/>
    <rect id="Rectángulo_45273" data-name="Rectángulo 45273" width="3.279" height="3.279" transform="translate(213.526 6371.063) rotate(-90)" fill="#1894f6"/>
    <rect id="Rectángulo_47708" data-name="Rectángulo 47708" width="3.279" height="3.279" transform="translate(213.526 6391.969) rotate(-90)" fill="#1894f6"/>
    <rect id="Rectángulo_45249-2" data-name="Rectángulo 45249" width="3.279" height="3.279" transform="translate(227.463 6378.031) rotate(-90)" fill="#1894f6"/>
    <rect id="Rectángulo_47699" data-name="Rectángulo 47699" width="3.279" height="3.279" transform="translate(227.463 6398.937) rotate(-90)" fill="#1894f6"/>
    <rect id="Rectángulo_47723" data-name="Rectángulo 47723" width="3.279" height="3.279" transform="translate(227.463 6412.874) rotate(-90)" fill="#1894f6"/>
    <rect id="Rectángulo_45274" data-name="Rectángulo 45274" width="3.279" height="3.279" transform="translate(213.526 6378.031) rotate(-90)" fill="#1894f6"/>
    <rect id="Rectángulo_47700" data-name="Rectángulo 47700" width="3.279" height="3.279" transform="translate(213.526 6398.937) rotate(-90)" fill="#1894f6"/>
    <rect id="Rectángulo_47724" data-name="Rectángulo 47724" width="3.279" height="3.279" transform="translate(213.526 6412.874) rotate(-90)" fill="#1894f6"/>
    <rect id="Rectángulo_45250-2" data-name="Rectángulo 45250" width="3.279" height="3.279" transform="translate(227.463 6385) rotate(-90)" fill="#1894f6"/>
    <rect id="Rectángulo_47690" data-name="Rectángulo 47690" width="3.279" height="3.279" transform="translate(227.463 6405.905) rotate(-90)" fill="#1894f6"/>
    <rect id="Rectángulo_47715" data-name="Rectángulo 47715" width="3.279" height="3.279" transform="translate(227.463 6419.843) rotate(-90)" fill="#1894f6"/>
    <rect id="Rectángulo_45275" data-name="Rectángulo 45275" width="3.279" height="3.279" transform="translate(213.526 6385) rotate(-90)" fill="#1894f6"/>
    <rect id="Rectángulo_47692" data-name="Rectángulo 47692" width="3.279" height="3.279" transform="translate(213.526 6405.905) rotate(-90)" fill="#1894f6"/>
    <rect id="Rectángulo_47716" data-name="Rectángulo 47716" width="3.279" height="3.279" transform="translate(213.526 6419.843) rotate(-90)" fill="#1894f6"/>
  </g>
</svg>
