<svg xmlns="http://www.w3.org/2000/svg" width="84.412" height="207.34" viewBox="0 0 84.412 207.34">
  <g id="Grupo_156828" data-name="Grupo 156828" transform="translate(-180.588 -427.34)">
    <rect id="Rectángulo_45220" data-name="Rectángulo 45220" width="144.053" height="48.731" transform="translate(229.319 427.34) rotate(90)" fill="#e4e4e4"/>
    <g id="Grupo_153260" data-name="Grupo 153260" transform="translate(861.517 11746.502)">
      <rect id="Rectángulo_45221" data-name="Rectángulo 45221" width="4.203" height="4.203" transform="translate(-600.719 -11201.126) rotate(-90)" fill="#7f4fc7"/>
      <rect id="Rectángulo_45891" data-name="Rectángulo 45891" width="4.203" height="4.203" transform="translate(-600.719 -11227.917) rotate(-90)" fill="#7f4fc7"/>
      <rect id="Rectángulo_45222" data-name="Rectángulo 45222" width="4.203" height="4.203" transform="translate(-600.719 -11192.195) rotate(-90)" fill="#7f4fc7"/>
      <rect id="Rectángulo_45892" data-name="Rectángulo 45892" width="4.203" height="4.203" transform="translate(-600.719 -11218.986) rotate(-90)" fill="#7f4fc7"/>
      <rect id="Rectángulo_45223" data-name="Rectángulo 45223" width="4.203" height="4.203" transform="translate(-600.719 -11183.265) rotate(-90)" fill="#7f4fc7"/>
      <rect id="Rectángulo_45893" data-name="Rectángulo 45893" width="4.203" height="4.203" transform="translate(-600.719 -11210.056) rotate(-90)" fill="#7f4fc7"/>
      <rect id="Rectángulo_45224" data-name="Rectángulo 45224" width="4.202" height="4.203" transform="translate(-600.719 -11174.335) rotate(-90)" fill="#7f4fc7"/>
      <rect id="Rectángulo_45225" data-name="Rectángulo 45225" width="4.203" height="4.203" transform="translate(-600.719 -11165.404) rotate(-90)" fill="#7f4fc7"/>
      <rect id="Rectángulo_45226" data-name="Rectángulo 45226" width="4.202" height="4.203" transform="translate(-600.719 -11156.474) rotate(-90)" fill="#7f4fc7"/>
      <rect id="Rectángulo_45227" data-name="Rectángulo 45227" width="4.203" height="4.203" transform="translate(-600.719 -11147.543) rotate(-90)" fill="#7f4fc7"/>
      <rect id="Rectángulo_45228" data-name="Rectángulo 45228" width="4.202" height="4.203" transform="translate(-600.719 -11138.613) rotate(-90)" fill="#7f4fc7"/>
      <rect id="Rectángulo_45229" data-name="Rectángulo 45229" width="4.203" height="4.203" transform="translate(-600.719 -11129.683) rotate(-90)" fill="#7f4fc7"/>
      <rect id="Rectángulo_47745" data-name="Rectángulo 47745" width="4.203" height="4.203" transform="translate(-600.719 -11253.707) rotate(-90)" fill="#7f4fc7"/>
      <rect id="Rectángulo_45230" data-name="Rectángulo 45230" width="4.203" height="4.203" transform="translate(-600.719 -11120.752) rotate(-90)" fill="#7f4fc7"/>
      <rect id="Rectángulo_47746" data-name="Rectángulo 47746" width="4.203" height="4.203" transform="translate(-600.719 -11244.776) rotate(-90)" fill="#7f4fc7"/>
      <rect id="Rectángulo_45231" data-name="Rectángulo 45231" width="4.203" height="4.203" transform="translate(-600.719 -11111.822) rotate(-90)" fill="#7f4fc7"/>
      <rect id="Rectángulo_47747" data-name="Rectángulo 47747" width="4.203" height="4.203" transform="translate(-600.719 -11235.847) rotate(-90)" fill="#7f4fc7"/>
      <rect id="Rectángulo_45232" data-name="Rectángulo 45232" width="4.203" height="4.203" transform="translate(-609.65 -11201.126) rotate(-90)" fill="#7f4fc7"/>
      <rect id="Rectángulo_45878" data-name="Rectángulo 45878" width="4.203" height="4.203" transform="translate(-609.65 -11227.917) rotate(-90)" fill="#7f4fc7"/>
      <rect id="Rectángulo_45233" data-name="Rectángulo 45233" width="4.203" height="4.203" transform="translate(-609.65 -11192.195) rotate(-90)" fill="#7f4fc7"/>
      <rect id="Rectángulo_45879" data-name="Rectángulo 45879" width="4.203" height="4.203" transform="translate(-609.65 -11218.986) rotate(-90)" fill="#7f4fc7"/>
      <rect id="Rectángulo_45234" data-name="Rectángulo 45234" width="4.203" height="4.203" transform="translate(-609.65 -11183.265) rotate(-90)" fill="#7f4fc7"/>
      <rect id="Rectángulo_45880" data-name="Rectángulo 45880" width="4.203" height="4.203" transform="translate(-609.65 -11210.056) rotate(-90)" fill="#7f4fc7"/>
      <rect id="Rectángulo_45235" data-name="Rectángulo 45235" width="4.202" height="4.203" transform="translate(-609.65 -11174.335) rotate(-90)" fill="#7f4fc7"/>
      <rect id="Rectángulo_45236" data-name="Rectángulo 45236" width="4.203" height="4.203" transform="translate(-609.65 -11165.404) rotate(-90)" fill="#7f4fc7"/>
      <rect id="Rectángulo_45237" data-name="Rectángulo 45237" width="4.202" height="4.203" transform="translate(-609.65 -11156.474) rotate(-90)" fill="#7f4fc7"/>
      <rect id="Rectángulo_45238" data-name="Rectángulo 45238" width="4.203" height="4.203" transform="translate(-609.65 -11147.543) rotate(-90)" fill="#7f4fc7"/>
      <rect id="Rectángulo_45239" data-name="Rectángulo 45239" width="4.202" height="4.203" transform="translate(-609.65 -11138.613) rotate(-90)" fill="#7f4fc7"/>
      <rect id="Rectángulo_45240" data-name="Rectángulo 45240" width="4.203" height="4.203" transform="translate(-609.65 -11129.683) rotate(-90)" fill="#7f4fc7"/>
      <rect id="Rectángulo_47748" data-name="Rectángulo 47748" width="4.203" height="4.203" transform="translate(-609.65 -11253.707) rotate(-90)" fill="#7f4fc7"/>
      <rect id="Rectángulo_45241" data-name="Rectángulo 45241" width="4.203" height="4.203" transform="translate(-609.65 -11120.752) rotate(-90)" fill="#7f4fc7"/>
      <rect id="Rectángulo_47749" data-name="Rectángulo 47749" width="4.203" height="4.203" transform="translate(-609.65 -11244.776) rotate(-90)" fill="#7f4fc7"/>
      <rect id="Rectángulo_45242" data-name="Rectángulo 45242" width="4.203" height="4.203" transform="translate(-609.65 -11111.822) rotate(-90)" fill="#7f4fc7"/>
      <rect id="Rectángulo_47750" data-name="Rectángulo 47750" width="4.203" height="4.203" transform="translate(-609.65 -11235.847) rotate(-90)" fill="#7f4fc7"/>
      <rect id="Rectángulo_45243" data-name="Rectángulo 45243" width="4.203" height="4.203" transform="translate(-618.58 -11201.126) rotate(-90)" fill="#7f4fc7"/>
      <rect id="Rectángulo_45881" data-name="Rectángulo 45881" width="4.203" height="4.203" transform="translate(-618.58 -11227.917) rotate(-90)" fill="#7f4fc7"/>
      <rect id="Rectángulo_45244" data-name="Rectángulo 45244" width="4.203" height="4.203" transform="translate(-618.58 -11192.195) rotate(-90)" fill="#7f4fc7"/>
      <rect id="Rectángulo_45882" data-name="Rectángulo 45882" width="4.203" height="4.203" transform="translate(-618.58 -11218.986) rotate(-90)" fill="#7f4fc7"/>
      <rect id="Rectángulo_45245" data-name="Rectángulo 45245" width="4.203" height="4.203" transform="translate(-618.58 -11183.265) rotate(-90)" fill="#7f4fc7"/>
      <rect id="Rectángulo_45883" data-name="Rectángulo 45883" width="4.203" height="4.203" transform="translate(-618.58 -11210.056) rotate(-90)" fill="#7f4fc7"/>
      <rect id="Rectángulo_45246" data-name="Rectángulo 45246" width="4.202" height="4.203" transform="translate(-618.58 -11174.335) rotate(-90)" fill="#7f4fc7"/>
      <rect id="Rectángulo_45247" data-name="Rectángulo 45247" width="4.203" height="4.203" transform="translate(-618.58 -11165.404) rotate(-90)" fill="#7f4fc7"/>
      <rect id="Rectángulo_45248" data-name="Rectángulo 45248" width="4.202" height="4.203" transform="translate(-618.58 -11156.474) rotate(-90)" fill="#7f4fc7"/>
      <rect id="Rectángulo_45249" data-name="Rectángulo 45249" width="4.203" height="4.203" transform="translate(-618.58 -11147.543) rotate(-90)" fill="#7f4fc7"/>
      <rect id="Rectángulo_45250" data-name="Rectángulo 45250" width="4.202" height="4.203" transform="translate(-618.58 -11138.613) rotate(-90)" fill="#7f4fc7"/>
      <rect id="Rectángulo_45251" data-name="Rectángulo 45251" width="4.203" height="4.203" transform="translate(-618.58 -11129.683) rotate(-90)" fill="#7f4fc7"/>
      <rect id="Rectángulo_47751" data-name="Rectángulo 47751" width="4.203" height="4.203" transform="translate(-618.58 -11253.707) rotate(-90)" fill="#7f4fc7"/>
      <rect id="Rectángulo_45252" data-name="Rectángulo 45252" width="4.203" height="4.203" transform="translate(-618.58 -11120.752) rotate(-90)" fill="#7f4fc7"/>
      <rect id="Rectángulo_47752" data-name="Rectángulo 47752" width="4.203" height="4.203" transform="translate(-618.58 -11244.776) rotate(-90)" fill="#7f4fc7"/>
      <rect id="Rectángulo_45253" data-name="Rectángulo 45253" width="4.203" height="4.203" transform="translate(-618.58 -11111.822) rotate(-90)" fill="#7f4fc7"/>
      <rect id="Rectángulo_47753" data-name="Rectángulo 47753" width="4.203" height="4.203" transform="translate(-618.58 -11235.847) rotate(-90)" fill="#7f4fc7"/>
      <rect id="Rectángulo_45221-2" data-name="Rectángulo 45221" width="4.203" height="4.203" transform="translate(-626.764 -11201.126) rotate(-90)" fill="#7f4fc7"/>
      <rect id="Rectángulo_45884" data-name="Rectángulo 45884" width="4.203" height="4.203" transform="translate(-626.764 -11227.917) rotate(-90)" fill="#7f4fc7"/>
      <rect id="Rectángulo_45222-2" data-name="Rectángulo 45222" width="4.203" height="4.203" transform="translate(-626.764 -11192.195) rotate(-90)" fill="#7f4fc7"/>
      <rect id="Rectángulo_45885" data-name="Rectángulo 45885" width="4.203" height="4.203" transform="translate(-626.764 -11218.986) rotate(-90)" fill="#7f4fc7"/>
      <rect id="Rectángulo_45223-2" data-name="Rectángulo 45223" width="4.203" height="4.203" transform="translate(-626.764 -11183.265) rotate(-90)" fill="#7f4fc7"/>
      <rect id="Rectángulo_45886" data-name="Rectángulo 45886" width="4.203" height="4.203" transform="translate(-626.764 -11210.056) rotate(-90)" fill="#7f4fc7"/>
      <rect id="Rectángulo_45224-2" data-name="Rectángulo 45224" width="4.202" height="4.203" transform="translate(-626.764 -11174.335) rotate(-90)" fill="#7f4fc7"/>
      <rect id="Rectángulo_45225-2" data-name="Rectángulo 45225" width="4.203" height="4.203" transform="translate(-626.764 -11165.404) rotate(-90)" fill="#7f4fc7"/>
      <rect id="Rectángulo_45226-2" data-name="Rectángulo 45226" width="4.202" height="4.203" transform="translate(-626.764 -11156.474) rotate(-90)" fill="#7f4fc7"/>
      <rect id="Rectángulo_45227-2" data-name="Rectángulo 45227" width="4.203" height="4.203" transform="translate(-626.764 -11147.543) rotate(-90)" fill="#7f4fc7"/>
      <rect id="Rectángulo_45228-2" data-name="Rectángulo 45228" width="4.202" height="4.203" transform="translate(-626.764 -11138.613) rotate(-90)" fill="#7f4fc7"/>
      <rect id="Rectángulo_45229-2" data-name="Rectángulo 45229" width="4.203" height="4.203" transform="translate(-626.764 -11129.683) rotate(-90)" fill="#7f4fc7"/>
      <rect id="Rectángulo_47741" data-name="Rectángulo 47741" width="4.203" height="4.203" transform="translate(-626.764 -11253.707) rotate(-90)" fill="#7f4fc7"/>
      <rect id="Rectángulo_45230-2" data-name="Rectángulo 45230" width="4.203" height="4.203" transform="translate(-626.764 -11120.752) rotate(-90)" fill="#7f4fc7"/>
      <rect id="Rectángulo_47742" data-name="Rectángulo 47742" width="4.203" height="4.203" transform="translate(-626.764 -11244.776) rotate(-90)" fill="#7f4fc7"/>
      <rect id="Rectángulo_45231-2" data-name="Rectángulo 45231" width="4.203" height="4.203" transform="translate(-626.764 -11111.822) rotate(-90)" fill="#7f4fc7"/>
      <rect id="Rectángulo_47754" data-name="Rectángulo 47754" width="4.203" height="4.203" transform="translate(-626.764 -11235.847) rotate(-90)" fill="#7f4fc7"/>
      <rect id="Rectángulo_45232-2" data-name="Rectángulo 45232" width="4.203" height="4.203" transform="translate(-635.694 -11201.126) rotate(-90)" fill="#7f4fc7"/>
      <rect id="Rectángulo_45887" data-name="Rectángulo 45887" width="4.203" height="4.203" transform="translate(-635.694 -11227.917) rotate(-90)" fill="#7f4fc7"/>
      <rect id="Rectángulo_45233-2" data-name="Rectángulo 45233" width="4.203" height="4.203" transform="translate(-635.694 -11192.195) rotate(-90)" fill="#7f4fc7"/>
      <rect id="Rectángulo_45888" data-name="Rectángulo 45888" width="4.203" height="4.203" transform="translate(-635.694 -11218.986) rotate(-90)" fill="#7f4fc7"/>
      <rect id="Rectángulo_45234-2" data-name="Rectángulo 45234" width="4.203" height="4.203" transform="translate(-635.694 -11183.265) rotate(-90)" fill="#7f4fc7"/>
      <rect id="Rectángulo_45889" data-name="Rectángulo 45889" width="4.203" height="4.203" transform="translate(-635.694 -11210.056) rotate(-90)" fill="#7f4fc7"/>
      <rect id="Rectángulo_45235-2" data-name="Rectángulo 45235" width="4.202" height="4.203" transform="translate(-635.694 -11174.335) rotate(-90)" fill="#7f4fc7"/>
      <rect id="Rectángulo_45236-2" data-name="Rectángulo 45236" width="4.203" height="4.203" transform="translate(-635.694 -11165.404) rotate(-90)" fill="#7f4fc7"/>
      <rect id="Rectángulo_45237-2" data-name="Rectángulo 45237" width="4.202" height="4.203" transform="translate(-635.694 -11156.474) rotate(-90)" fill="#7f4fc7"/>
      <rect id="Rectángulo_45238-2" data-name="Rectángulo 45238" width="4.203" height="4.203" transform="translate(-635.694 -11147.543) rotate(-90)" fill="#7f4fc7"/>
      <rect id="Rectángulo_45239-2" data-name="Rectángulo 45239" width="4.202" height="4.203" transform="translate(-635.694 -11138.613) rotate(-90)" fill="#7f4fc7"/>
      <rect id="Rectángulo_45240-2" data-name="Rectángulo 45240" width="4.203" height="4.203" transform="translate(-635.694 -11129.683) rotate(-90)" fill="#7f4fc7"/>
      <rect id="Rectángulo_47743" data-name="Rectángulo 47743" width="4.203" height="4.203" transform="translate(-635.694 -11253.707) rotate(-90)" fill="#7f4fc7"/>
      <rect id="Rectángulo_45241-2" data-name="Rectángulo 45241" width="4.203" height="4.203" transform="translate(-635.694 -11120.752) rotate(-90)" fill="#7f4fc7"/>
      <rect id="Rectángulo_47744" data-name="Rectángulo 47744" width="4.203" height="4.203" transform="translate(-635.694 -11244.776) rotate(-90)" fill="#7f4fc7"/>
      <rect id="Rectángulo_45242-2" data-name="Rectángulo 45242" width="4.203" height="4.203" transform="translate(-635.694 -11111.822) rotate(-90)" fill="#7f4fc7"/>
      <rect id="Rectángulo_47755" data-name="Rectángulo 47755" width="4.203" height="4.203" transform="translate(-635.694 -11235.847) rotate(-90)" fill="#7f4fc7"/>
      <rect id="Rectángulo_45243-2" data-name="Rectángulo 45243" width="4.203" height="4.203" transform="translate(-644.625 -11201.126) rotate(-90)" fill="#7f4fc7"/>
      <rect id="Rectángulo_45876" data-name="Rectángulo 45876" width="4.203" height="4.203" transform="translate(-644.625 -11227.917) rotate(-90)" fill="#7f4fc7"/>
      <rect id="Rectángulo_45244-2" data-name="Rectángulo 45244" width="4.203" height="4.203" transform="translate(-644.625 -11192.195) rotate(-90)" fill="#7f4fc7"/>
      <rect id="Rectángulo_45877" data-name="Rectángulo 45877" width="4.203" height="4.203" transform="translate(-644.625 -11218.986) rotate(-90)" fill="#7f4fc7"/>
      <rect id="Rectángulo_45245-2" data-name="Rectángulo 45245" width="4.203" height="4.203" transform="translate(-644.625 -11183.265) rotate(-90)" fill="#7f4fc7"/>
      <rect id="Rectángulo_45890" data-name="Rectángulo 45890" width="4.203" height="4.203" transform="translate(-644.625 -11210.056) rotate(-90)" fill="#7f4fc7"/>
      <rect id="Rectángulo_45246-2" data-name="Rectángulo 45246" width="4.202" height="4.203" transform="translate(-644.625 -11174.335) rotate(-90)" fill="#7f4fc7"/>
      <rect id="Rectángulo_45247-2" data-name="Rectángulo 45247" width="4.203" height="4.203" transform="translate(-644.625 -11165.404) rotate(-90)" fill="#7f4fc7"/>
      <rect id="Rectángulo_45248-2" data-name="Rectángulo 45248" width="4.202" height="4.203" transform="translate(-644.625 -11156.474) rotate(-90)" fill="#7f4fc7"/>
      <rect id="Rectángulo_45249-2" data-name="Rectángulo 45249" width="4.203" height="4.203" transform="translate(-644.625 -11147.543) rotate(-90)" fill="#7f4fc7"/>
      <rect id="Rectángulo_45250-2" data-name="Rectángulo 45250" width="4.202" height="4.203" transform="translate(-644.625 -11138.613) rotate(-90)" fill="#7f4fc7"/>
      <rect id="Rectángulo_45251-2" data-name="Rectángulo 45251" width="4.203" height="4.203" transform="translate(-644.625 -11129.683) rotate(-90)" fill="#7f4fc7"/>
      <rect id="Rectángulo_47739" data-name="Rectángulo 47739" width="4.203" height="4.203" transform="translate(-644.625 -11253.707) rotate(-90)" fill="#7f4fc7"/>
      <rect id="Rectángulo_45252-2" data-name="Rectángulo 45252" width="4.203" height="4.203" transform="translate(-644.625 -11120.752) rotate(-90)" fill="#7f4fc7"/>
      <rect id="Rectángulo_47740" data-name="Rectángulo 47740" width="4.203" height="4.203" transform="translate(-644.625 -11244.776) rotate(-90)" fill="#7f4fc7"/>
      <rect id="Rectángulo_45253-2" data-name="Rectángulo 45253" width="4.203" height="4.203" transform="translate(-644.625 -11111.822) rotate(-90)" fill="#7f4fc7"/>
      <rect id="Rectángulo_47756" data-name="Rectángulo 47756" width="4.203" height="4.203" transform="translate(-644.625 -11235.847) rotate(-90)" fill="#7f4fc7"/>
    </g>
  </g>
</svg>
