<svg xmlns="http://www.w3.org/2000/svg" width="85" height="52.095" viewBox="0 0 85 52.095">
  <g id="Grupo_156325" data-name="Grupo 156325" transform="translate(-180 -1821)">
    <rect id="Rectángulo_45220" data-name="Rectángulo 45220" width="36.52" height="51.474" transform="translate(231.474 1821) rotate(90)" fill="#e4e4e4"/>
    <rect id="Rectángulo_45221" data-name="Rectángulo 45221" width="3.279" height="3.279" transform="translate(261.721 1845.223) rotate(-90)" fill="#1894f6"/>
    <rect id="Rectángulo_45222" data-name="Rectángulo 45222" width="3.279" height="3.279" transform="translate(261.721 1852.19) rotate(-90)" fill="#1894f6"/>
    <rect id="Rectángulo_45223" data-name="Rectángulo 45223" width="3.279" height="3.279" transform="translate(261.721 1859.158) rotate(-90)" fill="#1894f6"/>
    <rect id="Rectángulo_45224" data-name="Rectángulo 45224" width="3.279" height="3.279" transform="translate(261.721 1866.127) rotate(-90)" fill="#1894f6"/>
    <rect id="Rectángulo_45225" data-name="Rectángulo 45225" width="3.279" height="3.279" transform="translate(261.721 1873.095) rotate(-90)" fill="#1894f6"/>
    <rect id="Rectángulo_45232" data-name="Rectángulo 45232" width="3.279" height="3.279" transform="translate(254.753 1845.223) rotate(-90)" fill="#1894f6"/>
    <rect id="Rectángulo_45233" data-name="Rectángulo 45233" width="3.279" height="3.279" transform="translate(254.753 1852.19) rotate(-90)" fill="#1894f6"/>
    <rect id="Rectángulo_45234" data-name="Rectángulo 45234" width="3.279" height="3.279" transform="translate(254.753 1859.158) rotate(-90)" fill="#1894f6"/>
    <rect id="Rectángulo_45235" data-name="Rectángulo 45235" width="3.279" height="3.279" transform="translate(254.753 1866.127) rotate(-90)" fill="#1894f6"/>
    <rect id="Rectángulo_45236" data-name="Rectángulo 45236" width="3.279" height="3.279" transform="translate(254.753 1873.095) rotate(-90)" fill="#1894f6"/>
    <rect id="Rectángulo_45243" data-name="Rectángulo 45243" width="3.279" height="3.279" transform="translate(247.785 1845.223) rotate(-90)" fill="#1894f6"/>
    <rect id="Rectángulo_45244" data-name="Rectángulo 45244" width="3.279" height="3.279" transform="translate(247.785 1852.19) rotate(-90)" fill="#1894f6"/>
    <rect id="Rectángulo_45245" data-name="Rectángulo 45245" width="3.279" height="3.279" transform="translate(247.785 1859.158) rotate(-90)" fill="#1894f6"/>
    <rect id="Rectángulo_45246" data-name="Rectángulo 45246" width="3.279" height="3.279" transform="translate(247.785 1866.127) rotate(-90)" fill="#1894f6"/>
    <rect id="Rectángulo_45247" data-name="Rectángulo 45247" width="3.279" height="3.279" transform="translate(247.785 1873.095) rotate(-90)" fill="#1894f6"/>
    <rect id="Rectángulo_45221-2" data-name="Rectángulo 45221" width="3.279" height="3.279" transform="translate(241.399 1845.223) rotate(-90)" fill="#1894f6"/>
    <rect id="Rectángulo_45222-2" data-name="Rectángulo 45222" width="3.279" height="3.279" transform="translate(241.399 1852.19) rotate(-90)" fill="#1894f6"/>
    <rect id="Rectángulo_45223-2" data-name="Rectángulo 45223" width="3.279" height="3.279" transform="translate(241.399 1859.159) rotate(-90)" fill="#1894f6"/>
    <rect id="Rectángulo_45224-2" data-name="Rectángulo 45224" width="3.279" height="3.279" transform="translate(241.399 1866.127) rotate(-90)" fill="#1894f6"/>
    <rect id="Rectángulo_45225-2" data-name="Rectángulo 45225" width="3.279" height="3.279" transform="translate(241.399 1873.095) rotate(-90)" fill="#1894f6"/>
    <rect id="Rectángulo_45232-2" data-name="Rectángulo 45232" width="3.279" height="3.279" transform="translate(234.431 1845.223) rotate(-90)" fill="#1894f6"/>
    <rect id="Rectángulo_45279" data-name="Rectángulo 45279" width="3.279" height="3.279" transform="translate(220.495 1845.223) rotate(-90)" fill="#1894f6"/>
    <rect id="Rectángulo_45233-2" data-name="Rectángulo 45233" width="3.279" height="3.279" transform="translate(234.431 1852.19) rotate(-90)" fill="#1894f6"/>
    <rect id="Rectángulo_45280" data-name="Rectángulo 45280" width="3.279" height="3.279" transform="translate(220.495 1852.19) rotate(-90)" fill="#1894f6"/>
    <rect id="Rectángulo_45234-2" data-name="Rectángulo 45234" width="3.279" height="3.279" transform="translate(234.431 1859.159) rotate(-90)" fill="#1894f6"/>
    <rect id="Rectángulo_45281" data-name="Rectángulo 45281" width="3.279" height="3.279" transform="translate(220.495 1859.159) rotate(-90)" fill="#1894f6"/>
    <rect id="Rectángulo_45235-2" data-name="Rectángulo 45235" width="3.279" height="3.279" transform="translate(234.431 1866.127) rotate(-90)" fill="#1894f6"/>
    <rect id="Rectángulo_45282" data-name="Rectángulo 45282" width="3.279" height="3.279" transform="translate(220.495 1866.127) rotate(-90)" fill="#1894f6"/>
    <rect id="Rectángulo_45236-2" data-name="Rectángulo 45236" width="3.279" height="3.279" transform="translate(234.431 1873.095) rotate(-90)" fill="#1894f6"/>
    <rect id="Rectángulo_45283" data-name="Rectángulo 45283" width="3.279" height="3.279" transform="translate(220.495 1873.095) rotate(-90)" fill="#1894f6"/>
    <rect id="Rectángulo_45243-2" data-name="Rectángulo 45243" width="3.279" height="3.279" transform="translate(227.463 1845.223) rotate(-90)" fill="#1894f6"/>
    <rect id="Rectángulo_45268" data-name="Rectángulo 45268" width="3.279" height="3.279" transform="translate(213.526 1845.223) rotate(-90)" fill="#1894f6"/>
    <rect id="Rectángulo_45244-2" data-name="Rectángulo 45244" width="3.279" height="3.279" transform="translate(227.463 1852.19) rotate(-90)" fill="#1894f6"/>
    <rect id="Rectángulo_45269" data-name="Rectángulo 45269" width="3.279" height="3.279" transform="translate(213.526 1852.19) rotate(-90)" fill="#1894f6"/>
    <rect id="Rectángulo_45245-2" data-name="Rectángulo 45245" width="3.279" height="3.279" transform="translate(227.463 1859.159) rotate(-90)" fill="#1894f6"/>
    <rect id="Rectángulo_45270" data-name="Rectángulo 45270" width="3.279" height="3.279" transform="translate(213.526 1859.159) rotate(-90)" fill="#1894f6"/>
    <rect id="Rectángulo_45246-2" data-name="Rectángulo 45246" width="3.279" height="3.279" transform="translate(227.463 1866.127) rotate(-90)" fill="#1894f6"/>
    <rect id="Rectángulo_45271" data-name="Rectángulo 45271" width="3.279" height="3.279" transform="translate(213.526 1866.127) rotate(-90)" fill="#1894f6"/>
    <rect id="Rectángulo_45247-2" data-name="Rectángulo 45247" width="3.279" height="3.279" transform="translate(227.463 1873.095) rotate(-90)" fill="#1894f6"/>
    <rect id="Rectángulo_45272" data-name="Rectángulo 45272" width="3.279" height="3.279" transform="translate(213.526 1873.095) rotate(-90)" fill="#1894f6"/>
  </g>
</svg>
