<svg xmlns="http://www.w3.org/2000/svg" xmlns:xlink="http://www.w3.org/1999/xlink" width="505" height="171.19" viewBox="0 0 505 171.19">
  <defs>
    <clipPath id="clip-path">
      <path id="Trazado_194825" data-name="Trazado 194825" d="M66.707,259.349a54.37,54.37,0,1,0,54.37-54.37,54.37,54.37,0,0,0-54.37,54.37" transform="translate(-66.707 -204.979)" fill="#7f4fc7"/>
    </clipPath>
    <clipPath id="clip-path-2">
      <path id="Trazado_194907" data-name="Trazado 194907" d="M0,97.977A44.644,44.644,0,1,0,44.644,53.333,44.643,44.643,0,0,0,0,97.977" transform="translate(0 -53.333)" fill="#7f4fc7"/>
    </clipPath>
    <linearGradient id="linear-gradient" x1="0.5" x2="0.5" y2="1" gradientUnits="objectBoundingBox">
      <stop offset="0" stop-color="#7e53c5"/>
      <stop offset="1" stop-color="#5b14d9"/>
    </linearGradient>
  </defs>
  <g id="Grupo_156906" data-name="Grupo 156906" transform="translate(-180 -863.343)">
    <g id="Grupo_152807" data-name="Grupo 152807" transform="translate(180 863.343)">
      <g id="Grupo_152767" data-name="Grupo 152767" transform="translate(356.493 0)">
        <g id="Grupo_152766" data-name="Grupo 152766" transform="translate(0)" clip-path="url(#clip-path)">
          <path id="Trazado_194744" data-name="Trazado 194744" d="M69.568,206.409a1.431,1.431,0,1,0-1.431,1.431,1.43,1.43,0,0,0,1.431-1.431" transform="translate(-66.707 -204.979)" fill="#7f4fc7"/>
          <path id="Trazado_194745" data-name="Trazado 194745" d="M79.643,206.409a1.431,1.431,0,1,0-1.431,1.431,1.43,1.43,0,0,0,1.431-1.431" transform="translate(-63.547 -204.979)" fill="#7f4fc7"/>
          <path id="Trazado_194746" data-name="Trazado 194746" d="M89.718,206.409a1.431,1.431,0,1,0-1.431,1.431,1.43,1.43,0,0,0,1.431-1.431" transform="translate(-60.387 -204.979)" fill="#7f4fc7"/>
          <path id="Trazado_194747" data-name="Trazado 194747" d="M99.793,206.409a1.431,1.431,0,1,0-1.431,1.431,1.43,1.43,0,0,0,1.431-1.431" transform="translate(-57.227 -204.979)" fill="#7f4fc7"/>
          <path id="Trazado_194748" data-name="Trazado 194748" d="M109.869,206.409a1.431,1.431,0,1,0-1.432,1.431,1.432,1.432,0,0,0,1.432-1.431" transform="translate(-54.067 -204.979)" fill="#7f4fc7"/>
          <path id="Trazado_194749" data-name="Trazado 194749" d="M119.943,206.409a1.431,1.431,0,1,0-1.431,1.431,1.43,1.43,0,0,0,1.431-1.431" transform="translate(-50.907 -204.979)" fill="#7f4fc7"/>
          <path id="Trazado_194750" data-name="Trazado 194750" d="M130.019,206.409a1.431,1.431,0,1,0-1.431,1.431,1.43,1.43,0,0,0,1.431-1.431" transform="translate(-47.747 -204.979)" fill="#7f4fc7"/>
          <path id="Trazado_194751" data-name="Trazado 194751" d="M140.094,206.409a1.431,1.431,0,1,0-1.431,1.431,1.43,1.43,0,0,0,1.431-1.431" transform="translate(-44.587 -204.979)" fill="#7f4fc7"/>
          <path id="Trazado_194752" data-name="Trazado 194752" d="M150.169,206.409a1.431,1.431,0,1,0-1.431,1.431,1.43,1.43,0,0,0,1.431-1.431" transform="translate(-41.427 -204.979)" fill="#7f4fc7"/>
          <path id="Trazado_194753" data-name="Trazado 194753" d="M69.568,216.484a1.431,1.431,0,1,0-1.431,1.431,1.43,1.43,0,0,0,1.431-1.431" transform="translate(-66.707 -201.819)" fill="#7f4fc7"/>
          <path id="Trazado_194754" data-name="Trazado 194754" d="M79.643,216.484a1.431,1.431,0,1,0-1.431,1.431,1.43,1.43,0,0,0,1.431-1.431" transform="translate(-63.547 -201.819)" fill="#7f4fc7"/>
          <path id="Trazado_194755" data-name="Trazado 194755" d="M89.718,216.484a1.431,1.431,0,1,0-1.431,1.431,1.43,1.43,0,0,0,1.431-1.431" transform="translate(-60.387 -201.819)" fill="#7f4fc7"/>
          <path id="Trazado_194756" data-name="Trazado 194756" d="M99.793,216.484a1.431,1.431,0,1,0-1.431,1.431,1.43,1.43,0,0,0,1.431-1.431" transform="translate(-57.227 -201.819)" fill="#7f4fc7"/>
          <path id="Trazado_194757" data-name="Trazado 194757" d="M109.869,216.484a1.431,1.431,0,1,0-1.432,1.431,1.432,1.432,0,0,0,1.432-1.431" transform="translate(-54.067 -201.819)" fill="#7f4fc7"/>
          <path id="Trazado_194758" data-name="Trazado 194758" d="M119.943,216.484a1.431,1.431,0,1,0-1.431,1.431,1.43,1.43,0,0,0,1.431-1.431" transform="translate(-50.907 -201.819)" fill="#7f4fc7"/>
          <path id="Trazado_194759" data-name="Trazado 194759" d="M130.019,216.484a1.431,1.431,0,1,0-1.431,1.431,1.43,1.43,0,0,0,1.431-1.431" transform="translate(-47.747 -201.819)" fill="#7f4fc7"/>
          <path id="Trazado_194760" data-name="Trazado 194760" d="M140.094,216.484a1.431,1.431,0,1,0-1.431,1.431,1.43,1.43,0,0,0,1.431-1.431" transform="translate(-44.587 -201.819)" fill="#7f4fc7"/>
          <path id="Trazado_194761" data-name="Trazado 194761" d="M150.169,216.484a1.431,1.431,0,1,0-1.431,1.431,1.43,1.43,0,0,0,1.431-1.431" transform="translate(-41.427 -201.819)" fill="#7f4fc7"/>
          <path id="Trazado_194762" data-name="Trazado 194762" d="M69.568,226.559a1.431,1.431,0,1,0-1.431,1.431,1.43,1.43,0,0,0,1.431-1.431" transform="translate(-66.707 -198.659)" fill="#7f4fc7"/>
          <path id="Trazado_194763" data-name="Trazado 194763" d="M79.643,226.559a1.431,1.431,0,1,0-1.431,1.431,1.43,1.43,0,0,0,1.431-1.431" transform="translate(-63.547 -198.659)" fill="#7f4fc7"/>
          <path id="Trazado_194764" data-name="Trazado 194764" d="M89.718,226.559a1.431,1.431,0,1,0-1.431,1.431,1.43,1.43,0,0,0,1.431-1.431" transform="translate(-60.387 -198.659)" fill="#7f4fc7"/>
          <path id="Trazado_194765" data-name="Trazado 194765" d="M99.793,226.559a1.431,1.431,0,1,0-1.431,1.431,1.43,1.43,0,0,0,1.431-1.431" transform="translate(-57.227 -198.659)" fill="#7f4fc7"/>
          <path id="Trazado_194766" data-name="Trazado 194766" d="M109.869,226.559a1.431,1.431,0,1,0-1.432,1.431,1.432,1.432,0,0,0,1.432-1.431" transform="translate(-54.067 -198.659)" fill="#7f4fc7"/>
          <path id="Trazado_194767" data-name="Trazado 194767" d="M119.943,226.559a1.431,1.431,0,1,0-1.431,1.431,1.43,1.43,0,0,0,1.431-1.431" transform="translate(-50.907 -198.659)" fill="#7f4fc7"/>
          <path id="Trazado_194768" data-name="Trazado 194768" d="M130.019,226.559a1.431,1.431,0,1,0-1.431,1.431,1.43,1.43,0,0,0,1.431-1.431" transform="translate(-47.747 -198.659)" fill="#7f4fc7"/>
          <path id="Trazado_194769" data-name="Trazado 194769" d="M140.094,226.559a1.431,1.431,0,1,0-1.431,1.431,1.43,1.43,0,0,0,1.431-1.431" transform="translate(-44.587 -198.659)" fill="#7f4fc7"/>
          <path id="Trazado_194770" data-name="Trazado 194770" d="M150.169,226.559a1.431,1.431,0,1,0-1.431,1.431,1.43,1.43,0,0,0,1.431-1.431" transform="translate(-41.427 -198.659)" fill="#7f4fc7"/>
          <path id="Trazado_194771" data-name="Trazado 194771" d="M69.568,236.634a1.431,1.431,0,1,0-1.431,1.431,1.43,1.43,0,0,0,1.431-1.431" transform="translate(-66.707 -195.499)" fill="#7f4fc7"/>
          <path id="Trazado_194772" data-name="Trazado 194772" d="M79.643,236.634a1.431,1.431,0,1,0-1.431,1.431,1.43,1.43,0,0,0,1.431-1.431" transform="translate(-63.547 -195.499)" fill="#7f4fc7"/>
          <path id="Trazado_194773" data-name="Trazado 194773" d="M89.718,236.634a1.431,1.431,0,1,0-1.431,1.431,1.43,1.43,0,0,0,1.431-1.431" transform="translate(-60.387 -195.499)" fill="#7f4fc7"/>
          <path id="Trazado_194774" data-name="Trazado 194774" d="M99.793,236.634a1.431,1.431,0,1,0-1.431,1.431,1.43,1.43,0,0,0,1.431-1.431" transform="translate(-57.227 -195.499)" fill="#7f4fc7"/>
          <path id="Trazado_194775" data-name="Trazado 194775" d="M109.869,236.634a1.431,1.431,0,1,0-1.432,1.431,1.432,1.432,0,0,0,1.432-1.431" transform="translate(-54.067 -195.499)" fill="#7f4fc7"/>
          <path id="Trazado_194776" data-name="Trazado 194776" d="M119.943,236.634a1.431,1.431,0,1,0-1.431,1.431,1.43,1.43,0,0,0,1.431-1.431" transform="translate(-50.907 -195.499)" fill="#7f4fc7"/>
          <path id="Trazado_194777" data-name="Trazado 194777" d="M130.019,236.634a1.431,1.431,0,1,0-1.431,1.431,1.43,1.43,0,0,0,1.431-1.431" transform="translate(-47.747 -195.499)" fill="#7f4fc7"/>
          <path id="Trazado_194778" data-name="Trazado 194778" d="M140.094,236.634a1.431,1.431,0,1,0-1.431,1.431,1.43,1.43,0,0,0,1.431-1.431" transform="translate(-44.587 -195.499)" fill="#7f4fc7"/>
          <path id="Trazado_194779" data-name="Trazado 194779" d="M150.169,236.634a1.431,1.431,0,1,0-1.431,1.431,1.43,1.43,0,0,0,1.431-1.431" transform="translate(-41.427 -195.499)" fill="#7f4fc7"/>
          <path id="Trazado_194780" data-name="Trazado 194780" d="M69.568,246.71a1.431,1.431,0,1,0-1.431,1.431,1.43,1.43,0,0,0,1.431-1.431" transform="translate(-66.707 -192.339)" fill="#7f4fc7"/>
          <path id="Trazado_194781" data-name="Trazado 194781" d="M79.643,246.71a1.431,1.431,0,1,0-1.431,1.431,1.43,1.43,0,0,0,1.431-1.431" transform="translate(-63.547 -192.339)" fill="#7f4fc7"/>
          <path id="Trazado_194782" data-name="Trazado 194782" d="M89.718,246.71a1.431,1.431,0,1,0-1.431,1.431,1.43,1.43,0,0,0,1.431-1.431" transform="translate(-60.387 -192.339)" fill="#7f4fc7"/>
          <path id="Trazado_194783" data-name="Trazado 194783" d="M99.793,246.71a1.431,1.431,0,1,0-1.431,1.431,1.43,1.43,0,0,0,1.431-1.431" transform="translate(-57.227 -192.339)" fill="#7f4fc7"/>
          <path id="Trazado_194784" data-name="Trazado 194784" d="M109.869,246.71a1.431,1.431,0,1,0-1.432,1.431,1.432,1.432,0,0,0,1.432-1.431" transform="translate(-54.067 -192.339)" fill="#7f4fc7"/>
          <path id="Trazado_194785" data-name="Trazado 194785" d="M119.943,246.71a1.431,1.431,0,1,0-1.431,1.431,1.43,1.43,0,0,0,1.431-1.431" transform="translate(-50.907 -192.339)" fill="#7f4fc7"/>
          <path id="Trazado_194786" data-name="Trazado 194786" d="M130.019,246.71a1.431,1.431,0,1,0-1.431,1.431,1.43,1.43,0,0,0,1.431-1.431" transform="translate(-47.747 -192.339)" fill="#7f4fc7"/>
          <path id="Trazado_194787" data-name="Trazado 194787" d="M140.094,246.71a1.431,1.431,0,1,0-1.431,1.431,1.43,1.43,0,0,0,1.431-1.431" transform="translate(-44.587 -192.339)" fill="#7f4fc7"/>
          <path id="Trazado_194788" data-name="Trazado 194788" d="M150.169,246.71a1.431,1.431,0,1,0-1.431,1.431,1.43,1.43,0,0,0,1.431-1.431" transform="translate(-41.427 -192.339)" fill="#7f4fc7"/>
          <path id="Trazado_194789" data-name="Trazado 194789" d="M69.568,256.785a1.431,1.431,0,1,0-1.431,1.431,1.43,1.43,0,0,0,1.431-1.431" transform="translate(-66.707 -189.179)" fill="#7f4fc7"/>
          <path id="Trazado_194790" data-name="Trazado 194790" d="M79.643,256.785a1.431,1.431,0,1,0-1.431,1.431,1.43,1.43,0,0,0,1.431-1.431" transform="translate(-63.547 -189.179)" fill="#7f4fc7"/>
          <path id="Trazado_194791" data-name="Trazado 194791" d="M89.718,256.785a1.431,1.431,0,1,0-1.431,1.431,1.43,1.43,0,0,0,1.431-1.431" transform="translate(-60.387 -189.179)" fill="#7f4fc7"/>
          <path id="Trazado_194792" data-name="Trazado 194792" d="M99.793,256.785a1.431,1.431,0,1,0-1.431,1.431,1.43,1.43,0,0,0,1.431-1.431" transform="translate(-57.227 -189.179)" fill="#7f4fc7"/>
          <path id="Trazado_194793" data-name="Trazado 194793" d="M109.869,256.785a1.431,1.431,0,1,0-1.432,1.431,1.432,1.432,0,0,0,1.432-1.431" transform="translate(-54.067 -189.179)" fill="#7f4fc7"/>
          <path id="Trazado_194794" data-name="Trazado 194794" d="M119.943,256.785a1.431,1.431,0,1,0-1.431,1.431,1.43,1.43,0,0,0,1.431-1.431" transform="translate(-50.907 -189.179)" fill="#7f4fc7"/>
          <path id="Trazado_194795" data-name="Trazado 194795" d="M130.019,256.785a1.431,1.431,0,1,0-1.431,1.431,1.43,1.43,0,0,0,1.431-1.431" transform="translate(-47.747 -189.179)" fill="#7f4fc7"/>
          <path id="Trazado_194796" data-name="Trazado 194796" d="M140.094,256.785a1.431,1.431,0,1,0-1.431,1.431,1.43,1.43,0,0,0,1.431-1.431" transform="translate(-44.587 -189.179)" fill="#7f4fc7"/>
          <path id="Trazado_194797" data-name="Trazado 194797" d="M150.169,256.785a1.431,1.431,0,1,0-1.431,1.431,1.43,1.43,0,0,0,1.431-1.431" transform="translate(-41.427 -189.179)" fill="#7f4fc7"/>
          <path id="Trazado_194798" data-name="Trazado 194798" d="M69.568,266.86a1.431,1.431,0,1,0-1.431,1.431,1.43,1.43,0,0,0,1.431-1.431" transform="translate(-66.707 -186.019)" fill="#7f4fc7"/>
          <path id="Trazado_194799" data-name="Trazado 194799" d="M79.643,266.86a1.431,1.431,0,1,0-1.431,1.431,1.43,1.43,0,0,0,1.431-1.431" transform="translate(-63.547 -186.019)" fill="#7f4fc7"/>
          <path id="Trazado_194800" data-name="Trazado 194800" d="M89.718,266.86a1.431,1.431,0,1,0-1.431,1.431,1.43,1.43,0,0,0,1.431-1.431" transform="translate(-60.387 -186.019)" fill="#7f4fc7"/>
          <path id="Trazado_194801" data-name="Trazado 194801" d="M99.793,266.86a1.431,1.431,0,1,0-1.431,1.431,1.43,1.43,0,0,0,1.431-1.431" transform="translate(-57.227 -186.019)" fill="#7f4fc7"/>
          <path id="Trazado_194802" data-name="Trazado 194802" d="M109.869,266.86a1.431,1.431,0,1,0-1.432,1.431,1.432,1.432,0,0,0,1.432-1.431" transform="translate(-54.067 -186.019)" fill="#7f4fc7"/>
          <path id="Trazado_194803" data-name="Trazado 194803" d="M119.943,266.86a1.431,1.431,0,1,0-1.431,1.431,1.43,1.43,0,0,0,1.431-1.431" transform="translate(-50.907 -186.019)" fill="#7f4fc7"/>
          <path id="Trazado_194804" data-name="Trazado 194804" d="M130.019,266.86a1.431,1.431,0,1,0-1.431,1.431,1.43,1.43,0,0,0,1.431-1.431" transform="translate(-47.747 -186.019)" fill="#7f4fc7"/>
          <path id="Trazado_194805" data-name="Trazado 194805" d="M140.094,266.86a1.431,1.431,0,1,0-1.431,1.431,1.43,1.43,0,0,0,1.431-1.431" transform="translate(-44.587 -186.019)" fill="#7f4fc7"/>
          <path id="Trazado_194806" data-name="Trazado 194806" d="M150.169,266.86a1.431,1.431,0,1,0-1.431,1.431,1.43,1.43,0,0,0,1.431-1.431" transform="translate(-41.427 -186.019)" fill="#7f4fc7"/>
          <path id="Trazado_194807" data-name="Trazado 194807" d="M69.568,276.935a1.431,1.431,0,1,0-1.431,1.431,1.43,1.43,0,0,0,1.431-1.431" transform="translate(-66.707 -182.859)" fill="#7f4fc7"/>
          <path id="Trazado_194808" data-name="Trazado 194808" d="M79.643,276.935a1.431,1.431,0,1,0-1.431,1.431,1.43,1.43,0,0,0,1.431-1.431" transform="translate(-63.547 -182.859)" fill="#7f4fc7"/>
          <path id="Trazado_194809" data-name="Trazado 194809" d="M89.718,276.935a1.431,1.431,0,1,0-1.431,1.431,1.43,1.43,0,0,0,1.431-1.431" transform="translate(-60.387 -182.859)" fill="#7f4fc7"/>
          <path id="Trazado_194810" data-name="Trazado 194810" d="M99.793,276.935a1.431,1.431,0,1,0-1.431,1.431,1.43,1.43,0,0,0,1.431-1.431" transform="translate(-57.227 -182.859)" fill="#7f4fc7"/>
          <path id="Trazado_194811" data-name="Trazado 194811" d="M109.869,276.935a1.431,1.431,0,1,0-1.432,1.431,1.432,1.432,0,0,0,1.432-1.431" transform="translate(-54.067 -182.859)" fill="#7f4fc7"/>
          <path id="Trazado_194812" data-name="Trazado 194812" d="M119.943,276.935a1.431,1.431,0,1,0-1.431,1.431,1.43,1.43,0,0,0,1.431-1.431" transform="translate(-50.907 -182.859)" fill="#7f4fc7"/>
          <path id="Trazado_194813" data-name="Trazado 194813" d="M130.019,276.935a1.431,1.431,0,1,0-1.431,1.431,1.43,1.43,0,0,0,1.431-1.431" transform="translate(-47.747 -182.859)" fill="#7f4fc7"/>
          <path id="Trazado_194814" data-name="Trazado 194814" d="M140.094,276.935a1.431,1.431,0,1,0-1.431,1.431,1.43,1.43,0,0,0,1.431-1.431" transform="translate(-44.587 -182.859)" fill="#7f4fc7"/>
          <path id="Trazado_194815" data-name="Trazado 194815" d="M150.169,276.935a1.431,1.431,0,1,0-1.431,1.431,1.43,1.43,0,0,0,1.431-1.431" transform="translate(-41.427 -182.859)" fill="#7f4fc7"/>
          <path id="Trazado_194816" data-name="Trazado 194816" d="M69.568,287.01a1.431,1.431,0,1,0-1.431,1.431,1.43,1.43,0,0,0,1.431-1.431" transform="translate(-66.707 -179.699)" fill="#7f4fc7"/>
          <path id="Trazado_194817" data-name="Trazado 194817" d="M79.643,287.01a1.431,1.431,0,1,0-1.431,1.431,1.43,1.43,0,0,0,1.431-1.431" transform="translate(-63.547 -179.699)" fill="#7f4fc7"/>
          <path id="Trazado_194818" data-name="Trazado 194818" d="M89.718,287.01a1.431,1.431,0,1,0-1.431,1.431,1.43,1.43,0,0,0,1.431-1.431" transform="translate(-60.387 -179.699)" fill="#7f4fc7"/>
          <path id="Trazado_194819" data-name="Trazado 194819" d="M99.793,287.01a1.431,1.431,0,1,0-1.431,1.431,1.43,1.43,0,0,0,1.431-1.431" transform="translate(-57.227 -179.699)" fill="#7f4fc7"/>
          <path id="Trazado_194820" data-name="Trazado 194820" d="M109.869,287.01a1.431,1.431,0,1,0-1.432,1.431,1.432,1.432,0,0,0,1.432-1.431" transform="translate(-54.067 -179.699)" fill="#7f4fc7"/>
          <path id="Trazado_194821" data-name="Trazado 194821" d="M119.943,287.01a1.431,1.431,0,1,0-1.431,1.431,1.43,1.43,0,0,0,1.431-1.431" transform="translate(-50.907 -179.699)" fill="#7f4fc7"/>
          <path id="Trazado_194822" data-name="Trazado 194822" d="M130.019,287.01a1.431,1.431,0,1,0-1.431,1.431,1.43,1.43,0,0,0,1.431-1.431" transform="translate(-47.747 -179.699)" fill="#7f4fc7"/>
          <path id="Trazado_194823" data-name="Trazado 194823" d="M140.094,287.01a1.431,1.431,0,1,0-1.431,1.431,1.43,1.43,0,0,0,1.431-1.431" transform="translate(-44.587 -179.699)" fill="#7f4fc7"/>
          <path id="Trazado_194824" data-name="Trazado 194824" d="M150.169,287.01a1.431,1.431,0,1,0-1.431,1.431,1.43,1.43,0,0,0,1.431-1.431" transform="translate(-41.427 -179.699)" fill="#7f4fc7"/>
        </g>
      </g>
      <g id="Grupo_152769" data-name="Grupo 152769" transform="translate(0 74.367)">
        <g id="Grupo_152768" data-name="Grupo 152768" transform="translate(0 0)" clip-path="url(#clip-path-2)">
          <path id="Trazado_194826" data-name="Trazado 194826" d="M2.35,54.507a1.175,1.175,0,1,0-1.174,1.176A1.175,1.175,0,0,0,2.35,54.507" transform="translate(0 -53.333)" fill="#7f4fc7"/>
          <path id="Trazado_194827" data-name="Trazado 194827" d="M10.622,54.507a1.175,1.175,0,1,0-1.174,1.176,1.175,1.175,0,0,0,1.174-1.176" transform="translate(2.594 -53.333)" fill="#7f4fc7"/>
          <path id="Trazado_194828" data-name="Trazado 194828" d="M18.9,54.507a1.175,1.175,0,1,0-1.174,1.176A1.175,1.175,0,0,0,18.9,54.507" transform="translate(5.189 -53.333)" fill="#7f4fc7"/>
          <path id="Trazado_194829" data-name="Trazado 194829" d="M27.168,54.507a1.175,1.175,0,1,0-1.174,1.176,1.175,1.175,0,0,0,1.174-1.176" transform="translate(7.784 -53.333)" fill="#7f4fc7"/>
          <path id="Trazado_194830" data-name="Trazado 194830" d="M35.44,54.507a1.175,1.175,0,1,0-1.174,1.176,1.175,1.175,0,0,0,1.174-1.176" transform="translate(10.378 -53.333)" fill="#7f4fc7"/>
          <path id="Trazado_194831" data-name="Trazado 194831" d="M43.713,54.507a1.175,1.175,0,1,0-1.174,1.176,1.175,1.175,0,0,0,1.174-1.176" transform="translate(12.973 -53.333)" fill="#7f4fc7"/>
          <path id="Trazado_194832" data-name="Trazado 194832" d="M51.985,54.507a1.175,1.175,0,1,0-1.174,1.176,1.175,1.175,0,0,0,1.174-1.176" transform="translate(15.568 -53.333)" fill="#7f4fc7"/>
          <path id="Trazado_194833" data-name="Trazado 194833" d="M60.258,54.507a1.175,1.175,0,1,0-1.174,1.176,1.176,1.176,0,0,0,1.174-1.176" transform="translate(18.162 -53.333)" fill="#7f4fc7"/>
          <path id="Trazado_194834" data-name="Trazado 194834" d="M68.531,54.507a1.175,1.175,0,1,0-1.174,1.176,1.175,1.175,0,0,0,1.174-1.176" transform="translate(20.757 -53.333)" fill="#7f4fc7"/>
          <path id="Trazado_194835" data-name="Trazado 194835" d="M2.35,62.78a1.175,1.175,0,1,0-1.174,1.174A1.174,1.174,0,0,0,2.35,62.78" transform="translate(0 -50.738)" fill="#7f4fc7"/>
          <path id="Trazado_194836" data-name="Trazado 194836" d="M10.622,62.78a1.175,1.175,0,1,0-1.174,1.174,1.174,1.174,0,0,0,1.174-1.174" transform="translate(2.594 -50.738)" fill="#7f4fc7"/>
          <path id="Trazado_194837" data-name="Trazado 194837" d="M18.9,62.78a1.175,1.175,0,1,0-1.174,1.174A1.174,1.174,0,0,0,18.9,62.78" transform="translate(5.189 -50.738)" fill="#7f4fc7"/>
          <path id="Trazado_194838" data-name="Trazado 194838" d="M27.168,62.78a1.175,1.175,0,1,0-1.174,1.174,1.174,1.174,0,0,0,1.174-1.174" transform="translate(7.784 -50.738)" fill="#7f4fc7"/>
          <path id="Trazado_194839" data-name="Trazado 194839" d="M35.44,62.78a1.175,1.175,0,1,0-1.174,1.174A1.174,1.174,0,0,0,35.44,62.78" transform="translate(10.378 -50.738)" fill="#7f4fc7"/>
          <path id="Trazado_194840" data-name="Trazado 194840" d="M43.713,62.78a1.175,1.175,0,1,0-1.174,1.174,1.174,1.174,0,0,0,1.174-1.174" transform="translate(12.973 -50.738)" fill="#7f4fc7"/>
          <path id="Trazado_194841" data-name="Trazado 194841" d="M51.985,62.78a1.175,1.175,0,1,0-1.174,1.174,1.174,1.174,0,0,0,1.174-1.174" transform="translate(15.568 -50.738)" fill="#7f4fc7"/>
          <path id="Trazado_194842" data-name="Trazado 194842" d="M60.258,62.78a1.175,1.175,0,1,0-1.174,1.174,1.175,1.175,0,0,0,1.174-1.174" transform="translate(18.162 -50.738)" fill="#7f4fc7"/>
          <path id="Trazado_194843" data-name="Trazado 194843" d="M68.531,62.78a1.175,1.175,0,1,0-1.174,1.174,1.174,1.174,0,0,0,1.174-1.174" transform="translate(20.757 -50.738)" fill="#7f4fc7"/>
          <path id="Trazado_194844" data-name="Trazado 194844" d="M2.35,71.053a1.175,1.175,0,1,0-1.174,1.174A1.174,1.174,0,0,0,2.35,71.053" transform="translate(0 -48.143)" fill="#7f4fc7"/>
          <path id="Trazado_194845" data-name="Trazado 194845" d="M10.622,71.053a1.175,1.175,0,1,0-1.174,1.174,1.174,1.174,0,0,0,1.174-1.174" transform="translate(2.594 -48.143)" fill="#7f4fc7"/>
          <path id="Trazado_194846" data-name="Trazado 194846" d="M18.9,71.053a1.175,1.175,0,1,0-1.174,1.174A1.174,1.174,0,0,0,18.9,71.053" transform="translate(5.189 -48.143)" fill="#7f4fc7"/>
          <path id="Trazado_194847" data-name="Trazado 194847" d="M27.168,71.053a1.175,1.175,0,1,0-1.174,1.174,1.174,1.174,0,0,0,1.174-1.174" transform="translate(7.784 -48.143)" fill="#7f4fc7"/>
          <path id="Trazado_194848" data-name="Trazado 194848" d="M35.44,71.053a1.175,1.175,0,1,0-1.174,1.174,1.174,1.174,0,0,0,1.174-1.174" transform="translate(10.378 -48.143)" fill="#7f4fc7"/>
          <path id="Trazado_194849" data-name="Trazado 194849" d="M43.713,71.053a1.175,1.175,0,1,0-1.174,1.174,1.174,1.174,0,0,0,1.174-1.174" transform="translate(12.973 -48.143)" fill="#7f4fc7"/>
          <path id="Trazado_194850" data-name="Trazado 194850" d="M51.985,71.053a1.175,1.175,0,1,0-1.174,1.174,1.174,1.174,0,0,0,1.174-1.174" transform="translate(15.568 -48.143)" fill="#7f4fc7"/>
          <path id="Trazado_194851" data-name="Trazado 194851" d="M60.258,71.053a1.175,1.175,0,1,0-1.174,1.174,1.175,1.175,0,0,0,1.174-1.174" transform="translate(18.162 -48.143)" fill="#7f4fc7"/>
          <path id="Trazado_194852" data-name="Trazado 194852" d="M68.531,71.053a1.175,1.175,0,1,0-1.174,1.174,1.174,1.174,0,0,0,1.174-1.174" transform="translate(20.757 -48.143)" fill="#7f4fc7"/>
          <path id="Trazado_194853" data-name="Trazado 194853" d="M2.35,79.325A1.175,1.175,0,1,0,1.176,80.5,1.174,1.174,0,0,0,2.35,79.325" transform="translate(0 -45.549)" fill="#7f4fc7"/>
          <path id="Trazado_194854" data-name="Trazado 194854" d="M10.622,79.325A1.175,1.175,0,1,0,9.448,80.5a1.174,1.174,0,0,0,1.174-1.174" transform="translate(2.594 -45.549)" fill="#7f4fc7"/>
          <path id="Trazado_194855" data-name="Trazado 194855" d="M18.9,79.325A1.175,1.175,0,1,0,17.721,80.5,1.174,1.174,0,0,0,18.9,79.325" transform="translate(5.189 -45.549)" fill="#7f4fc7"/>
          <path id="Trazado_194856" data-name="Trazado 194856" d="M27.168,79.325A1.175,1.175,0,1,0,25.994,80.5a1.174,1.174,0,0,0,1.174-1.174" transform="translate(7.784 -45.549)" fill="#7f4fc7"/>
          <path id="Trazado_194857" data-name="Trazado 194857" d="M35.44,79.325A1.175,1.175,0,1,0,34.266,80.5a1.174,1.174,0,0,0,1.174-1.174" transform="translate(10.378 -45.549)" fill="#7f4fc7"/>
          <path id="Trazado_194858" data-name="Trazado 194858" d="M43.713,79.325A1.175,1.175,0,1,0,42.539,80.5a1.174,1.174,0,0,0,1.174-1.174" transform="translate(12.973 -45.549)" fill="#7f4fc7"/>
          <path id="Trazado_194859" data-name="Trazado 194859" d="M51.985,79.325A1.175,1.175,0,1,0,50.811,80.5a1.174,1.174,0,0,0,1.174-1.174" transform="translate(15.568 -45.549)" fill="#7f4fc7"/>
          <path id="Trazado_194860" data-name="Trazado 194860" d="M60.258,79.325A1.175,1.175,0,1,0,59.084,80.5a1.175,1.175,0,0,0,1.174-1.174" transform="translate(18.162 -45.549)" fill="#7f4fc7"/>
          <path id="Trazado_194861" data-name="Trazado 194861" d="M68.531,79.325A1.175,1.175,0,1,0,67.357,80.5a1.174,1.174,0,0,0,1.174-1.174" transform="translate(20.757 -45.549)" fill="#7f4fc7"/>
          <path id="Trazado_194862" data-name="Trazado 194862" d="M2.35,87.6a1.175,1.175,0,1,0-1.174,1.176A1.174,1.174,0,0,0,2.35,87.6" transform="translate(0 -42.954)" fill="#7f4fc7"/>
          <path id="Trazado_194863" data-name="Trazado 194863" d="M10.622,87.6a1.175,1.175,0,1,0-1.174,1.176A1.174,1.174,0,0,0,10.622,87.6" transform="translate(2.594 -42.954)" fill="#7f4fc7"/>
          <path id="Trazado_194864" data-name="Trazado 194864" d="M18.9,87.6a1.175,1.175,0,1,0-1.174,1.176A1.174,1.174,0,0,0,18.9,87.6" transform="translate(5.189 -42.954)" fill="#7f4fc7"/>
          <path id="Trazado_194865" data-name="Trazado 194865" d="M27.168,87.6a1.175,1.175,0,1,0-1.174,1.176A1.174,1.174,0,0,0,27.168,87.6" transform="translate(7.784 -42.954)" fill="#7f4fc7"/>
          <path id="Trazado_194866" data-name="Trazado 194866" d="M35.44,87.6a1.175,1.175,0,1,0-1.174,1.176A1.174,1.174,0,0,0,35.44,87.6" transform="translate(10.378 -42.954)" fill="#7f4fc7"/>
          <path id="Trazado_194867" data-name="Trazado 194867" d="M43.713,87.6a1.175,1.175,0,1,0-1.174,1.176A1.174,1.174,0,0,0,43.713,87.6" transform="translate(12.973 -42.954)" fill="#7f4fc7"/>
          <path id="Trazado_194868" data-name="Trazado 194868" d="M51.985,87.6a1.175,1.175,0,1,0-1.174,1.176A1.174,1.174,0,0,0,51.985,87.6" transform="translate(15.568 -42.954)" fill="#7f4fc7"/>
          <path id="Trazado_194869" data-name="Trazado 194869" d="M60.258,87.6a1.175,1.175,0,1,0-1.174,1.176A1.175,1.175,0,0,0,60.258,87.6" transform="translate(18.162 -42.954)" fill="#7f4fc7"/>
          <path id="Trazado_194870" data-name="Trazado 194870" d="M68.531,87.6a1.175,1.175,0,1,0-1.174,1.176A1.174,1.174,0,0,0,68.531,87.6" transform="translate(20.757 -42.954)" fill="#7f4fc7"/>
          <path id="Trazado_194871" data-name="Trazado 194871" d="M2.35,95.871a1.175,1.175,0,1,0-1.174,1.174A1.174,1.174,0,0,0,2.35,95.871" transform="translate(0 -40.359)" fill="#7f4fc7"/>
          <path id="Trazado_194872" data-name="Trazado 194872" d="M10.622,95.871a1.175,1.175,0,1,0-1.174,1.174,1.174,1.174,0,0,0,1.174-1.174" transform="translate(2.594 -40.359)" fill="#7f4fc7"/>
          <path id="Trazado_194873" data-name="Trazado 194873" d="M18.9,95.871a1.175,1.175,0,1,0-1.174,1.174A1.174,1.174,0,0,0,18.9,95.871" transform="translate(5.189 -40.359)" fill="#7f4fc7"/>
          <path id="Trazado_194874" data-name="Trazado 194874" d="M27.168,95.871a1.175,1.175,0,1,0-1.174,1.174,1.174,1.174,0,0,0,1.174-1.174" transform="translate(7.784 -40.359)" fill="#7f4fc7"/>
          <path id="Trazado_194875" data-name="Trazado 194875" d="M35.44,95.871a1.175,1.175,0,1,0-1.174,1.174,1.174,1.174,0,0,0,1.174-1.174" transform="translate(10.378 -40.359)" fill="#7f4fc7"/>
          <path id="Trazado_194876" data-name="Trazado 194876" d="M43.713,95.871a1.175,1.175,0,1,0-1.174,1.174,1.174,1.174,0,0,0,1.174-1.174" transform="translate(12.973 -40.359)" fill="#7f4fc7"/>
          <path id="Trazado_194877" data-name="Trazado 194877" d="M51.985,95.871a1.175,1.175,0,1,0-1.174,1.174,1.174,1.174,0,0,0,1.174-1.174" transform="translate(15.568 -40.359)" fill="#7f4fc7"/>
          <path id="Trazado_194878" data-name="Trazado 194878" d="M60.258,95.871a1.175,1.175,0,1,0-1.174,1.174,1.175,1.175,0,0,0,1.174-1.174" transform="translate(18.162 -40.359)" fill="#7f4fc7"/>
          <path id="Trazado_194879" data-name="Trazado 194879" d="M68.531,95.871a1.175,1.175,0,1,0-1.174,1.174,1.174,1.174,0,0,0,1.174-1.174" transform="translate(20.757 -40.359)" fill="#7f4fc7"/>
          <path id="Trazado_194880" data-name="Trazado 194880" d="M2.35,104.143a1.175,1.175,0,1,0-1.174,1.174,1.174,1.174,0,0,0,1.174-1.174" transform="translate(0 -37.765)" fill="#7f4fc7"/>
          <path id="Trazado_194881" data-name="Trazado 194881" d="M10.622,104.143a1.175,1.175,0,1,0-1.174,1.174,1.174,1.174,0,0,0,1.174-1.174" transform="translate(2.594 -37.765)" fill="#7f4fc7"/>
          <path id="Trazado_194882" data-name="Trazado 194882" d="M18.9,104.143a1.175,1.175,0,1,0-1.174,1.174,1.174,1.174,0,0,0,1.174-1.174" transform="translate(5.189 -37.765)" fill="#7f4fc7"/>
          <path id="Trazado_194883" data-name="Trazado 194883" d="M27.168,104.143a1.175,1.175,0,1,0-1.174,1.174,1.174,1.174,0,0,0,1.174-1.174" transform="translate(7.784 -37.765)" fill="#7f4fc7"/>
          <path id="Trazado_194884" data-name="Trazado 194884" d="M35.44,104.143a1.175,1.175,0,1,0-1.174,1.174,1.174,1.174,0,0,0,1.174-1.174" transform="translate(10.378 -37.765)" fill="#7f4fc7"/>
          <path id="Trazado_194885" data-name="Trazado 194885" d="M43.713,104.143a1.175,1.175,0,1,0-1.174,1.174,1.174,1.174,0,0,0,1.174-1.174" transform="translate(12.973 -37.765)" fill="#7f4fc7"/>
          <path id="Trazado_194886" data-name="Trazado 194886" d="M51.985,104.143a1.175,1.175,0,1,0-1.174,1.174,1.174,1.174,0,0,0,1.174-1.174" transform="translate(15.568 -37.765)" fill="#7f4fc7"/>
          <path id="Trazado_194887" data-name="Trazado 194887" d="M60.258,104.143a1.175,1.175,0,1,0-1.174,1.174,1.175,1.175,0,0,0,1.174-1.174" transform="translate(18.162 -37.765)" fill="#7f4fc7"/>
          <path id="Trazado_194888" data-name="Trazado 194888" d="M68.531,104.143a1.175,1.175,0,1,0-1.174,1.174,1.174,1.174,0,0,0,1.174-1.174" transform="translate(20.757 -37.765)" fill="#7f4fc7"/>
          <path id="Trazado_194889" data-name="Trazado 194889" d="M2.35,112.416a1.175,1.175,0,1,0-1.174,1.174,1.174,1.174,0,0,0,1.174-1.174" transform="translate(0 -35.17)" fill="#7f4fc7"/>
          <path id="Trazado_194890" data-name="Trazado 194890" d="M10.622,112.416a1.175,1.175,0,1,0-1.174,1.174,1.174,1.174,0,0,0,1.174-1.174" transform="translate(2.594 -35.17)" fill="#7f4fc7"/>
          <path id="Trazado_194891" data-name="Trazado 194891" d="M18.9,112.416a1.175,1.175,0,1,0-1.174,1.174,1.174,1.174,0,0,0,1.174-1.174" transform="translate(5.189 -35.17)" fill="#7f4fc7"/>
          <path id="Trazado_194892" data-name="Trazado 194892" d="M27.168,112.416a1.175,1.175,0,1,0-1.174,1.174,1.174,1.174,0,0,0,1.174-1.174" transform="translate(7.784 -35.17)" fill="#7f4fc7"/>
          <path id="Trazado_194893" data-name="Trazado 194893" d="M35.44,112.416a1.175,1.175,0,1,0-1.174,1.174,1.174,1.174,0,0,0,1.174-1.174" transform="translate(10.378 -35.17)" fill="#7f4fc7"/>
          <path id="Trazado_194894" data-name="Trazado 194894" d="M43.713,112.416a1.175,1.175,0,1,0-1.174,1.174,1.174,1.174,0,0,0,1.174-1.174" transform="translate(12.973 -35.17)" fill="#7f4fc7"/>
          <path id="Trazado_194895" data-name="Trazado 194895" d="M51.985,112.416a1.175,1.175,0,1,0-1.174,1.174,1.174,1.174,0,0,0,1.174-1.174" transform="translate(15.568 -35.17)" fill="#7f4fc7"/>
          <path id="Trazado_194896" data-name="Trazado 194896" d="M60.258,112.416a1.175,1.175,0,1,0-1.174,1.174,1.175,1.175,0,0,0,1.174-1.174" transform="translate(18.162 -35.17)" fill="#7f4fc7"/>
          <path id="Trazado_194897" data-name="Trazado 194897" d="M68.531,112.416a1.175,1.175,0,1,0-1.174,1.174,1.174,1.174,0,0,0,1.174-1.174" transform="translate(20.757 -35.17)" fill="#7f4fc7"/>
          <path id="Trazado_194898" data-name="Trazado 194898" d="M2.35,120.688a1.175,1.175,0,1,0-1.174,1.174,1.174,1.174,0,0,0,1.174-1.174" transform="translate(0 -32.576)" fill="#7f4fc7"/>
          <path id="Trazado_194899" data-name="Trazado 194899" d="M10.622,120.688a1.175,1.175,0,1,0-1.174,1.174,1.174,1.174,0,0,0,1.174-1.174" transform="translate(2.594 -32.576)" fill="#7f4fc7"/>
          <path id="Trazado_194900" data-name="Trazado 194900" d="M18.9,120.688a1.175,1.175,0,1,0-1.174,1.174,1.174,1.174,0,0,0,1.174-1.174" transform="translate(5.189 -32.576)" fill="#7f4fc7"/>
          <path id="Trazado_194901" data-name="Trazado 194901" d="M27.168,120.688a1.175,1.175,0,1,0-1.174,1.174,1.174,1.174,0,0,0,1.174-1.174" transform="translate(7.784 -32.576)" fill="#7f4fc7"/>
          <path id="Trazado_194902" data-name="Trazado 194902" d="M35.44,120.688a1.175,1.175,0,1,0-1.174,1.174,1.174,1.174,0,0,0,1.174-1.174" transform="translate(10.378 -32.576)" fill="#7f4fc7"/>
          <path id="Trazado_194903" data-name="Trazado 194903" d="M43.713,120.688a1.175,1.175,0,1,0-1.174,1.174,1.174,1.174,0,0,0,1.174-1.174" transform="translate(12.973 -32.576)" fill="#7f4fc7"/>
          <path id="Trazado_194904" data-name="Trazado 194904" d="M51.985,120.688a1.175,1.175,0,1,0-1.174,1.174,1.174,1.174,0,0,0,1.174-1.174" transform="translate(15.568 -32.576)" fill="#7f4fc7"/>
          <path id="Trazado_194905" data-name="Trazado 194905" d="M60.258,120.688a1.175,1.175,0,1,0-1.174,1.174,1.175,1.175,0,0,0,1.174-1.174" transform="translate(18.162 -32.576)" fill="#7f4fc7"/>
          <path id="Trazado_194906" data-name="Trazado 194906" d="M68.531,120.688a1.175,1.175,0,1,0-1.174,1.174,1.174,1.174,0,0,0,1.174-1.174" transform="translate(20.757 -32.576)" fill="#7f4fc7"/>
        </g>
      </g>
    </g>
    <g id="Grupo_152570" data-name="Grupo 152570" transform="translate(640.153 902.859)">
      <g id="Grupo_152551" data-name="Grupo 152551" transform="translate(0 117.256) rotate(-90)">
        <rect id="Rectángulo_45220" data-name="Rectángulo 45220" width="104.148" height="31.013" transform="translate(104.927 31.013) rotate(180)" fill="#fff"/>
        <g id="Grupo_152556" data-name="Grupo 152556" transform="translate(0 17.179)">
          <rect id="Rectángulo_45221" data-name="Rectángulo 45221" width="5.27" height="5.27" transform="translate(111.986 22.397)" fill="#1894f6"/>
          <rect id="Rectángulo_45222" data-name="Rectángulo 45222" width="5.27" height="5.27" transform="translate(100.788 22.397)" fill="#1894f6"/>
          <rect id="Rectángulo_45223" data-name="Rectángulo 45223" width="5.27" height="5.27" transform="translate(89.589 22.397)" fill="#1894f6"/>
          <rect id="Rectángulo_45224" data-name="Rectángulo 45224" width="5.27" height="5.27" transform="translate(78.391 22.397)" fill="#1894f6"/>
          <rect id="Rectángulo_45225" data-name="Rectángulo 45225" width="5.27" height="5.27" transform="translate(67.192 22.397)" fill="#1894f6"/>
          <rect id="Rectángulo_45226" data-name="Rectángulo 45226" width="5.27" height="5.27" transform="translate(55.993 22.397)" fill="#1894f6"/>
          <rect id="Rectángulo_45227" data-name="Rectángulo 45227" width="5.27" height="5.27" transform="translate(44.795 22.397)" fill="#1894f6"/>
          <rect id="Rectángulo_45228" data-name="Rectángulo 45228" width="5.27" height="5.27" transform="translate(33.596 22.397)" fill="#1894f6"/>
          <rect id="Rectángulo_45229" data-name="Rectángulo 45229" width="5.27" height="5.27" transform="translate(22.397 22.397)" fill="#1894f6"/>
          <rect id="Rectángulo_45230" data-name="Rectángulo 45230" width="5.27" height="5.27" transform="translate(11.199 22.397)" fill="#1894f6"/>
          <rect id="Rectángulo_45231" data-name="Rectángulo 45231" width="5.27" height="5.27" transform="translate(0 22.397)" fill="#1894f6"/>
          <rect id="Rectángulo_45232" data-name="Rectángulo 45232" width="5.27" height="5.27" transform="translate(111.986 11.199)" fill="#1894f6"/>
          <rect id="Rectángulo_45233" data-name="Rectángulo 45233" width="5.27" height="5.27" transform="translate(100.788 11.199)" fill="#1894f6"/>
          <rect id="Rectángulo_45234" data-name="Rectángulo 45234" width="5.27" height="5.27" transform="translate(89.589 11.199)" fill="#1894f6"/>
          <rect id="Rectángulo_45235" data-name="Rectángulo 45235" width="5.27" height="5.27" transform="translate(78.391 11.199)" fill="#1894f6"/>
          <rect id="Rectángulo_45236" data-name="Rectángulo 45236" width="5.27" height="5.27" transform="translate(67.192 11.199)" fill="#1894f6"/>
          <rect id="Rectángulo_45237" data-name="Rectángulo 45237" width="5.27" height="5.27" transform="translate(55.993 11.199)" fill="#1894f6"/>
          <rect id="Rectángulo_45238" data-name="Rectángulo 45238" width="5.27" height="5.27" transform="translate(44.795 11.199)" fill="#1894f6"/>
          <rect id="Rectángulo_45239" data-name="Rectángulo 45239" width="5.27" height="5.27" transform="translate(33.596 11.199)" fill="#1894f6"/>
          <rect id="Rectángulo_45240" data-name="Rectángulo 45240" width="5.27" height="5.27" transform="translate(22.397 11.199)" fill="#1894f6"/>
          <rect id="Rectángulo_45241" data-name="Rectángulo 45241" width="5.27" height="5.27" transform="translate(11.199 11.199)" fill="#1894f6"/>
          <rect id="Rectángulo_45242" data-name="Rectángulo 45242" width="5.27" height="5.27" transform="translate(0 11.199)" fill="#1894f6"/>
          <rect id="Rectángulo_45243" data-name="Rectángulo 45243" width="5.27" height="5.27" transform="translate(111.986)" fill="#1894f6"/>
          <rect id="Rectángulo_45244" data-name="Rectángulo 45244" width="5.27" height="5.27" transform="translate(100.788)" fill="#1894f6"/>
          <rect id="Rectángulo_45245" data-name="Rectángulo 45245" width="5.27" height="5.27" transform="translate(89.589)" fill="#1894f6"/>
          <rect id="Rectángulo_45246" data-name="Rectángulo 45246" width="5.27" height="5.27" transform="translate(78.391)" fill="#1894f6"/>
          <rect id="Rectángulo_45247" data-name="Rectángulo 45247" width="5.27" height="5.27" transform="translate(67.192)" fill="#1894f6"/>
          <rect id="Rectángulo_45248" data-name="Rectángulo 45248" width="5.27" height="5.27" transform="translate(55.993)" fill="#1894f6"/>
          <rect id="Rectángulo_45249" data-name="Rectángulo 45249" width="5.27" height="5.27" transform="translate(44.795)" fill="#1894f6"/>
          <rect id="Rectángulo_45250" data-name="Rectángulo 45250" width="5.27" height="5.27" transform="translate(33.596)" fill="#1894f6"/>
          <rect id="Rectángulo_45251" data-name="Rectángulo 45251" width="5.27" height="5.27" transform="translate(22.397)" fill="#1894f6"/>
          <rect id="Rectángulo_45252" data-name="Rectángulo 45252" width="5.27" height="5.27" transform="translate(11.199)" fill="#1894f6"/>
          <rect id="Rectángulo_45253" data-name="Rectángulo 45253" width="5.27" height="5.27" fill="#1894f6"/>
        </g>
      </g>
    </g>
    <g id="Grupo_152803" data-name="Grupo 152803" transform="translate(236.074 905.53)">
      <path id="Trazado_195058" data-name="Trazado 195058" d="M14.622,227H71.248a2.122,2.122,0,1,0,0-4.245H14.622a2.122,2.122,0,1,0,0,4.245" transform="translate(-12.5 -222.751)" fill="#3cafff"/>
      <path id="Trazado_195059" data-name="Trazado 195059" d="M84.583,227H98.878a2.122,2.122,0,1,0,0-4.245H84.583a2.122,2.122,0,1,0,0,4.245" transform="translate(-16.383 -222.751)" fill="#3cafff"/>
      <path id="Trazado_195064" data-name="Trazado 195064" d="M124.541,232.612H84.765a1.491,1.491,0,0,0,0,2.982h39.776a1.491,1.491,0,0,0,0-2.982" transform="translate(-16.428 -223.298)" fill="#3cafff"/>
      <path id="Trazado_195065" data-name="Trazado 195065" d="M77.145,232.612H67.1a1.491,1.491,0,0,0,0,2.982H77.145a1.491,1.491,0,1,0,0-2.982" transform="translate(-15.448 -223.298)" fill="#3cafff"/>
    </g>
    <g id="Grupo_152805" data-name="Grupo 152805" transform="translate(190.181 892.181)">
      <path id="Trazado_195062" data-name="Trazado 195062" d="M181.32,1.333H114.474c-1.384,0-2.5.668-2.5,1.49s1.121,1.491,2.5,1.491H181.32c1.384,0,2.506-.668,2.506-1.491s-1.122-1.49-2.506-1.49" transform="translate(-68.389 -1.333)" fill="#7f4fc7"/>
      <path id="Trazado_195063" data-name="Trazado 195063" d="M124.437,1.333H98.2c-2.152,0-3.894.668-3.894,1.49S96.051,4.315,98.2,4.315h26.234c2.152,0,3.894-.668,3.894-1.491s-1.742-1.49-3.894-1.49" transform="translate(-94.309 -1.333)" fill="#7f4fc7"/>
    </g>
    <g id="Grupo_152804" data-name="Grupo 152804" transform="translate(367.326 1007.8)">
      <path id="Trazado_195056" data-name="Trazado 195056" d="M298.644,246.368H189.876a4.077,4.077,0,0,0,0,8.154H298.644a4.077,4.077,0,0,0,0-8.154" transform="translate(-140.186 -230.642)" fill="#7f4fc7"/>
      <path id="Trazado_195057" data-name="Trazado 195057" d="M182.012,246.368H154.555a4.077,4.077,0,0,0,0,8.154h27.457a4.077,4.077,0,0,0,0-8.154" transform="translate(-150.478 -230.642)" fill="#7f4fc7"/>
      <path id="Trazado_195060" data-name="Trazado 195060" d="M220.2,239.993h77.422a2.9,2.9,0,1,0,0-5.8H220.2a2.9,2.9,0,1,0,0,5.8" transform="translate(-131.01 -234.19)" fill="#7f4fc7"/>
      <path id="Trazado_195061" data-name="Trazado 195061" d="M290.157,239.993H309.7a2.9,2.9,0,1,0,0-5.8H290.157a2.9,2.9,0,1,0,0,5.8" transform="translate(-110.625 -234.19)" fill="#7f4fc7"/>
    </g>
    <path id="Trazado_116098" data-name="Trazado 116098" d="M463.54,165.262a23.748,23.748,0,0,0,0-7.621h-6.75a17.047,17.047,0,0,0-2.209-5.321l4.774-4.774a23.9,23.9,0,0,0-5.389-5.389l-4.774,4.773a17.059,17.059,0,0,0-5.321-2.209v-6.75a23.75,23.75,0,0,0-7.621,0v6.75a17.042,17.042,0,0,0-5.321,2.209l-4.774-4.773a23.917,23.917,0,0,0-5.389,5.389l4.774,4.774a17.043,17.043,0,0,0-2.209,5.321h-6.75a23.748,23.748,0,0,0,0,7.621h6.75a17.044,17.044,0,0,0,2.209,5.321l-4.774,4.774a23.931,23.931,0,0,0,5.389,5.389l4.774-4.774a17.047,17.047,0,0,0,5.321,2.209v6.75a23.75,23.75,0,0,0,7.621,0v-6.75a17.047,17.047,0,0,0,5.321-2.209l4.774,4.774a23.915,23.915,0,0,0,5.389-5.389l-4.774-4.774a17.048,17.048,0,0,0,2.209-5.321Zm-23.48,6.188a10,10,0,1,1,10-10A10,10,0,0,1,440.059,171.45Z" transform="translate(183.728 741.408)" fill="url(#linear-gradient)"/>
    <path id="Trazado_116099" data-name="Trazado 116099" d="M393.482,177.1a13.378,13.378,0,0,0,0-4.293h-3.8a9.606,9.606,0,0,0-1.245-3l2.69-2.689a13.473,13.473,0,0,0-3.036-3.036l-2.69,2.689a9.588,9.588,0,0,0-3-1.244v-3.8a13.378,13.378,0,0,0-4.293,0v3.8a9.6,9.6,0,0,0-3,1.244l-2.689-2.689a13.462,13.462,0,0,0-3.036,3.036l2.689,2.689a9.6,9.6,0,0,0-1.244,3h-3.8a13.378,13.378,0,0,0,0,4.293h3.8a9.6,9.6,0,0,0,1.244,3l-2.689,2.689a13.461,13.461,0,0,0,3.036,3.036l2.689-2.689a9.6,9.6,0,0,0,3,1.244v3.8a13.379,13.379,0,0,0,4.293,0v-3.8a9.588,9.588,0,0,0,3-1.244l2.69,2.689a13.472,13.472,0,0,0,3.036-3.036l-2.69-2.689a9.606,9.606,0,0,0,1.245-3Zm-13.226,3.485a5.632,5.632,0,1,1,5.632-5.632A5.632,5.632,0,0,1,380.256,180.583Z" transform="translate(156.803 746.712)" fill="#8ec8c8"/>
    <g id="Grupo_156851" data-name="Grupo 156851" transform="translate(221.638 874.085)">
      <g id="Grupo_155890" data-name="Grupo 155890">
        <g id="Grupo_155880" data-name="Grupo 155880" transform="translate(48.587 92.732)">
          <g id="Grupo_155879" data-name="Grupo 155879" transform="translate(20.275)">
            <rect id="Rectángulo_47022" data-name="Rectángulo 47022" width="44.043" height="60.569" transform="translate(0 5.734)" fill="#2f393e"/>
            <g id="Grupo_155878" data-name="Grupo 155878">
              <g id="Grupo_155877" data-name="Grupo 155877">
                <path id="Trazado_197864" data-name="Trazado 197864" d="M297.59,275.59v30.032l44.043,7.694V275.59Z" transform="translate(-297.59 -275.59)" fill="#181d1f"/>
              </g>
            </g>
          </g>
          <path id="Trazado_197865" data-name="Trazado 197865" d="M358.5,353.613H273.9v-3.064a3.45,3.45,0,0,1,3.449-3.449h77.695a3.45,3.45,0,0,1,3.449,3.449v3.064Z" transform="translate(-273.9 -285.897)" fill="#3f4c53"/>
        </g>
        <g id="Grupo_155888" data-name="Grupo 155888">
          <g id="Grupo_155881" data-name="Grupo 155881">
            <path id="Trazado_197866" data-name="Trazado 197866" d="M394.079,287.728H221.948a4.818,4.818,0,0,1-4.818-4.818V172.058a4.818,4.818,0,0,1,4.818-4.819H394.079a4.818,4.818,0,0,1,4.819,4.819v110.86A4.816,4.816,0,0,1,394.079,287.728Z" transform="translate(-217.13 -167.24)" fill="#3f4c53"/>
            <path id="Trazado_198560" data-name="Trazado 198560" d="M0,0H169.34V92.253H0Z" transform="translate(6.214 6.214)" fill="#fff"/>
          </g>
          <g id="Grupo_155887" data-name="Grupo 155887" transform="translate(6.214 6.214)">
            <rect id="Rectángulo_47024" data-name="Rectángulo 47024" width="169.34" height="8.576" fill="#33a8d3"/>
            <g id="Grupo_155886" data-name="Grupo 155886" transform="translate(3.321 2.277)">
              <g id="Grupo_155882" data-name="Grupo 155882" transform="translate(5.623 1.609)">
                <rect id="Rectángulo_47025" data-name="Rectángulo 47025" width="27.447" height="0.813" fill="#5cb9dc"/>
              </g>
              <g id="Grupo_155884" data-name="Grupo 155884">
                <path id="Trazado_197867" data-name="Trazado 197867" d="M231.693,181.183h-2.824a.6.6,0,0,1-.6-.6v-2.824a.6.6,0,0,1,.6-.6h2.824a.6.6,0,0,1,.6.6v2.824A.59.59,0,0,1,231.693,181.183Zm-2.824-3.877a.457.457,0,0,0-.454.454v2.824a.457.457,0,0,0,.454.454h2.824a.457.457,0,0,0,.454-.454v-2.824a.457.457,0,0,0-.454-.454Z" transform="translate(-228.27 -177.16)" fill="#5cb9dc"/>
                <g id="Grupo_155883" data-name="Grupo 155883" transform="translate(0.839 1.138)">
                  <rect id="Rectángulo_47026" data-name="Rectángulo 47026" width="2.465" height="0.265" fill="#5cb9dc"/>
                  <rect id="Rectángulo_47027" data-name="Rectángulo 47027" width="2.465" height="0.265" transform="translate(0 0.668)" fill="#5cb9dc"/>
                  <rect id="Rectángulo_47028" data-name="Rectángulo 47028" width="2.465" height="0.265" transform="translate(0 1.335)" fill="#5cb9dc"/>
                </g>
              </g>
              <g id="Grupo_155885" data-name="Grupo 155885" transform="translate(135.132 0.06)">
                <path id="Trazado_197868" data-name="Trazado 197868" d="M408.626,180.619H387.855a1.693,1.693,0,0,1-1.695-1.695h0a1.693,1.693,0,0,1,1.695-1.695h20.772a1.693,1.693,0,0,1,1.695,1.695h0A1.693,1.693,0,0,1,408.626,180.619Z" transform="translate(-386.16 -177.23)" fill="#85cbe5"/>
                <path id="Trazado_197869" data-name="Trazado 197869" d="M411.961,179.783l-.4-.4a.762.762,0,0,0-.051-1.018.775.775,0,0,0-1.1,1.1.763.763,0,0,0,.548.223.754.754,0,0,0,.454-.163l.4.4Zm-1.4-.462a.579.579,0,0,1,0-.813.572.572,0,1,1,0,.813Z" transform="translate(-389.623 -177.361)" fill="#addced"/>
              </g>
            </g>
          </g>
        </g>
      </g>
    </g>
    <g id="Grupo_54262" data-name="Grupo 54262" transform="translate(410.977 961.488)">
      <path id="Trazado_116117" data-name="Trazado 116117" d="M446.134,304.215l-17.283-.006,7.2,15.71,3.1-4.827,13.971,8.967,3.883-6.049-13.971-8.967Z" transform="translate(-428.851 -302.084)" fill="#0e2d59"/>
      <path id="Trazado_116118" data-name="Trazado 116118" d="M446.134,300.856l-17.283-.006,7.2,15.71,3.1-4.827,13.971,8.967,3.883-6.049-13.971-8.967Z" transform="translate(-428.851 -300.85)" fill="#fff"/>
    </g>
    <g id="Grupo_156855" data-name="Grupo 156855" transform="translate(370 895.236)">
      <g id="Grupo_156907" data-name="Grupo 156907" transform="translate(171.216 6.239)">
        <path id="Trazado_198591" data-name="Trazado 198591" d="M382.654,119.951l-61.09-11.573a7.582,7.582,0,0,1-6.153-8.878l16.476-82.2a7.78,7.78,0,0,1,9.133-5.983l38.742,7.34L403.73,54.385l-11.943,59.584a7.78,7.78,0,0,1-9.133,5.983" transform="translate(-309.182 -10.923)" fill="#ebebeb"/>
        <path id="Trazado_198592" data-name="Trazado 198592" d="M378.618,18.72l-4.637,23.135a7.053,7.053,0,0,0,5.723,8.259l22.881,4.337Z" transform="translate(-308.036 -10.988)" fill="#f5f5f5"/>
        <path id="Trazado_198593" data-name="Trazado 198593" d="M373.888,44.169s-1.425,5.554,4.776,8.643a7.5,7.5,0,0,0,.719.307c2.883,1.085,21.871,8.213,21.958,7.774.095-.476,1.246-6.217,1.246-6.217L379.7,50.341s-5.675-1.272-5.817-6.172" transform="translate(-308.038 -11.213)" fill="#e0e0e0"/>
        <path id="Trazado_198594" data-name="Trazado 198594" d="M382.658,119.949c0-.036.457.1,1.351.1a7.991,7.991,0,0,0,3.781-.914,7.53,7.53,0,0,0,3.787-4.723c.52-2.39,1.032-5.179,1.656-8.284,2.473-12.45,6.01-30.264,10.284-51.786l.032.16c-7.258-10.8-15.355-22.855-23.994-35.715l.165.107-22.358-4.226-11.694-2.213-2.968-.562a20.432,20.432,0,0,0-2.955-.451,7.646,7.646,0,0,0-5.378,2,7.187,7.187,0,0,0-2.085,3.4c-.317,1.307-.555,2.691-.835,4.026q-.809,4.037-1.608,8.018-1.6,7.962-3.146,15.676c-2.065,10.277-4.057,20.189-5.955,29.632q-1.424,7.082-2.776,13.8-.676,3.354-1.332,6.61-.329,1.627-.65,3.228a16.883,16.883,0,0,0-.486,3.153,7.3,7.3,0,0,0,2.5,5.433,7.559,7.559,0,0,0,2.624,1.5,29.746,29.746,0,0,0,2.99.647l11.528,2.2,34.781,6.673,9.451,1.84,2.455.492c.553.113.833.184.833.184s-.287-.037-.843-.133l-2.465-.441-9.471-1.744-34.814-6.511-11.534-2.169a29.646,29.646,0,0,1-3.045-.653,7.989,7.989,0,0,1-2.776-1.579,7.71,7.71,0,0,1-2.658-5.739,17.24,17.24,0,0,1,.487-3.237q.32-1.6.644-3.229.648-3.256,1.318-6.613,1.34-6.711,2.755-13.8c1.888-9.445,3.87-19.36,5.926-29.639q1.543-7.708,3.138-15.677.8-3.982,1.606-8.019c.283-1.35.509-2.683.843-4.061A7.693,7.693,0,0,1,334,13.064a8.188,8.188,0,0,1,5.759-2.139,20.832,20.832,0,0,1,3.041.46l2.967.563,11.694,2.217,22.354,4.242.106.021.059.087c8.619,12.873,16.7,24.934,23.939,35.749l.049.073-.017.086C399.6,75.93,396,93.732,393.483,106.175c-.643,3.106-1.171,5.876-1.716,8.284a7.661,7.661,0,0,1-3.914,4.79,7.917,7.917,0,0,1-3.846.865,5.958,5.958,0,0,1-1.011-.1c-.225-.037-.337-.063-.337-.063" transform="translate(-309.186 -10.921)" fill="#263238"/>
        <path id="Trazado_198595" data-name="Trazado 198595" d="M402.589,54.452a2.615,2.615,0,0,1-.6-.06l-1.7-.272-6.214-1.1-9.2-1.688-5.436-1.026a7.475,7.475,0,0,1-4.826-3.431,7.132,7.132,0,0,1-.984-2.859,8.213,8.213,0,0,1,.233-2.9c.372-1.828.731-3.592,1.073-5.275.692-3.344,1.317-6.365,1.848-8.928.534-2.486.972-4.522,1.291-6.01.153-.662.278-1.2.377-1.629a2.365,2.365,0,0,1,.167-.561,2.406,2.406,0,0,1-.062.581c-.073.432-.165.977-.279,1.647-.278,1.495-.66,3.542-1.125,6.041-.5,2.568-1.086,5.6-1.736,8.948-.332,1.686-.681,3.451-1.042,5.282a7.738,7.738,0,0,0-.219,2.745,6.663,6.663,0,0,0,.917,2.655,6.979,6.979,0,0,0,4.482,3.2l5.416,1.053,9.181,1.8,6.182,1.256,1.676.367a2.581,2.581,0,0,1,.577.163" transform="translate(-308.041 -10.988)" fill="#263238"/>
        <path id="Trazado_198596" data-name="Trazado 198596" d="M373.953,39.273c-.027.14-7.266-1.114-16.165-2.8s-16.094-3.167-16.066-3.307,7.265,1.113,16.167,2.8,16.092,3.166,16.064,3.306" transform="translate(-308.664 -11.116)" fill="#263238"/>
        <path id="Trazado_198597" data-name="Trazado 198597" d="M386.977,53.813c-.029.14-10.69-1.762-23.811-4.247s-23.741-4.615-23.712-4.756,10.688,1.762,23.813,4.248,23.737,4.615,23.71,4.755" transform="translate(-308.709 -11.218)" fill="#263238"/>
        <path id="Trazado_198598" data-name="Trazado 198598" d="M384.708,65.457c-.029.14-10.69-1.762-23.811-4.248s-23.74-4.614-23.712-4.755S347.873,58.216,361,60.7s23.737,4.615,23.71,4.755" transform="translate(-308.754 -11.321)" fill="#263238"/>
        <path id="Trazado_198599" data-name="Trazado 198599" d="M382.439,77.1c-.028.14-10.69-1.762-23.811-4.248s-23.741-4.615-23.712-4.755,10.687,1.762,23.813,4.248,23.738,4.615,23.71,4.755" transform="translate(-308.797 -11.424)" fill="#263238"/>
        <path id="Trazado_198600" data-name="Trazado 198600" d="M380.17,88.743c-.029.14-10.69-1.762-23.811-4.247s-23.741-4.615-23.712-4.756,10.687,1.762,23.813,4.248S380.2,88.6,380.17,88.743" transform="translate(-308.842 -11.526)" fill="#263238"/>
        <path id="Trazado_198601" data-name="Trazado 198601" d="M377.9,100.387c-.027.14-10.69-1.762-23.811-4.248s-23.74-4.615-23.712-4.755,10.687,1.762,23.813,4.248,23.737,4.615,23.71,4.755" transform="translate(-308.886 -11.629)" fill="#263238"/>
        <path id="Trazado_198602" data-name="Trazado 198602" d="M351.309,97.833,307.872,89.6a4.192,4.192,0,0,1-3.4-4.907l2.9-14.452a4.3,4.3,0,0,1,5.048-3.307l43.438,8.229a4.192,4.192,0,0,1,3.4,4.907l-2.9,14.452a4.3,4.3,0,0,1-5.048,3.307" transform="translate(-304.389 -11.413)" fill="#7f4fc7"/>
        <path id="Trazado_198603" data-name="Trazado 198603" d="M326.144,80.558c-.382,1.908-2.092,2.816-4.445,2.37l-1.774-.336-.473,2.361-2.038-.386L319.129,76l3.813.723c2.352.446,3.587,1.91,3.2,3.831m-2.064-.391c.189-.943-.329-1.612-1.575-1.848L320.844,78l-.6,2.974,1.661.314c1.245.236,1.984-.2,2.171-1.125" transform="translate(-285.942 -7.798)" fill="#fff"/>
        <path id="Trazado_198604" data-name="Trazado 198604" d="M335.053,82.295c-.382,1.908-2.091,2.816-4.445,2.37l-1.773-.336-.473,2.361-2.039-.387,1.716-8.562,3.813.723c2.353.446,3.587,1.91,3.2,3.831M332.99,81.9c.189-.943-.33-1.612-1.575-1.848l-1.662-.315-.6,2.974,1.661.314c1.246.236,1.985-.2,2.172-1.125" transform="translate(-313.63 -14.01)" fill="#fff"/>
        <path id="Trazado_198605" data-name="Trazado 198605" d="M338.208,81.389l-2.818-.534.323-1.614,7.675,1.454-.323,1.614-2.819-.533-1.392,6.947-2.039-.386Z" transform="translate(-311.917 -13.01)" fill="#fff"/>
      </g>
      <g id="Grupo_156908" data-name="Grupo 156908">
        <g id="Grupo_156853" data-name="Grupo 156853" transform="translate(0)">
          <g id="Grupo_156854" data-name="Grupo 156854">
            <path id="Trazado_198561" data-name="Trazado 198561" d="M95.393,99.077l-65.085,12.5a8.293,8.293,0,0,1-9.751-6.354L2.765,17.642A8.082,8.082,0,0,1,9.3,8.162L50.576.236l38.456,25.88,12.9,63.48a8.082,8.082,0,0,1-6.535,9.481" transform="translate(0.051 -0.002)" fill="#ebebeb"/>
            <path id="Trazado_198562" data-name="Trazado 198562" d="M49.656.236l5.007,24.648a7.715,7.715,0,0,0,9.07,5.909l24.379-4.676Z" transform="translate(0.971 -0.002)" fill="#f5f5f5"/>
            <path id="Trazado_198563" data-name="Trazado 198563" d="M55.325,27.213s.893,6.039,8.292,6.661c.278.023.56.027.837.022,3.3-.058,24.986-.458,24.892-.926L88,26.347l-24.377,4.68s-6.13.966-8.3-3.814" transform="translate(1.082 -0.232)" fill="#e0e0e0"/>
            <path id="Trazado_198564" data-name="Trazado 198564" d="M95.4,99.075s.117-.039.351-.1a6.969,6.969,0,0,0,1.026-.325,8.3,8.3,0,0,0,3.359-2.38,7.84,7.84,0,0,0,1.789-6.153c-.476-2.564-1.125-5.517-1.793-8.827-2.713-13.251-6.6-32.221-11.287-55.137l.081.12L50.451.415l.173.035L26.808,5.03,14.349,7.424l-3.161.608a21.768,21.768,0,0,0-3.111.714,7.98,7.98,0,0,0-4.505,4.1,7.544,7.544,0,0,0-.654,4.195c.228,1.42.567,2.874.844,4.3L5.5,29.888q1.722,8.482,3.39,16.7c2.22,10.951,4.361,21.513,6.4,31.575q1.528,7.547,2.977,14.7.723,3.576,1.425,7.044.35,1.735.7,3.441a18.106,18.106,0,0,0,.829,3.309,8.039,8.039,0,0,0,4.744,4.4,8.253,8.253,0,0,0,3.227.456,31.46,31.46,0,0,0,3.225-.534L44.7,108.644,81.787,101.6,91.874,99.7l2.625-.481c.592-.106.9-.149.9-.149s-.3.073-.888.194l-2.617.526-10.07,1.977-37.059,7.19-12.282,2.373a31.551,31.551,0,0,1-3.273.547,8.635,8.635,0,0,1-3.379-.471,8.414,8.414,0,0,1-4.976-4.6A18.309,18.309,0,0,1,20,103.43q-.349-1.705-.7-3.439-.707-3.467-1.437-7.042-1.457-7.148-3-14.7c-2.048-10.061-4.2-20.622-6.428-31.57l-3.4-16.7q-.863-4.24-1.736-8.542c-.279-1.443-.611-2.851-.85-4.335a8,8,0,0,1,.691-4.442A8.454,8.454,0,0,1,7.912,8.315,22.209,22.209,0,0,1,11.1,7.582l3.162-.607L26.717,4.584,50.536.018,50.631,0l.079.053,38.44,25.9.065.045.015.076c4.624,22.93,8.45,41.91,11.123,55.169.654,3.318,1.282,6.258,1.743,8.846a7.952,7.952,0,0,1-1.871,6.25A8.247,8.247,0,0,1,96.8,98.7a6.392,6.392,0,0,1-1.04.3c-.237.053-.358.072-.358.072" transform="translate(0.046)" fill="#263238"/>
            <path id="Trazado_198565" data-name="Trazado 198565" d="M88.112,26.117a3.258,3.258,0,0,1-.617.166l-1.787.387-6.588,1.339-9.785,1.927-5.789,1.113A8.109,8.109,0,0,1,57.4,29.56a7.779,7.779,0,0,1-2.142-2.421,8.769,8.769,0,0,1-.967-2.94c-.392-1.951-.77-3.832-1.13-5.626-.707-3.576-1.345-6.8-1.884-9.532-.513-2.677-.931-4.862-1.231-6.433-.128-.726-.232-1.307-.311-1.753a3.055,3.055,0,0,1-.077-.619,3.065,3.065,0,0,1,.17.6c.1.442.233,1.019.4,1.738L51.6,8.978l1.984,9.512c.369,1.793.755,3.672,1.156,5.621a8.359,8.359,0,0,0,.926,2.808A7.348,7.348,0,0,0,57.685,29.2,7.652,7.652,0,0,0,63.469,30.6L69.25,29.52l9.8-1.831,6.618-1.2,1.8-.3a3.346,3.346,0,0,1,.635-.074" transform="translate(0.971 -0.002)" fill="#263238"/>
            <path id="Trazado_198566" data-name="Trazado 198566" d="M53.491,22.664c.025.125-7.642,1.7-17.123,3.522s-17.191,3.2-17.216,3.072,7.641-1.7,17.125-3.522,17.189-3.2,17.214-3.072" transform="translate(0.374 -0.2)" fill="#263238"/>
            <path id="Trazado_198567" data-name="Trazado 198567" d="M72.233,31.913c.025.125-11.29,2.4-25.268,5.086S21.628,41.759,21.6,41.635s11.287-2.4,25.271-5.086,25.334-4.76,25.36-4.636" transform="translate(0.422 -0.281)" fill="#263238"/>
            <path id="Trazado_198568" data-name="Trazado 198568" d="M74.683,44.318c.025.125-11.289,2.4-25.268,5.086S24.078,54.164,24.053,54.04s11.287-2.4,25.271-5.086,25.334-4.76,25.36-4.636" transform="translate(0.47 -0.39)" fill="#263238"/>
            <path id="Trazado_198569" data-name="Trazado 198569" d="M26.5,66.445c-.025-.125,11.29-2.4,25.268-5.086S77.108,56.6,77.133,56.723s-11.287,2.4-25.271,5.086S26.528,66.569,26.5,66.445" transform="translate(0.518 -0.5)" fill="#263238"/>
            <path id="Trazado_198570" data-name="Trazado 198570" d="M79.583,69.127c.025.125-11.29,2.4-25.268,5.086s-25.337,4.761-25.363,4.636,11.287-2.4,25.271-5.087S79.558,69,79.583,69.127" transform="translate(0.566 -0.609)" fill="#263238"/>
            <path id="Trazado_198571" data-name="Trazado 198571" d="M82.033,81.532c.025.125-11.289,2.4-25.268,5.086S31.428,91.378,31.4,91.254s11.287-2.4,25.271-5.087,25.334-4.759,25.36-4.635" transform="translate(0.614 -0.718)" fill="#263238"/>
            <path id="Trazado_198572" data-name="Trazado 198572" d="M55.212,89.64,8.377,98.633a4.3,4.3,0,0,1-5.056-3.295L.083,79.4a4.192,4.192,0,0,1,3.388-4.915l46.835-8.993a4.3,4.3,0,0,1,5.057,3.294L58.6,84.724a4.192,4.192,0,0,1-3.388,4.915" transform="translate(0 -0.576)" fill="#7f4fc7"/>
            <path id="Trazado_198573" data-name="Trazado 198573" d="M14.116,80.678l4.264-.819c3.072-.59,5.541.8,6.1,3.567s-1.178,4.967-4.249,5.558L15.97,89.8Zm5.659,6.592a2.787,2.787,0,0,0,2.509-3.422,2.854,2.854,0,0,0-3.658-2.235l-1.985.381,1.15,5.657Z" transform="translate(0.276 -0.702)" fill="#fff"/>
            <path id="Trazado_198574" data-name="Trazado 198574" d="M25.308,83.206c-.55-2.711,1.214-5.135,4.177-5.7a4.953,4.953,0,0,1,6.094,3.732c.554,2.725-1.227,5.138-4.176,5.7a4.953,4.953,0,0,1-6.095-3.732m8.072-1.55A2.913,2.913,0,0,0,29.851,79.3a2.842,2.842,0,0,0-2.344,3.484,2.914,2.914,0,0,0,3.53,2.355,2.84,2.84,0,0,0,2.343-3.483" transform="translate(0.493 -0.682)" fill="#fff"/>
            <path id="Trazado_198575" data-name="Trazado 198575" d="M36.406,81.013c-.559-2.751,1.214-5.134,4.136-5.7a5.052,5.052,0,0,1,4.19.874L43.592,77.71a3.142,3.142,0,0,0-2.576-.615,2.86,2.86,0,0,0-2.411,3.5,2.933,2.933,0,0,0,3.6,2.343,3.047,3.047,0,0,0,2.14-1.534l1.649.983a4.916,4.916,0,0,1-3.545,2.373,4.912,4.912,0,0,1-6.04-3.743" transform="translate(0.71 -0.662)" fill="#fff"/>
          </g>
        </g>
        <g id="Grupo_156909" data-name="Grupo 156909" transform="translate(95 0)">
          <path id="Trazado_198606" data-name="Trazado 198606" d="M191.068,101.13H129.226a7.632,7.632,0,0,1-7.737-7.522V10.392a7.632,7.632,0,0,1,7.737-7.522h39.219l30.359,30.421V93.608a7.632,7.632,0,0,1-7.737,7.522" transform="translate(-117.79 -2.609)" fill="#ebebeb"/>
          <path id="Trazado_198607" data-name="Trazado 198607" d="M167.545,2.869v23.42a7.1,7.1,0,0,0,7.2,7l23.163,0Z" transform="translate(-129.113 -2.61)" fill="#f5f5f5"/>
          <path id="Trazado_198608" data-name="Trazado 198608" d="M167.855,28.571s-.3,5.681,6.347,7.548a7.658,7.658,0,0,0,.762.167c3.024.525,22.935,3.969,22.935,3.525V33.516H174.735s-5.784-.192-6.88-4.945" transform="translate(-129.178 -2.836)" fill="#e0e0e0"/>
          <path id="Trazado_198609" data-name="Trazado 198609" d="M191.073,101.128c0-.036.464.009,1.337-.154a7.856,7.856,0,0,0,3.508-1.59,7.374,7.374,0,0,0,2.77-5.306c.039-2.425-.006-5.241-.005-8.384-.022-12.6-.055-30.627-.094-52.405l.062.15-30.383-30.4.182.075-22.631.008-11.838,0h-3a20.239,20.239,0,0,0-2.97.106,7.507,7.507,0,0,0-4.853,2.942,7.04,7.04,0,0,0-1.368,3.7c-.055,1.333-.015,2.727-.028,4.081q0,4.086,0,8.117,0,8.058,0,15.869c-.005,10.4-.01,20.439-.015,30q-.006,7.169-.011,13.97,0,3.4-.007,6.693,0,1.647,0,3.268a16.835,16.835,0,0,0,.143,3.165,7.343,7.343,0,0,0,3.5,4.836,7.614,7.614,0,0,0,2.854.979,29.527,29.527,0,0,0,3.042.078l11.673.017,35.226.082,9.578.048,2.491.026c.561.009.848.027.848.027s-.288.018-.848.027l-2.491.025-9.578.049-35.226.082-11.673.017a29.728,29.728,0,0,1-3.1-.074,8.033,8.033,0,0,1-3.017-1.028,7.763,7.763,0,0,1-3.714-5.107,17.069,17.069,0,0,1-.158-3.248q0-1.621,0-3.268,0-3.3-.006-6.693-.006-6.793-.011-13.97c-.005-9.561-.01-19.6-.015-30q0-7.8,0-15.869,0-4.031,0-8.117c.012-1.37-.029-2.712.028-4.117a7.558,7.558,0,0,1,1.466-3.963,8.045,8.045,0,0,1,5.2-3.151,20.7,20.7,0,0,1,3.057-.112h3l11.838,0,22.631.008h.108l.075.075L198.97,33.138l.063.063v.087c-.039,21.778-.071,39.805-.094,52.405-.02,3.148.005,5.947-.055,8.4a7.5,7.5,0,0,1-2.881,5.4,7.785,7.785,0,0,1-3.582,1.554,5.887,5.887,0,0,1-1.006.088c-.227.006-.342,0-.342,0" transform="translate(-117.755 -2.608)" fill="#263238"/>
          <path id="Trazado_198610" data-name="Trazado 198610" d="M197.91,33.29a2.622,2.622,0,0,1-.594.052l-1.707.049-6.274.081-9.306.054-5.5,0a7.524,7.524,0,0,1-5.378-2.454,7.2,7.2,0,0,1-1.518-2.607,8.144,8.144,0,0,1-.34-2.871c.005-1.852.01-3.639.015-5.344.021-3.389.041-6.451.057-9.048.035-2.523.063-4.589.085-6.1.02-.673.037-1.222.05-1.657a2.42,2.42,0,0,1,.053-.579,2.352,2.352,0,0,1,.053.579c.013.435.031.984.05,1.657.021,1.511.05,3.577.085,6.1.016,2.6.036,5.659.057,9.048.005,1.706.01,3.492.015,5.344a7.724,7.724,0,0,0,.323,2.718,6.707,6.707,0,0,0,1.413,2.419,7.021,7.021,0,0,0,4.995,2.29l5.487.026,9.306.057,6.274.082,1.707.049a2.576,2.576,0,0,1,.594.053" transform="translate(-129.057 -2.61)" fill="#263238"/>
          <path id="Trazado_198611" data-name="Trazado 198611" d="M167.025,23.952c0,.143-7.3.258-16.313.258s-16.315-.115-16.315-.258,7.3-.258,16.315-.258,16.313.115,16.313.258" transform="translate(-116.09 -2.793)" fill="#263238"/>
          <path id="Trazado_198612" data-name="Trazado 198612" d="M182.505,35.739c0,.143-10.771.258-24.052.258s-24.056-.115-24.056-.258,10.768-.258,24.056-.258,24.052.115,24.052.258" transform="translate(-118.533 -2.897)" fill="#263238"/>
          <path id="Trazado_198613" data-name="Trazado 198613" d="M182.505,47.525c0,.143-10.771.258-24.052.258s-24.056-.115-24.056-.258,10.768-.258,24.056-.258,24.052.115,24.052.258" transform="translate(-118.533 -3.001)" fill="#263238"/>
          <path id="Trazado_198614" data-name="Trazado 198614" d="M182.505,59.312c0,.143-10.77.259-24.052.259s-24.056-.116-24.056-.259,10.768-.258,24.056-.258,24.052.115,24.052.258" transform="translate(-118.533 -3.105)" fill="#263238"/>
          <path id="Trazado_198615" data-name="Trazado 198615" d="M182.505,71.1c0,.143-10.77.258-24.052.258S134.4,71.241,134.4,71.1s10.768-.258,24.056-.258,24.052.115,24.052.258" transform="translate(-118.533 -3.208)" fill="#263238"/>
          <path id="Trazado_198616" data-name="Trazado 198616" d="M182.505,82.886c0,.143-10.771.259-24.052.258s-24.056-.115-24.056-.258,10.768-.258,24.056-.258,24.052.115,24.052.258" transform="translate(-118.533 -3.313)" fill="#263238"/>
          <path id="Trazado_198617" data-name="Trazado 198617" d="M156.109,85.434H112.192a4.245,4.245,0,0,1-4.3-4.184V66.674a4.245,4.245,0,0,1,4.3-4.184h43.918a4.246,4.246,0,0,1,4.3,4.184V81.25a4.246,4.246,0,0,1-4.3,4.184" transform="translate(-107.887 -3.135)" fill="#7f4fc7"/>
          <path id="Trazado_198618" data-name="Trazado 198618" d="M126.119,78.688l-2.153-3.01-2.116,3.01h-2.369l3.3-4.41-3.134-4.261h2.344l2.051,2.812,2.014-2.812h2.229L125.176,74.2l3.326,4.484Z" transform="translate(-107.047 -3.2)" fill="#fff"/>
          <path id="Trazado_198619" data-name="Trazado 198619" d="M129.126,70.017h2.064v7.036h4.473v1.634h-6.536Z" transform="translate(-105.141 -3.2)" fill="#fff"/>
          <path id="Trazado_198620" data-name="Trazado 198620" d="M135.934,77.832l.7-1.511a5.352,5.352,0,0,0,2.943.9c1.222,0,1.72-.4,1.72-.93,0-1.623-5.186-.507-5.186-3.728,0-1.474,1.223-2.7,3.758-2.7a6.12,6.12,0,0,1,3.1.768l-.637,1.523a5.148,5.148,0,0,0-2.471-.681c-1.223,0-1.695.446-1.695.991,0,1.6,5.185.5,5.185,3.678,0,1.45-1.236,2.688-3.784,2.688a6.486,6.486,0,0,1-3.632-1" transform="translate(-103.432 -3.2)" fill="#fff"/>
        </g>
      </g>
    </g>
    <path id="Trazado_198621" data-name="Trazado 198621" d="M463.54,165.262a23.748,23.748,0,0,0,0-7.621h-6.75a17.047,17.047,0,0,0-2.209-5.321l4.774-4.774a23.9,23.9,0,0,0-5.389-5.389l-4.774,4.773a17.059,17.059,0,0,0-5.321-2.209v-6.75a23.75,23.75,0,0,0-7.621,0v6.75a17.042,17.042,0,0,0-5.321,2.209l-4.774-4.773a23.917,23.917,0,0,0-5.389,5.389l4.774,4.774a17.043,17.043,0,0,0-2.209,5.321h-6.75a23.748,23.748,0,0,0,0,7.621h6.75a17.044,17.044,0,0,0,2.209,5.321l-4.774,4.774a23.931,23.931,0,0,0,5.389,5.389l4.774-4.774a17.047,17.047,0,0,0,5.321,2.209v6.75a23.75,23.75,0,0,0,7.621,0v-6.75a17.047,17.047,0,0,0,5.321-2.209l4.774,4.774a23.915,23.915,0,0,0,5.389-5.389l-4.774-4.774a17.048,17.048,0,0,0,2.209-5.321Zm-23.48,6.188a10,10,0,1,1,10-10A10,10,0,0,1,440.059,171.45Z" transform="translate(-209.395 829.768)" fill="#2194e5"/>
  </g>
</svg>
