<svg id="Grupo_156520" data-name="Grupo 156520" xmlns="http://www.w3.org/2000/svg" width="84.412" height="164.34" viewBox="0 0 84.412 164.34">
  <rect id="Rectángulo_45220" data-name="Rectángulo 45220" width="98.053" height="48.731" transform="translate(84.412) rotate(90)" fill="#e4e4e4"/>
  <g id="Grupo_153260" data-name="Grupo 153260" transform="translate(0 44.042)">
    <rect id="Rectángulo_45221" data-name="Rectángulo 45221" width="4.203" height="4.203" transform="translate(0 30.994) rotate(-90)" fill="#7f4fc7"/>
    <rect id="Rectángulo_45891" data-name="Rectángulo 45891" width="4.203" height="4.203" transform="translate(0 4.203) rotate(-90)" fill="#7f4fc7"/>
    <rect id="Rectángulo_45222" data-name="Rectángulo 45222" width="4.203" height="4.203" transform="translate(0 39.925) rotate(-90)" fill="#7f4fc7"/>
    <rect id="Rectángulo_45892" data-name="Rectángulo 45892" width="4.203" height="4.203" transform="translate(0 13.134) rotate(-90)" fill="#7f4fc7"/>
    <rect id="Rectángulo_45223" data-name="Rectángulo 45223" width="4.203" height="4.203" transform="translate(0 48.855) rotate(-90)" fill="#7f4fc7"/>
    <rect id="Rectángulo_45893" data-name="Rectángulo 45893" width="4.203" height="4.203" transform="translate(0 22.064) rotate(-90)" fill="#7f4fc7"/>
    <rect id="Rectángulo_45224" data-name="Rectángulo 45224" width="4.202" height="4.203" transform="translate(0 57.785) rotate(-90)" fill="#7f4fc7"/>
    <rect id="Rectángulo_45225" data-name="Rectángulo 45225" width="4.203" height="4.203" transform="translate(0 66.716) rotate(-90)" fill="#7f4fc7"/>
    <rect id="Rectángulo_45226" data-name="Rectángulo 45226" width="4.202" height="4.203" transform="translate(0 75.646) rotate(-90)" fill="#7f4fc7"/>
    <rect id="Rectángulo_45227" data-name="Rectángulo 45227" width="4.203" height="4.203" transform="translate(0 84.577) rotate(-90)" fill="#7f4fc7"/>
    <rect id="Rectángulo_45228" data-name="Rectángulo 45228" width="4.202" height="4.203" transform="translate(0 93.507) rotate(-90)" fill="#7f4fc7"/>
    <rect id="Rectángulo_45229" data-name="Rectángulo 45229" width="4.203" height="4.203" transform="translate(0 102.438) rotate(-90)" fill="#7f4fc7"/>
    <rect id="Rectángulo_45230" data-name="Rectángulo 45230" width="4.203" height="4.203" transform="translate(0 111.368) rotate(-90)" fill="#7f4fc7"/>
    <rect id="Rectángulo_45231" data-name="Rectángulo 45231" width="4.203" height="4.203" transform="translate(0 120.298) rotate(-90)" fill="#7f4fc7"/>
    <rect id="Rectángulo_45232" data-name="Rectángulo 45232" width="4.203" height="4.203" transform="translate(8.93 30.994) rotate(-90)" fill="#7f4fc7"/>
    <rect id="Rectángulo_45878" data-name="Rectángulo 45878" width="4.203" height="4.203" transform="translate(8.93 4.203) rotate(-90)" fill="#7f4fc7"/>
    <rect id="Rectángulo_45233" data-name="Rectángulo 45233" width="4.203" height="4.203" transform="translate(8.93 39.925) rotate(-90)" fill="#7f4fc7"/>
    <rect id="Rectángulo_45879" data-name="Rectángulo 45879" width="4.203" height="4.203" transform="translate(8.93 13.134) rotate(-90)" fill="#7f4fc7"/>
    <rect id="Rectángulo_45234" data-name="Rectángulo 45234" width="4.203" height="4.203" transform="translate(8.93 48.855) rotate(-90)" fill="#7f4fc7"/>
    <rect id="Rectángulo_45880" data-name="Rectángulo 45880" width="4.203" height="4.203" transform="translate(8.93 22.064) rotate(-90)" fill="#7f4fc7"/>
    <rect id="Rectángulo_45235" data-name="Rectángulo 45235" width="4.202" height="4.203" transform="translate(8.93 57.785) rotate(-90)" fill="#7f4fc7"/>
    <rect id="Rectángulo_45236" data-name="Rectángulo 45236" width="4.203" height="4.203" transform="translate(8.93 66.716) rotate(-90)" fill="#7f4fc7"/>
    <rect id="Rectángulo_45237" data-name="Rectángulo 45237" width="4.202" height="4.203" transform="translate(8.93 75.646) rotate(-90)" fill="#7f4fc7"/>
    <rect id="Rectángulo_45238" data-name="Rectángulo 45238" width="4.203" height="4.203" transform="translate(8.93 84.577) rotate(-90)" fill="#7f4fc7"/>
    <rect id="Rectángulo_45239" data-name="Rectángulo 45239" width="4.202" height="4.203" transform="translate(8.93 93.507) rotate(-90)" fill="#7f4fc7"/>
    <rect id="Rectángulo_45240" data-name="Rectángulo 45240" width="4.203" height="4.203" transform="translate(8.93 102.438) rotate(-90)" fill="#7f4fc7"/>
    <rect id="Rectángulo_45241" data-name="Rectángulo 45241" width="4.203" height="4.203" transform="translate(8.93 111.368) rotate(-90)" fill="#7f4fc7"/>
    <rect id="Rectángulo_45242" data-name="Rectángulo 45242" width="4.203" height="4.203" transform="translate(8.93 120.298) rotate(-90)" fill="#7f4fc7"/>
    <rect id="Rectángulo_45243" data-name="Rectángulo 45243" width="4.203" height="4.203" transform="translate(17.861 30.994) rotate(-90)" fill="#7f4fc7"/>
    <rect id="Rectángulo_45881" data-name="Rectángulo 45881" width="4.203" height="4.203" transform="translate(17.861 4.203) rotate(-90)" fill="#7f4fc7"/>
    <rect id="Rectángulo_45244" data-name="Rectángulo 45244" width="4.203" height="4.203" transform="translate(17.861 39.925) rotate(-90)" fill="#7f4fc7"/>
    <rect id="Rectángulo_45882" data-name="Rectángulo 45882" width="4.203" height="4.203" transform="translate(17.861 13.134) rotate(-90)" fill="#7f4fc7"/>
    <rect id="Rectángulo_45245" data-name="Rectángulo 45245" width="4.203" height="4.203" transform="translate(17.861 48.855) rotate(-90)" fill="#7f4fc7"/>
    <rect id="Rectángulo_45883" data-name="Rectángulo 45883" width="4.203" height="4.203" transform="translate(17.861 22.064) rotate(-90)" fill="#7f4fc7"/>
    <rect id="Rectángulo_45246" data-name="Rectángulo 45246" width="4.202" height="4.203" transform="translate(17.861 57.785) rotate(-90)" fill="#7f4fc7"/>
    <rect id="Rectángulo_45247" data-name="Rectángulo 45247" width="4.203" height="4.203" transform="translate(17.861 66.716) rotate(-90)" fill="#7f4fc7"/>
    <rect id="Rectángulo_45248" data-name="Rectángulo 45248" width="4.202" height="4.203" transform="translate(17.861 75.646) rotate(-90)" fill="#7f4fc7"/>
    <rect id="Rectángulo_45249" data-name="Rectángulo 45249" width="4.203" height="4.203" transform="translate(17.861 84.577) rotate(-90)" fill="#7f4fc7"/>
    <rect id="Rectángulo_45250" data-name="Rectángulo 45250" width="4.202" height="4.203" transform="translate(17.861 93.507) rotate(-90)" fill="#7f4fc7"/>
    <rect id="Rectángulo_45251" data-name="Rectángulo 45251" width="4.203" height="4.203" transform="translate(17.861 102.438) rotate(-90)" fill="#7f4fc7"/>
    <rect id="Rectángulo_45252" data-name="Rectángulo 45252" width="4.203" height="4.203" transform="translate(17.861 111.368) rotate(-90)" fill="#7f4fc7"/>
    <rect id="Rectángulo_45253" data-name="Rectángulo 45253" width="4.203" height="4.203" transform="translate(17.861 120.298) rotate(-90)" fill="#7f4fc7"/>
    <rect id="Rectángulo_45221-2" data-name="Rectángulo 45221" width="4.203" height="4.203" transform="translate(26.044 30.994) rotate(-90)" fill="#7f4fc7"/>
    <rect id="Rectángulo_45884" data-name="Rectángulo 45884" width="4.203" height="4.203" transform="translate(26.044 4.203) rotate(-90)" fill="#7f4fc7"/>
    <rect id="Rectángulo_45222-2" data-name="Rectángulo 45222" width="4.203" height="4.203" transform="translate(26.044 39.925) rotate(-90)" fill="#7f4fc7"/>
    <rect id="Rectángulo_45885" data-name="Rectángulo 45885" width="4.203" height="4.203" transform="translate(26.044 13.134) rotate(-90)" fill="#7f4fc7"/>
    <rect id="Rectángulo_45223-2" data-name="Rectángulo 45223" width="4.203" height="4.203" transform="translate(26.044 48.855) rotate(-90)" fill="#7f4fc7"/>
    <rect id="Rectángulo_45886" data-name="Rectángulo 45886" width="4.203" height="4.203" transform="translate(26.044 22.064) rotate(-90)" fill="#7f4fc7"/>
    <rect id="Rectángulo_45224-2" data-name="Rectángulo 45224" width="4.202" height="4.203" transform="translate(26.044 57.785) rotate(-90)" fill="#7f4fc7"/>
    <rect id="Rectángulo_45225-2" data-name="Rectángulo 45225" width="4.203" height="4.203" transform="translate(26.044 66.716) rotate(-90)" fill="#7f4fc7"/>
    <rect id="Rectángulo_45226-2" data-name="Rectángulo 45226" width="4.202" height="4.203" transform="translate(26.044 75.646) rotate(-90)" fill="#7f4fc7"/>
    <rect id="Rectángulo_45227-2" data-name="Rectángulo 45227" width="4.203" height="4.203" transform="translate(26.044 84.577) rotate(-90)" fill="#7f4fc7"/>
    <rect id="Rectángulo_45228-2" data-name="Rectángulo 45228" width="4.202" height="4.203" transform="translate(26.044 93.507) rotate(-90)" fill="#7f4fc7"/>
    <rect id="Rectángulo_45229-2" data-name="Rectángulo 45229" width="4.203" height="4.203" transform="translate(26.044 102.438) rotate(-90)" fill="#7f4fc7"/>
    <rect id="Rectángulo_45230-2" data-name="Rectángulo 45230" width="4.203" height="4.203" transform="translate(26.044 111.368) rotate(-90)" fill="#7f4fc7"/>
    <rect id="Rectángulo_45231-2" data-name="Rectángulo 45231" width="4.203" height="4.203" transform="translate(26.044 120.298) rotate(-90)" fill="#7f4fc7"/>
    <rect id="Rectángulo_45232-2" data-name="Rectángulo 45232" width="4.203" height="4.203" transform="translate(34.975 30.994) rotate(-90)" fill="#7f4fc7"/>
    <rect id="Rectángulo_45887" data-name="Rectángulo 45887" width="4.203" height="4.203" transform="translate(34.975 4.203) rotate(-90)" fill="#7f4fc7"/>
    <rect id="Rectángulo_45233-2" data-name="Rectángulo 45233" width="4.203" height="4.203" transform="translate(34.975 39.925) rotate(-90)" fill="#7f4fc7"/>
    <rect id="Rectángulo_45888" data-name="Rectángulo 45888" width="4.203" height="4.203" transform="translate(34.975 13.134) rotate(-90)" fill="#7f4fc7"/>
    <rect id="Rectángulo_45234-2" data-name="Rectángulo 45234" width="4.203" height="4.203" transform="translate(34.975 48.855) rotate(-90)" fill="#7f4fc7"/>
    <rect id="Rectángulo_45889" data-name="Rectángulo 45889" width="4.203" height="4.203" transform="translate(34.975 22.064) rotate(-90)" fill="#7f4fc7"/>
    <rect id="Rectángulo_45235-2" data-name="Rectángulo 45235" width="4.202" height="4.203" transform="translate(34.975 57.785) rotate(-90)" fill="#7f4fc7"/>
    <rect id="Rectángulo_45236-2" data-name="Rectángulo 45236" width="4.203" height="4.203" transform="translate(34.975 66.716) rotate(-90)" fill="#7f4fc7"/>
    <rect id="Rectángulo_45237-2" data-name="Rectángulo 45237" width="4.202" height="4.203" transform="translate(34.975 75.646) rotate(-90)" fill="#7f4fc7"/>
    <rect id="Rectángulo_45238-2" data-name="Rectángulo 45238" width="4.203" height="4.203" transform="translate(34.975 84.577) rotate(-90)" fill="#7f4fc7"/>
    <rect id="Rectángulo_45239-2" data-name="Rectángulo 45239" width="4.202" height="4.203" transform="translate(34.975 93.507) rotate(-90)" fill="#7f4fc7"/>
    <rect id="Rectángulo_45240-2" data-name="Rectángulo 45240" width="4.203" height="4.203" transform="translate(34.975 102.438) rotate(-90)" fill="#7f4fc7"/>
    <rect id="Rectángulo_45241-2" data-name="Rectángulo 45241" width="4.203" height="4.203" transform="translate(34.975 111.368) rotate(-90)" fill="#7f4fc7"/>
    <rect id="Rectángulo_45242-2" data-name="Rectángulo 45242" width="4.203" height="4.203" transform="translate(34.975 120.298) rotate(-90)" fill="#7f4fc7"/>
    <rect id="Rectángulo_45243-2" data-name="Rectángulo 45243" width="4.203" height="4.203" transform="translate(43.905 30.994) rotate(-90)" fill="#7f4fc7"/>
    <rect id="Rectángulo_45876" data-name="Rectángulo 45876" width="4.203" height="4.203" transform="translate(43.905 4.203) rotate(-90)" fill="#7f4fc7"/>
    <rect id="Rectángulo_45244-2" data-name="Rectángulo 45244" width="4.203" height="4.203" transform="translate(43.905 39.925) rotate(-90)" fill="#7f4fc7"/>
    <rect id="Rectángulo_45877" data-name="Rectángulo 45877" width="4.203" height="4.203" transform="translate(43.905 13.134) rotate(-90)" fill="#7f4fc7"/>
    <rect id="Rectángulo_45245-2" data-name="Rectángulo 45245" width="4.203" height="4.203" transform="translate(43.905 48.855) rotate(-90)" fill="#7f4fc7"/>
    <rect id="Rectángulo_45890" data-name="Rectángulo 45890" width="4.203" height="4.203" transform="translate(43.905 22.064) rotate(-90)" fill="#7f4fc7"/>
    <rect id="Rectángulo_45246-2" data-name="Rectángulo 45246" width="4.202" height="4.203" transform="translate(43.905 57.785) rotate(-90)" fill="#7f4fc7"/>
    <rect id="Rectángulo_45247-2" data-name="Rectángulo 45247" width="4.203" height="4.203" transform="translate(43.905 66.716) rotate(-90)" fill="#7f4fc7"/>
    <rect id="Rectángulo_45248-2" data-name="Rectángulo 45248" width="4.202" height="4.203" transform="translate(43.905 75.646) rotate(-90)" fill="#7f4fc7"/>
    <rect id="Rectángulo_45249-2" data-name="Rectángulo 45249" width="4.203" height="4.203" transform="translate(43.905 84.577) rotate(-90)" fill="#7f4fc7"/>
    <rect id="Rectángulo_45250-2" data-name="Rectángulo 45250" width="4.202" height="4.203" transform="translate(43.905 93.507) rotate(-90)" fill="#7f4fc7"/>
    <rect id="Rectángulo_45251-2" data-name="Rectángulo 45251" width="4.203" height="4.203" transform="translate(43.905 102.438) rotate(-90)" fill="#7f4fc7"/>
    <rect id="Rectángulo_45252-2" data-name="Rectángulo 45252" width="4.203" height="4.203" transform="translate(43.905 111.368) rotate(-90)" fill="#7f4fc7"/>
    <rect id="Rectángulo_45253-2" data-name="Rectángulo 45253" width="4.203" height="4.203" transform="translate(43.905 120.298) rotate(-90)" fill="#7f4fc7"/>
  </g>
</svg>
