<svg xmlns="http://www.w3.org/2000/svg" xmlns:xlink="http://www.w3.org/1999/xlink" width="1240" height="682" viewBox="0 0 1240 682">
  <defs>
    <clipPath id="clip-path">
      <rect id="Rectángulo_47836" data-name="Rectángulo 47836" width="1240" height="682" rx="16" transform="translate(180 2391)" fill="#f6f6f6"/>
    </clipPath>
    <clipPath id="clip-path-2">
      <ellipse id="Elipse_5921" data-name="Elipse 5921" cx="76.465" cy="76.465" rx="76.465" ry="76.465" fill="none"/>
    </clipPath>
  </defs>
  <g id="Enmascarar_grupo_141272" data-name="Enmascarar grupo 141272" transform="translate(-180 -2391)" clip-path="url(#clip-path)">
    <g id="Grupo_156934" data-name="Grupo 156934" transform="translate(0 66.943)">
      <path id="Trazado_198738" data-name="Trazado 198738" d="M28.078,0H1226.655c15.507,0,28.078,16.727,28.078,37.361V749.548c0,20.634-12.571,37.361-28.078,37.361H28.078C12.571,786.909,0,770.182,0,749.548V37.361C0,16.727,12.571,0,28.078,0Z" transform="translate(181.341 2323.616)" fill="#f6f6f6"/>
      <g id="Grupo_156933" data-name="Grupo 156933" transform="translate(-4.784 2238.057)">
        <path id="Trazado_198739" data-name="Trazado 198739" d="M280.113,383.022c-108.267,0-196.035,87.768-196.035,196.035s87.768,196.035,196.035,196.035,196.035-87.768,196.035-196.035S388.38,383.022,280.113,383.022Zm0,352.885a156.85,156.85,0,1,1,156.85-156.85A156.85,156.85,0,0,1,280.113,735.907Z" transform="translate(117.539 -33.515)" fill="#e8e8e8" opacity="0.428"/>
        <path id="Trazado_198740" data-name="Trazado 198740" d="M201.422,333.738-92.892,628.052a25.712,25.712,0,0,1-36.366,0h0a25.715,25.715,0,0,1,0-36.366L165.055,297.372a25.715,25.715,0,0,1,36.366,0h0A25.715,25.715,0,0,1,201.422,333.738Z" transform="translate(136.79 -289.84)" fill="none" stroke="#8f9294" stroke-miterlimit="10" stroke-width="2" opacity="0.232"/>
        <path id="Trazado_198741" data-name="Trazado 198741" d="M166.139,421.669-58.507,646.315a19.628,19.628,0,0,1-27.758,0h0a19.627,19.627,0,0,1,0-27.759L138.38,393.91a19.63,19.63,0,0,1,27.759,0h0A19.629,19.629,0,0,1,166.139,421.669Z" transform="translate(142.204 -271.265)" fill="none" stroke="#8f9294" stroke-miterlimit="10" stroke-width="2" opacity="0.339"/>
        <g id="Grupo_156910" data-name="Grupo 156910" transform="translate(1295.763 331.644)">
          <line id="Línea_2430" data-name="Línea 2430" x1="18.846" y2="18.846" fill="none" stroke="#d8d9da" stroke-miterlimit="10" stroke-width="0.78"/>
          <line id="Línea_2431" data-name="Línea 2431" x1="18.846" y2="18.846" transform="translate(9.181)" fill="none" stroke="#d8d9da" stroke-miterlimit="10" stroke-width="0.78"/>
          <line id="Línea_2432" data-name="Línea 2432" x1="18.846" y2="18.846" transform="translate(18.362)" fill="none" stroke="#d8d9da" stroke-miterlimit="10" stroke-width="0.78"/>
          <line id="Línea_2433" data-name="Línea 2433" x1="18.846" y2="18.846" transform="translate(27.544)" fill="none" stroke="#d8d9da" stroke-miterlimit="10" stroke-width="0.78"/>
          <line id="Línea_2434" data-name="Línea 2434" x1="18.846" y2="18.846" transform="translate(36.725)" fill="none" stroke="#d8d9da" stroke-miterlimit="10" stroke-width="0.78"/>
          <line id="Línea_2435" data-name="Línea 2435" x1="18.846" y2="18.846" transform="translate(45.906)" fill="none" stroke="#d8d9da" stroke-miterlimit="10" stroke-width="0.78"/>
          <line id="Línea_2436" data-name="Línea 2436" x1="18.846" y2="18.846" transform="translate(55.087)" fill="none" stroke="#d8d9da" stroke-miterlimit="10" stroke-width="0.78"/>
          <line id="Línea_2437" data-name="Línea 2437" x1="18.846" y2="18.846" transform="translate(64.268)" fill="none" stroke="#d8d9da" stroke-miterlimit="10" stroke-width="0.78"/>
          <line id="Línea_2438" data-name="Línea 2438" x1="18.846" y2="18.846" transform="translate(73.449)" fill="none" stroke="#d8d9da" stroke-miterlimit="10" stroke-width="0.78"/>
          <line id="Línea_2439" data-name="Línea 2439" x1="18.846" y2="18.846" transform="translate(82.631)" fill="none" stroke="#d8d9da" stroke-miterlimit="10" stroke-width="0.78"/>
          <line id="Línea_2440" data-name="Línea 2440" x1="18.846" y2="18.846" transform="translate(91.812)" fill="none" stroke="#d8d9da" stroke-miterlimit="10" stroke-width="0.78"/>
          <line id="Línea_2441" data-name="Línea 2441" x1="18.846" y2="18.846" transform="translate(100.993)" fill="none" stroke="#d8d9da" stroke-miterlimit="10" stroke-width="0.78"/>
          <line id="Línea_2442" data-name="Línea 2442" x1="18.846" y2="18.846" transform="translate(110.174)" fill="none" stroke="#d8d9da" stroke-miterlimit="10" stroke-width="0.78"/>
        </g>
        <g id="Grupo_156915" data-name="Grupo 156915" transform="translate(366.341 208.458)">
          <g id="Grupo_156911" data-name="Grupo 156911">
            <line id="Línea_2443" data-name="Línea 2443" y2="15.206" transform="translate(7.603)" fill="none" stroke="#8f9294" stroke-miterlimit="10" stroke-width="0.388"/>
            <line id="Línea_2444" data-name="Línea 2444" x2="15.206" transform="translate(0 7.603)" fill="none" stroke="#8f9294" stroke-miterlimit="10" stroke-width="0.388"/>
          </g>
          <g id="Grupo_156912" data-name="Grupo 156912" transform="translate(41.436)">
            <line id="Línea_2445" data-name="Línea 2445" y2="15.206" transform="translate(7.603)" fill="none" stroke="#8f9294" stroke-miterlimit="10" stroke-width="0.388"/>
            <line id="Línea_2446" data-name="Línea 2446" x2="15.206" transform="translate(0 7.603)" fill="none" stroke="#8f9294" stroke-miterlimit="10" stroke-width="0.388"/>
          </g>
          <g id="Grupo_156913" data-name="Grupo 156913" transform="translate(82.873)">
            <line id="Línea_2447" data-name="Línea 2447" y2="15.206" transform="translate(7.603)" fill="none" stroke="#8f9294" stroke-miterlimit="10" stroke-width="0.388"/>
            <line id="Línea_2448" data-name="Línea 2448" x2="15.206" transform="translate(0 7.603)" fill="none" stroke="#8f9294" stroke-miterlimit="10" stroke-width="0.388"/>
          </g>
          <g id="Grupo_156914" data-name="Grupo 156914" transform="translate(124.309)">
            <line id="Línea_2449" data-name="Línea 2449" y2="15.206" transform="translate(7.603)" fill="none" stroke="#8f9294" stroke-miterlimit="10" stroke-width="0.388"/>
            <line id="Línea_2450" data-name="Línea 2450" x2="15.206" transform="translate(0 7.603)" fill="none" stroke="#8f9294" stroke-miterlimit="10" stroke-width="0.388"/>
          </g>
        </g>
        <g id="Grupo_156920" data-name="Grupo 156920" transform="translate(366.341 233.641)">
          <g id="Grupo_156916" data-name="Grupo 156916">
            <line id="Línea_2451" data-name="Línea 2451" y2="15.206" transform="translate(7.603)" fill="none" stroke="#8f9294" stroke-miterlimit="10" stroke-width="0.388"/>
            <line id="Línea_2452" data-name="Línea 2452" x2="15.206" transform="translate(0 7.603)" fill="none" stroke="#8f9294" stroke-miterlimit="10" stroke-width="0.388"/>
          </g>
          <g id="Grupo_156917" data-name="Grupo 156917" transform="translate(41.436)">
            <line id="Línea_2453" data-name="Línea 2453" y2="15.206" transform="translate(7.603)" fill="none" stroke="#8f9294" stroke-miterlimit="10" stroke-width="0.388"/>
            <line id="Línea_2454" data-name="Línea 2454" x2="15.206" transform="translate(0 7.603)" fill="none" stroke="#8f9294" stroke-miterlimit="10" stroke-width="0.388"/>
          </g>
          <g id="Grupo_156918" data-name="Grupo 156918" transform="translate(82.873)">
            <line id="Línea_2455" data-name="Línea 2455" y2="15.206" transform="translate(7.603)" fill="none" stroke="#8f9294" stroke-miterlimit="10" stroke-width="0.388"/>
            <line id="Línea_2456" data-name="Línea 2456" x2="15.206" transform="translate(0 7.603)" fill="none" stroke="#8f9294" stroke-miterlimit="10" stroke-width="0.388"/>
          </g>
          <g id="Grupo_156919" data-name="Grupo 156919" transform="translate(124.309)">
            <line id="Línea_2457" data-name="Línea 2457" y2="15.206" transform="translate(7.603)" fill="none" stroke="#8f9294" stroke-miterlimit="10" stroke-width="0.388"/>
            <line id="Línea_2458" data-name="Línea 2458" x2="15.206" transform="translate(0 7.603)" fill="none" stroke="#8f9294" stroke-miterlimit="10" stroke-width="0.388"/>
          </g>
        </g>
        <g id="Grupo_156925" data-name="Grupo 156925" transform="translate(366.341 258.825)">
          <g id="Grupo_156921" data-name="Grupo 156921">
            <line id="Línea_2459" data-name="Línea 2459" y2="15.206" transform="translate(7.603)" fill="none" stroke="#8f9294" stroke-miterlimit="10" stroke-width="0.388"/>
            <line id="Línea_2460" data-name="Línea 2460" x2="15.206" transform="translate(0 7.603)" fill="none" stroke="#8f9294" stroke-miterlimit="10" stroke-width="0.388"/>
          </g>
          <g id="Grupo_156922" data-name="Grupo 156922" transform="translate(41.436)">
            <line id="Línea_2461" data-name="Línea 2461" y2="15.206" transform="translate(7.603)" fill="none" stroke="#8f9294" stroke-miterlimit="10" stroke-width="0.388"/>
            <line id="Línea_2462" data-name="Línea 2462" x2="15.206" transform="translate(0 7.603)" fill="none" stroke="#8f9294" stroke-miterlimit="10" stroke-width="0.388"/>
          </g>
          <g id="Grupo_156923" data-name="Grupo 156923" transform="translate(82.873)">
            <line id="Línea_2463" data-name="Línea 2463" y2="15.206" transform="translate(7.603)" fill="none" stroke="#8f9294" stroke-miterlimit="10" stroke-width="0.388"/>
            <line id="Línea_2464" data-name="Línea 2464" x2="15.206" transform="translate(0 7.603)" fill="none" stroke="#8f9294" stroke-miterlimit="10" stroke-width="0.388"/>
          </g>
          <g id="Grupo_156924" data-name="Grupo 156924" transform="translate(124.309)">
            <line id="Línea_2465" data-name="Línea 2465" y2="15.206" transform="translate(7.603)" fill="none" stroke="#8f9294" stroke-miterlimit="10" stroke-width="0.388"/>
            <line id="Línea_2466" data-name="Línea 2466" x2="15.206" transform="translate(0 7.603)" fill="none" stroke="#8f9294" stroke-miterlimit="10" stroke-width="0.388"/>
          </g>
        </g>
        <g id="Grupo_156930" data-name="Grupo 156930" transform="translate(366.341 284.008)">
          <g id="Grupo_156926" data-name="Grupo 156926">
            <line id="Línea_2467" data-name="Línea 2467" y2="15.206" transform="translate(7.603)" fill="none" stroke="#8f9294" stroke-miterlimit="10" stroke-width="0.388"/>
            <line id="Línea_2468" data-name="Línea 2468" x2="15.206" transform="translate(0 7.603)" fill="none" stroke="#8f9294" stroke-miterlimit="10" stroke-width="0.388"/>
          </g>
          <g id="Grupo_156927" data-name="Grupo 156927" transform="translate(41.436)">
            <line id="Línea_2469" data-name="Línea 2469" y2="15.206" transform="translate(7.603)" fill="none" stroke="#8f9294" stroke-miterlimit="10" stroke-width="0.388"/>
            <line id="Línea_2470" data-name="Línea 2470" x2="15.206" transform="translate(0 7.603)" fill="none" stroke="#8f9294" stroke-miterlimit="10" stroke-width="0.388"/>
          </g>
          <g id="Grupo_156928" data-name="Grupo 156928" transform="translate(82.873)">
            <line id="Línea_2471" data-name="Línea 2471" y2="15.206" transform="translate(7.603)" fill="none" stroke="#8f9294" stroke-miterlimit="10" stroke-width="0.388"/>
            <line id="Línea_2472" data-name="Línea 2472" x2="15.206" transform="translate(0 7.603)" fill="none" stroke="#8f9294" stroke-miterlimit="10" stroke-width="0.388"/>
          </g>
          <g id="Grupo_156929" data-name="Grupo 156929" transform="translate(124.309)">
            <line id="Línea_2473" data-name="Línea 2473" y2="15.206" transform="translate(7.603)" fill="none" stroke="#8f9294" stroke-miterlimit="10" stroke-width="0.388"/>
            <line id="Línea_2474" data-name="Línea 2474" x2="15.206" transform="translate(0 7.603)" fill="none" stroke="#8f9294" stroke-miterlimit="10" stroke-width="0.388"/>
          </g>
        </g>
        <rect id="Rectángulo_47835" data-name="Rectángulo 47835" width="168.599" height="14.137" transform="translate(973.464 141.599)" fill="none" stroke="#8f9294" stroke-linecap="round" stroke-linejoin="round" stroke-width="1"/>
        <path id="Trazado_198742" data-name="Trazado 198742" d="M760.524,275.471a35.881,35.881,0,1,0,35.882,35.88A35.88,35.88,0,0,0,760.524,275.471Zm0,52.659A16.779,16.779,0,1,1,777.3,311.351,16.779,16.779,0,0,1,760.524,328.13Z" transform="translate(463.872 -77.871)" fill="#fff"/>
        <g id="Grupo_156931" data-name="Grupo 156931" transform="translate(1127.97 438.689)" clip-path="url(#clip-path-2)">
          <path id="Trazado_198743" data-name="Trazado 198743" d="M528.822,136.445c-21.149,22.449-43.859,43.343-65.012,65.879" transform="translate(-472.032 -140.032)" fill="none" stroke="#606060" stroke-miterlimit="10" stroke-width="0.655"/>
          <path id="Trazado_198744" data-name="Trazado 198744" d="M538.511,136.393c-23.557,25.246-49.9,49.772-74.739,74.7" transform="translate(-472.047 -140.052)" fill="none" stroke="#606060" stroke-miterlimit="10" stroke-width="0.655"/>
          <path id="Trazado_198745" data-name="Trazado 198745" d="M547.509,136.4c-27.963,27.956-56.123,56.116-83.865,83.879" transform="translate(-472.096 -140.047)" fill="none" stroke="#606060" stroke-miterlimit="10" stroke-width="0.655"/>
          <path id="Trazado_198746" data-name="Trazado 198746" d="M556.357,136.55q-45.708,45.719-92.662,92.647" transform="translate(-472.077 -139.991)" fill="none" stroke="#606060" stroke-miterlimit="10" stroke-width="0.655"/>
          <path id="Trazado_198747" data-name="Trazado 198747" d="M567.2,136.489c-34.076,33.289-68.6,66.9-103.43,101.5" transform="translate(-472.048 -140.014)" fill="none" stroke="#606060" stroke-miterlimit="10" stroke-width="0.655"/>
          <path id="Trazado_198748" data-name="Trazado 198748" d="M574.369,136.579c-35.749,36.8-71.177,71.317-107.512,108.56-.908.909-2.724.909-3.206,2.155" transform="translate(-472.094 -139.98)" fill="none" stroke="#606060" stroke-miterlimit="10" stroke-width="0.655"/>
          <path id="Trazado_198749" data-name="Trazado 198749" d="M584.163,136.461c-22.006,23.335-45.624,44.228-69.243,67.846-17.259,18.168-34.519,33.611-51.057,51.744" transform="translate(-472.012 -140.025)" fill="none" stroke="#606060" stroke-miterlimit="10" stroke-width="0.655"/>
          <path id="Trazado_198750" data-name="Trazado 198750" d="M590.328,137.765c-41.762,42.418-85.366,83.3-126.558,126.855" transform="translate(-472.048 -139.52)" fill="none" stroke="#606060" stroke-miterlimit="10" stroke-width="0.655"/>
          <path id="Trazado_198751" data-name="Trazado 198751" d="M590.2,144.249c-41.674,41.6-84.369,84.29-126.318,126.478" transform="translate(-472.005 -137.005)" fill="none" stroke="#606060" stroke-miterlimit="10" stroke-width="0.655"/>
          <path id="Trazado_198752" data-name="Trazado 198752" d="M594.768,147.767C551.241,191.747,506.73,234.441,463.9,278.5" transform="translate(-471.998 -135.641)" fill="none" stroke="#606060" stroke-miterlimit="10" stroke-width="0.655"/>
          <path id="Trazado_198753" data-name="Trazado 198753" d="M603.926,147.736c-47.124,46.748-92.545,94.893-140.31,140.184" transform="translate(-472.107 -135.653)" fill="none" stroke="#606060" stroke-miterlimit="10" stroke-width="0.655"/>
          <path id="Trazado_198754" data-name="Trazado 198754" d="M610.917,147.97,467.2,291.682" transform="translate(-470.715 -135.562)" fill="none" stroke="#606060" stroke-miterlimit="10" stroke-width="0.655"/>
          <path id="Trazado_198755" data-name="Trazado 198755" d="M617.256,147.974c-47.981,47.327-95.217,95.471-143.641,143.788" transform="translate(-468.23 -135.56)" fill="none" stroke="#606060" stroke-miterlimit="10" stroke-width="0.655"/>
          <path id="Trazado_198756" data-name="Trazado 198756" d="M619.508,150.913c-46.374,45.973-91.792,93.209-139.451,139.745" transform="translate(-465.731 -134.421)" fill="none" stroke="#606060" stroke-miterlimit="10" stroke-width="0.655"/>
          <path id="Trazado_198757" data-name="Trazado 198757" d="M617.273,157.09c-43.923,43.759-85.708,89.179-130.744,131.169" transform="translate(-463.221 -132.025)" fill="none" stroke="#606060" stroke-miterlimit="10" stroke-width="0.655"/>
          <path id="Trazado_198758" data-name="Trazado 198758" d="M614.419,164.17c-40.864,40.292-80.834,81.17-121.39,121.3" transform="translate(-460.701 -129.279)" fill="none" stroke="#606060" stroke-miterlimit="10" stroke-width="0.655"/>
          <path id="Trazado_198759" data-name="Trazado 198759" d="M612.153,170.164c-37.494,37.424-74.739,75.576-112.6,112.9" transform="translate(-458.171 -126.955)" fill="none" stroke="#606060" stroke-miterlimit="10" stroke-width="0.655"/>
          <path id="Trazado_198760" data-name="Trazado 198760" d="M609.575,176.763Q557.57,228.7,505.942,280.618" transform="translate(-455.693 -124.396)" fill="none" stroke="#606060" stroke-miterlimit="10" stroke-width="0.655"/>
          <path id="Trazado_198761" data-name="Trazado 198761" d="M607.134,183.234c-31.141,32-62.936,63.8-94.626,94.74" transform="translate(-453.147 -121.886)" fill="none" stroke="#606060" stroke-miterlimit="10" stroke-width="0.655"/>
          <path id="Trazado_198762" data-name="Trazado 198762" d="M604.531,189.833c-28.3,28.295-57.372,57.364-85.6,85.644" transform="translate(-450.655 -119.327)" fill="none" stroke="#606060" stroke-miterlimit="10" stroke-width="0.655"/>
          <path id="Trazado_198763" data-name="Trazado 198763" d="M601.8,196.537q-38.01,38.025-76.427,76.384" transform="translate(-448.159 -116.727)" fill="none" stroke="#606060" stroke-miterlimit="10" stroke-width="0.655"/>
          <path id="Trazado_198764" data-name="Trazado 198764" d="M599.572,202.6q-26.448,26.336-52.756,52.812-7.511,7.58-15,15.184" transform="translate(-445.658 -114.376)" fill="none" stroke="#606060" stroke-miterlimit="10" stroke-width="0.655"/>
          <path id="Trazado_198765" data-name="Trazado 198765" d="M597,209.851c-19.193,19.59-39.178,39.575-58.728,57.948" transform="translate(-443.154 -111.564)" fill="none" stroke="#606060" stroke-miterlimit="10" stroke-width="0.655"/>
        </g>
        <ellipse id="Elipse_5922" data-name="Elipse 5922" cx="7.443" cy="7.443" rx="7.443" ry="7.443" transform="translate(1260.28 111.384)" fill="none" stroke="#606060" stroke-miterlimit="10" stroke-width="0.655"/>
        <g id="Grupo_156932" data-name="Grupo 156932" transform="translate(1323.278 172.873)">
          <line id="Línea_2475" data-name="Línea 2475" x1="14.827" y2="14.827" fill="none" stroke="#d8d9da" stroke-miterlimit="10" stroke-width="0.78"/>
          <line id="Línea_2476" data-name="Línea 2476" x1="14.827" y2="14.827" transform="translate(7.223)" fill="none" stroke="#d8d9da" stroke-miterlimit="10" stroke-width="0.78"/>
          <line id="Línea_2477" data-name="Línea 2477" x1="14.827" y2="14.827" transform="translate(14.446)" fill="none" stroke="#d8d9da" stroke-miterlimit="10" stroke-width="0.78"/>
          <line id="Línea_2478" data-name="Línea 2478" x1="14.827" y2="14.827" transform="translate(21.67)" fill="none" stroke="#d8d9da" stroke-miterlimit="10" stroke-width="0.78"/>
          <line id="Línea_2479" data-name="Línea 2479" x1="14.827" y2="14.827" transform="translate(28.893)" fill="none" stroke="#d8d9da" stroke-miterlimit="10" stroke-width="0.78"/>
          <line id="Línea_2480" data-name="Línea 2480" x1="14.827" y2="14.827" transform="translate(36.116)" fill="none" stroke="#d8d9da" stroke-miterlimit="10" stroke-width="0.78"/>
          <line id="Línea_2481" data-name="Línea 2481" x1="14.827" y2="14.827" transform="translate(43.339)" fill="none" stroke="#d8d9da" stroke-miterlimit="10" stroke-width="0.78"/>
          <line id="Línea_2482" data-name="Línea 2482" x1="14.827" y2="14.827" transform="translate(50.563)" fill="none" stroke="#d8d9da" stroke-miterlimit="10" stroke-width="0.78"/>
          <line id="Línea_2483" data-name="Línea 2483" x1="14.827" y2="14.827" transform="translate(57.786)" fill="none" stroke="#d8d9da" stroke-miterlimit="10" stroke-width="0.78"/>
          <line id="Línea_2484" data-name="Línea 2484" x1="14.827" y2="14.827" transform="translate(65.009)" fill="none" stroke="#d8d9da" stroke-miterlimit="10" stroke-width="0.78"/>
          <line id="Línea_2485" data-name="Línea 2485" x1="14.827" y2="14.827" transform="translate(72.232)" fill="none" stroke="#d8d9da" stroke-miterlimit="10" stroke-width="0.78"/>
          <line id="Línea_2486" data-name="Línea 2486" x1="14.827" y2="14.827" transform="translate(79.455)" fill="none" stroke="#d8d9da" stroke-miterlimit="10" stroke-width="0.78"/>
          <line id="Línea_2487" data-name="Línea 2487" x1="14.827" y2="14.827" transform="translate(86.679)" fill="none" stroke="#d8d9da" stroke-miterlimit="10" stroke-width="0.78"/>
        </g>
      </g>
    </g>
  </g>
</svg>
